<?xml version="1.0" encoding="UTF-8"?>
<!DOCTYPE svg PUBLIC "-//W3C//DTD SVG 1.1//EN" "http://www.w3.org/Graphics/SVG/1.1/DTD/svg11.dtd">
<!-- Creator: CorelDRAW 2019 (64-Bit) -->
<svg xmlns="http://www.w3.org/2000/svg" xml:space="preserve" width="54px" height="135px" version="1.1" style="shape-rendering:geometricPrecision; text-rendering:geometricPrecision; image-rendering:optimizeQuality; fill-rule:evenodd; clip-rule:evenodd"
viewBox="0 0 0.79 1.98"
 xmlns:xlink="http://www.w3.org/1999/xlink"
 xmlns:xodm="http://www.corel.com/coreldraw/odm/2003">
 <defs>
  <style type="text/css">
   <![CDATA[
    .fil9 {fill:none}
    .fil0 {fill:white}
    .fil5 {fill:black}
    .fil4 {fill:yellow}
    .fil3 {fill:#FF99CC}
    .fil2 {fill:fuchsia}
    .fil1 {fill:lime}
    .fil6 {fill:blue}
    .fil7 {fill:white;fill-rule:nonzero}
    .fil8 {fill:blue;fill-rule:nonzero}
   ]]>
  </style>
 </defs>
 <g id="Слой_x0020_1">
  <metadata id="CorelCorpID_0Corel-Layer"/>
  <g id="_2496016168464">
   <g>
    <path class="fil0" d="M0.2 0.26c-0.02,0 -0.04,0 -0.07,0l0 -0.01 0.01 0 0 -0.01 0 -0.01 -0.02 0c0,0 -0.01,0.01 -0.01,0.02 0,0 0,0 0,0l-0.01 0.02c0,0 0,0 0,0.01 0,0 0.01,0.01 0.01,0.01 0.01,0 0.02,0 0.03,0l0.09 0c0.01,0 0.05,0 0.05,0 0,0 0.01,0 0.01,-0.01 0,0 0,0 0,0 0,0 0,0 0,0 0,0 0,0 0,0 0,-0.01 0,-0.01 0,-0.01 0,0 0,-0.01 0,-0.01l0 -0.01c0,0 -0.01,-0.01 -0.01,-0.01l0 -0.01 -0.03 0 0.01 0.01c0,0 0,0 0,0 0,0 0,0 0,0.01l0 0 0 0c0,0.01 0,0.01 0,0.01l-0.06 0zm-0.03 -0.06c0,0 0.01,0.01 0.01,0.01 0,0 0,0.01 0.01,0.01 0,0.01 0,0 0,0.01 0,0 0,0 0,0 0,0 0,0 0,0 0,0 0,0 0,0 0,0 0,0 0,0 0,0 0,0 0.01,0 0,0.01 0,0 0,0 0,0 0.01,-0.01 0.02,-0.02 0,0 0,0 0,0 0,0 0,0 0,0 0,0 0,-0.01 0.01,-0.01 0,0 0,0 0,0l0.01 -0.02c0,0 0,0 0,0 0.01,0 0.01,-0.01 0,-0.01 0,0 0,0 0,0 0,0 0,0 -0.01,0 0,0 0,0 0,0 0,0 0,0 0,0 0,0 0,0 -0.01,0 0,0 0,0 0,0 0,0 0,0 0,-0.01 0,0 0,0 0,0 0,-0.02 0,-0.03 0,-0.04 0,-0.01 0,-0.02 -0.01,-0.02 0,0 -0.01,0 -0.02,0 -0.01,0 -0.01,0.01 -0.01,0.01 0,0.01 0,0.01 0,0.01l0 0.04c0,0 0,0 0,0 0,0 0,0 0,0 0,0 0,0 0,0.01 0,0 0,0 0,0l-0.01 0 -0.01 0 -0.01 0c0,0 0,0 0,0 0,0 0,0 0,0 0,0 0,0 0,0 0,0.01 0,0.01 0.01,0.01 0,0.01 0,0.01 0,0.01l0.01 0.01c0,0 0,0 0,0 0,0 0,0 0,0 0,0 0,0 0,0zm0.03 -0.19c0.1,0 0.18,0.09 0.18,0.19 0,0.1 -0.08,0.18 -0.18,0.18 -0.1,0 -0.18,-0.08 -0.18,-0.18 0,-0.1 0.08,-0.19 0.18,-0.19z"/>
    <path class="fil1" d="M0.2 0.65c-0.02,0 -0.04,0 -0.07,0l0 0 0.01 -0.01 0 -0.01 0 -0.01 -0.02 0c0,0.01 -0.01,0.02 -0.01,0.02 0,0 0,0.01 0,0.01l-0.01 0.01c0,0.01 0,0.01 0,0.01 0,0.01 0.01,0.01 0.01,0.01 0.01,0.01 0.02,0.01 0.03,0.01l0.09 0c0.01,0 0.05,0 0.05,-0.01 0,0 0.01,0 0.01,0 0,0 0,0 0,0 0,0 0,0 0,0 0,-0.01 0,-0.01 0,-0.01 0,0 0,0 0,-0.01 0,0 0,-0.01 0,-0.01l0 0c0,0 -0.01,-0.01 -0.01,-0.02l0 -0.01 -0.03 0 0.01 0.01c0,0 0,0 0,0 0,0.01 0,0.01 0,0.01l0 0.01 0 0c0,0 0,0 0,0l-0.06 0zm-0.03 -0.05c0,0 0.01,0.01 0.01,0.01 0,0 0,0.01 0.01,0.01 0,0 0,0 0,0 0,0 0,0 0,0 0,0 0,0 0,0 0,0.01 0,0.01 0,0.01 0,0 0,0 0,0 0,0 0,0 0.01,0 0,0 0,0 0,0 0,0 0.01,-0.02 0.02,-0.02 0,0 0,0 0,-0.01 0,0 0,0 0,0 0,0 0,0 0.01,0 0,0 0,0 0,0l0.01 -0.02c0,0 0,0 0,-0.01 0.01,0 0.01,-0.01 0,-0.01 0,0 0,0 0,0 0,0 0,0 -0.01,0 0,0 0,0 0,0 0,0 0,0 0,0 0,0 0,0 -0.01,0 0,0 0,0 0,0 0,0 0,0 0,0 0,0 0,0 0,-0.01 0,-0.01 0,-0.02 0,-0.04 0,0 0,-0.01 -0.01,-0.01 0,0 -0.01,0 -0.02,0 -0.01,0 -0.01,0 -0.01,0.01 0,0 0,0.01 0,0.01l0 0.03c0,0 0,0.01 0,0.01 0,0 0,0 0,0 0,0 0,0 0,0 0,0 0,0 0,0l-0.01 0 -0.01 0 -0.01 0c0,0 0,0 0,0.01 0,0 0,0 0,0 0,0 0,0 0,0 0,0 0,0.01 0.01,0.01 0,0 0,0.01 0,0.01l0.01 0c0,0.01 0,0 0,0.01 0,0 0,0 0,0 0,0 0,0 0,0zm0.03 -0.19c0.1,0 0.18,0.08 0.18,0.18 0,0.1 -0.08,0.19 -0.18,0.19 -0.1,0 -0.18,-0.09 -0.18,-0.19 0,-0.1 0.08,-0.18 0.18,-0.18z"/>
    <path class="fil2" d="M0.2 1.05c-0.02,0 -0.04,0 -0.07,0l0 -0.01 0.01 0 0 -0.01 0 -0.01 -0.02 0c0,0 -0.01,0.01 -0.01,0.02 0,0 0,0 0,0l-0.01 0.02c0,0 0,0 0,0.01 0,0 0.01,0.01 0.01,0.01 0.01,0 0.02,0 0.03,0l0.09 0c0.01,0 0.05,0 0.05,0 0,0 0.01,0 0.01,-0.01 0,0 0,0 0,0 0,0 0,0 0,0 0,0 0,0 0,0 0,-0.01 0,-0.01 0,-0.01 0,0 0,-0.01 0,-0.01l0 -0.01c0,0 -0.01,-0.01 -0.01,-0.01l0 -0.01 -0.03 0 0.01 0.01c0,0 0,0 0,0 0,0 0,0.01 0,0.01l0 0 0 0.01c0,0 0,0 0,0l-0.06 0zm-0.03 -0.06c0,0 0.01,0.01 0.01,0.01 0,0.01 0,0.01 0.01,0.01 0,0.01 0,0.01 0,0.01 0,0 0,0 0,0 0,0 0,0 0,0 0,0 0,0 0,0 0,0 0,0 0,0 0,0 0,0 0.01,0.01 0,0 0,0 0,-0.01 0,0 0.01,-0.01 0.02,-0.02 0,0 0,0 0,0 0,0 0,0 0,0 0,0 0,-0.01 0.01,-0.01 0,0 0,0 0,0l0.01 -0.01c0,-0.01 0,-0.01 0,-0.01 0.01,0 0.01,-0.01 0,-0.01 0,0 0,0 0,0 0,0 0,0 -0.01,0 0,0 0,0 0,0 0,0 0,0 0,0 0,0 0,0 -0.01,0 0,0 0,0 0,0 0,0 0,0 0,0 0,-0.01 0,-0.01 0,-0.01 0,-0.02 0,-0.03 0,-0.04 0,-0.01 0,-0.01 -0.01,-0.02 0,0 -0.01,0 -0.02,0 -0.01,0 -0.01,0.01 -0.01,0.01 0,0.01 0,0.01 0,0.02l0 0.03c0,0 0,0 0,0 0,0 0,0 0,0 0,0.01 0,0.01 0,0.01 0,0 0,0 0,0l-0.01 0 -0.01 0 -0.01 0c0,0 0,0 0,0 0,0 0,0 0,0 0,0 0,0 0,0 0,0.01 0,0.01 0.01,0.01 0,0.01 0,0.01 0,0.01l0.01 0.01c0,0 0,0 0,0 0,0 0,0 0,0 0,0 0,0 0,0zm0.03 -0.18c0.1,0 0.18,0.08 0.18,0.18 0,0.1 -0.08,0.18 -0.18,0.18 -0.1,0 -0.18,-0.08 -0.18,-0.18 0,-0.1 0.08,-0.18 0.18,-0.18z"/>
    <path class="fil3" d="M0.2 1.44c-0.02,0 -0.04,0 -0.07,0l0 0 0.01 -0.01 0 -0.01 0 0 -0.02 0c0,0 -0.01,0.01 -0.01,0.01 0,0 0,0.01 0,0.01l-0.01 0.01c0,0.01 0,0.01 0,0.01 0,0.01 0.01,0.01 0.01,0.02 0.01,0 0.02,0 0.03,0l0.09 0c0.01,0 0.05,0 0.05,0 0,-0.01 0.01,-0.01 0.01,-0.01 0,0 0,0 0,0 0,0 0,0 0,0 0,-0.01 0,-0.01 0,-0.01 0,0 0,0 0,0 0,-0.01 0,-0.02 0,-0.02l0 0c0,0 -0.01,-0.01 -0.01,-0.01l0 -0.01 -0.03 0 0.01 0c0,0 0,0 0,0.01 0,0 0,0 0,0l0 0.01 0 0c0,0 0,0 0,0l-0.06 0zm-0.03 -0.05c0,0 0.01,0.01 0.01,0.01 0,0 0,0.01 0.01,0.01 0,0 0,0 0,0 0,0 0,0 0,0 0,0 0,0.01 0,0.01 0,0 0,0 0,0 0,0 0,0 0,0 0,0 0,0 0.01,0 0,0 0,0 0,0 0,0 0.01,-0.02 0.02,-0.02 0,0 0,0 0,0 0,-0.01 0,0 0,-0.01 0,0 0,0 0.01,0 0,0 0,0 0,0l0.01 -0.02c0,0 0,0 0,-0.01 0.01,0 0.01,-0.01 0,-0.01 0,0 0,0 0,0 0,0 0,0 -0.01,0 0,0 0,0 0,0 0,0 0,0 0,0 0,0 0,0 -0.01,0 0,0 0,0 0,0 0,0 0,0 0,0 0,0 0,0 0,-0.01 0,-0.01 0,-0.02 0,-0.04 0,0 0,-0.01 -0.01,-0.01 0,0 -0.01,0 -0.02,0 -0.01,0 -0.01,0 -0.01,0.01 0,0 0,0.01 0,0.01l0 0.03c0,0.01 0,0.01 0,0.01 0,0 0,0 0,0 0,0 0,0 0,0 0,0 0,0 0,0l-0.01 0 -0.01 0 -0.01 0c0,0 0,0 0,0.01 0,0 0,0 0,0 0,0 0,0 0,0 0,0 0,0.01 0.01,0.01 0,0 0,0.01 0,0.01l0.01 0.01c0,0 0,0 0,0 0,0 0,0 0,0 0,0 0,0 0,0zm0.03 -0.19c0.1,0 0.18,0.08 0.18,0.18 0,0.1 -0.08,0.19 -0.18,0.19 -0.1,0 -0.18,-0.09 -0.18,-0.19 0,-0.1 0.08,-0.18 0.18,-0.18z"/>
    <path class="fil4" d="M0.2 1.84c-0.02,0 -0.04,0 -0.07,0l0 -0.01 0.01 0 0 -0.01 0 -0.01 -0.02 0c0,0 -0.01,0.02 -0.01,0.02 0,0 0,0 0,0.01l-0.01 0.01c0,0 0,0.01 0,0.01 0,0 0.01,0.01 0.01,0.01 0.01,0 0.02,0 0.03,0l0.09 0c0.01,0 0.05,0.01 0.05,0 0,0 0.01,0 0.01,-0.01 0,0 0,0 0,0 0,0 0,0 0,0 0,0 0,0 0,0 0,0 0,-0.01 0,-0.01 0,0 0,-0.01 0,-0.01l0 -0.01c0,0 -0.01,-0.01 -0.01,-0.01l0 -0.01 -0.03 0 0.01 0.01c0,0 0,0 0,0 0,0 0,0.01 0,0.01l0 0.01 0 0c0,0 0,0 0,0l-0.06 0zm-0.03 -0.06c0,0 0.01,0.01 0.01,0.01 0,0.01 0,0.01 0.01,0.02 0,0 0,0 0,0 0,0 0,0 0,0 0,0 0,0 0,0 0,0 0,0 0,0 0,0 0,0 0,0 0,0 0,0.01 0.01,0.01 0,0 0,0 0,-0.01 0,0 0.01,-0.01 0.02,-0.01 0,-0.01 0,-0.01 0,-0.01 0,0 0,0 0,0 0,0 0,-0.01 0.01,-0.01 0,0 0,0 0,0l0.01 -0.01c0,-0.01 0,-0.01 0,-0.01 0.01,0 0.01,-0.01 0,-0.01 0,0 0,0 0,0 0,0 0,0 -0.01,0 0,0 0,0 0,0 0,0 0,0 0,0 0,0 0,0 -0.01,0 0,0 0,0 0,0 0,0 0,0 0,0 0,-0.01 0,-0.01 0,-0.01 0,-0.02 0,-0.03 0,-0.04 0,-0.01 0,-0.01 -0.01,-0.02 0,0 -0.01,0 -0.02,0 -0.01,0 -0.01,0.01 -0.01,0.01 0,0.01 0,0.01 0,0.02l0 0.03c0,0 0,0 0,0 0,0.01 0,0 0,0.01 0,0 0,0 0,0 0,0 0,0 0,0l-0.01 0 -0.01 0 -0.01 0c0,0 0,0 0,0 0,0 0,0 0,0 0,0.01 0,0 0,0 0,0.01 0,0.01 0.01,0.02 0,0 0,0 0,0.01l0.01 0c0,0 0,0 0,0 0,0 0,0 0,0 0,0 0,0 0,0zm0.03 -0.18c0.1,0 0.18,0.08 0.18,0.18 0,0.1 -0.08,0.18 -0.18,0.18 -0.1,0 -0.18,-0.08 -0.18,-0.18 0,-0.1 0.08,-0.18 0.18,-0.18z"/>
    <g>
     <circle class="fil5" cx="0.6" cy="0.2" r="0.18"/>
     <circle class="fil6" cx="0.59" cy="0.19" r="0.18"/>
     <path class="fil7" d="M0.61 0.24l-0.04 0c0,0 0,-0.01 0,-0.01 0,-0.01 0,-0.02 0.01,-0.03 0,-0.01 0.01,-0.02 0.02,-0.03 0.01,-0.01 0.02,-0.01 0.02,-0.02 0.01,0 0.01,-0.01 0.01,-0.01 0,-0.01 -0.01,-0.02 -0.01,-0.02 -0.01,-0.01 -0.02,-0.01 -0.03,-0.01 -0.01,0 -0.02,0 -0.03,0.01 0,0 -0.01,0.01 -0.01,0.03l-0.04 -0.01c0,-0.02 0.01,-0.03 0.02,-0.05 0.02,-0.01 0.04,-0.02 0.06,-0.02 0.02,0 0.04,0.01 0.06,0.02 0.01,0.02 0.02,0.03 0.02,0.05 0,0.01 0,0.02 -0.01,0.03 0,0 -0.01,0.02 -0.03,0.03 -0.01,0.01 -0.02,0.01 -0.02,0.02 0,0 0,0.01 0,0.02zm-0.04 0.06l0 -0.04 0.04 0 0 0.04 -0.04 0z"/>
    </g>
    <g>
     <circle class="fil0" cx="0.6" cy="0.6" r="0.18"/>
     <circle class="fil4" cx="0.59" cy="0.59" r="0.18"/>
     <path class="fil8" d="M0.61 0.64l-0.04 0c0,-0.01 0,-0.01 0,-0.01 0,-0.01 0,-0.02 0.01,-0.03 0,-0.01 0.01,-0.02 0.02,-0.03 0.01,-0.01 0.02,-0.02 0.02,-0.02 0.01,-0.01 0.01,-0.01 0.01,-0.02 0,-0.01 -0.01,-0.01 -0.01,-0.02 -0.01,0 -0.02,-0.01 -0.03,-0.01 -0.01,0 -0.02,0.01 -0.03,0.01 0,0.01 -0.01,0.02 -0.01,0.03l-0.04 0c0,-0.02 0.01,-0.04 0.02,-0.05 0.02,-0.01 0.04,-0.02 0.06,-0.02 0.02,0 0.04,0.01 0.06,0.02 0.01,0.01 0.02,0.03 0.02,0.04 0,0.01 0,0.02 -0.01,0.03 0,0.01 -0.01,0.02 -0.03,0.04 -0.01,0 -0.02,0.01 -0.02,0.01 0,0.01 0,0.02 0,0.03zm-0.04 0.06l0 -0.05 0.04 0 0 0.05 -0.04 0z"/>
    </g>
   </g>
   <rect class="fil9" width="0.79" height="1.98"/>
  </g>
 </g>
</svg>
