<?xml version="1.0" encoding="UTF-8"?>
<!DOCTYPE svg PUBLIC "-//W3C//DTD SVG 1.1//EN" "http://www.w3.org/Graphics/SVG/1.1/DTD/svg11.dtd">
<!-- Creator: CorelDRAW 2019 (64-Bit) -->
<svg xmlns="http://www.w3.org/2000/svg" xml:space="preserve" width="181px" height="100px" version="1.1" style="shape-rendering:geometricPrecision; text-rendering:geometricPrecision; image-rendering:optimizeQuality; fill-rule:evenodd; clip-rule:evenodd"
viewBox="0 0 8.58 4.73"
 xmlns:xlink="http://www.w3.org/1999/xlink"
 xmlns:xodm="http://www.corel.com/coreldraw/odm/2003">
 <defs>
  <style type="text/css">
   <![CDATA[
    .str3 {stroke:#FF99CC;stroke-width:0.05;stroke-miterlimit:22.9256}
    .str2 {stroke:fuchsia;stroke-width:0.05;stroke-miterlimit:22.9256}
    .str1 {stroke:lime;stroke-width:0.05;stroke-miterlimit:22.9256}
    .str0 {stroke:lime;stroke-width:0.05;stroke-miterlimit:22.9256}
    .fil8 {fill:none}
    .fil2 {fill:white;fill-rule:nonzero}
    .fil0 {fill:#B2B2B2;fill-rule:nonzero}
    .fil1 {fill:black;fill-rule:nonzero}
    .fil7 {fill:#FF99CC;fill-rule:nonzero}
    .fil6 {fill:fuchsia;fill-rule:nonzero}
    .fil5 {fill:red;fill-rule:nonzero}
    .fil4 {fill:lime;fill-rule:nonzero}
    .fil3 {fill:lime;fill-rule:nonzero}
   ]]>
  </style>
 </defs>
 <g id="Слой_x0020_1">
  <metadata id="CorelCorpID_0Corel-Layer"/>
  <path class="fil0" d="M0.89 1.1c-0.1,0 -0.18,-0.03 -0.23,-0.1 -0.06,-0.06 -0.09,-0.15 -0.09,-0.26 0,-0.11 0.02,-0.21 0.06,-0.3 0.04,-0.1 0.1,-0.17 0.17,-0.23 0.08,-0.05 0.16,-0.08 0.25,-0.08 0.04,0 0.07,0 0.1,0.01 0.06,-0.04 0.14,-0.06 0.21,-0.06 0.03,0 0.07,0 0.1,0.01 0.03,0.01 0.05,0.02 0.06,0.04 -0.01,0.03 -0.02,0.06 -0.04,0.08 -0.04,-0.03 -0.09,-0.05 -0.13,-0.05 -0.05,0 -0.09,0.01 -0.13,0.03 0.05,0.05 0.07,0.11 0.07,0.19 0,0.08 -0.02,0.16 -0.07,0.23 -0.04,0.06 -0.1,0.1 -0.17,0.1 -0.04,0 -0.07,-0.02 -0.1,-0.05 -0.02,-0.03 -0.04,-0.07 -0.04,-0.12 0,-0.12 0.05,-0.23 0.14,-0.32 -0.07,0 -0.14,0.05 -0.18,0.14 -0.05,0.09 -0.07,0.2 -0.07,0.33 0,0.18 0.06,0.28 0.17,0.28 0.08,0 0.16,-0.05 0.25,-0.14l0.05 0.04c-0.01,0.02 -0.03,0.04 -0.06,0.08 -0.03,0.03 -0.06,0.05 -0.08,0.07 -0.03,0.02 -0.07,0.04 -0.11,0.06 -0.05,0.02 -0.09,0.02 -0.13,0.02zm0.3 -0.7c0,-0.08 -0.02,-0.13 -0.05,-0.16 -0.04,0.04 -0.08,0.08 -0.1,0.13 -0.03,0.05 -0.04,0.11 -0.04,0.16 0,0.03 0.01,0.05 0.02,0.07 0.01,0.02 0.02,0.03 0.04,0.03 0.04,0 0.07,-0.03 0.09,-0.08 0.03,-0.05 0.04,-0.1 0.04,-0.15zm0.57 0.51c0,0.06 -0.02,0.1 -0.08,0.14 -0.05,0.04 -0.11,0.05 -0.18,0.05 -0.06,0 -0.12,-0.01 -0.16,-0.04 -0.04,-0.02 -0.06,-0.05 -0.06,-0.07 0,-0.01 0.02,-0.03 0.05,-0.06 0.04,-0.03 0.06,-0.04 0.09,-0.05 0.04,0.03 0.08,0.09 0.11,0.16 0.04,-0.01 0.06,-0.02 0.06,-0.05 0,-0.04 -0.04,-0.1 -0.12,-0.18 -0.08,-0.07 -0.11,-0.13 -0.11,-0.18 0,-0.04 0.02,-0.08 0.06,-0.1 0.04,-0.03 0.09,-0.04 0.16,-0.04 0.06,0 0.1,0.01 0.13,0.03 0.03,0.02 0.05,0.05 0.05,0.08 0,0.04 -0.03,0.09 -0.09,0.15 0.01,0 0.02,0.01 0.03,0.02 0.01,0.01 0.02,0.03 0.04,0.06 0.02,0.03 0.02,0.06 0.02,0.08zm-0.13 -0.21c0.04,-0.03 0.06,-0.06 0.06,-0.1 0,-0.03 -0.03,-0.04 -0.07,-0.04 -0.02,0 -0.04,0 -0.06,0.01 -0.01,0.01 -0.02,0.02 -0.02,0.03 0,0.02 0.02,0.05 0.06,0.08l0.03 0.02zm0.64 0.21c0,0.06 -0.02,0.1 -0.08,0.14 -0.05,0.04 -0.11,0.05 -0.18,0.05 -0.07,0 -0.12,-0.01 -0.16,-0.04 -0.04,-0.02 -0.06,-0.05 -0.06,-0.07 0,-0.01 0.02,-0.03 0.05,-0.06 0.03,-0.03 0.06,-0.04 0.09,-0.05 0.04,0.03 0.08,0.09 0.11,0.16 0.04,-0.01 0.06,-0.02 0.06,-0.05 0,-0.04 -0.04,-0.1 -0.12,-0.18 -0.08,-0.07 -0.12,-0.13 -0.12,-0.18 0,-0.04 0.03,-0.08 0.07,-0.1 0.04,-0.03 0.09,-0.04 0.15,-0.04 0.06,0 0.11,0.01 0.14,0.03 0.03,0.02 0.05,0.05 0.05,0.08 0,0.04 -0.03,0.09 -0.09,0.15 0.01,0 0.01,0.01 0.02,0.02 0.01,0.01 0.03,0.03 0.05,0.06 0.01,0.03 0.02,0.06 0.02,0.08zm-0.14 -0.21c0.04,-0.03 0.06,-0.06 0.06,-0.1 0,-0.03 -0.02,-0.04 -0.06,-0.04 -0.03,0 -0.04,0 -0.06,0.01 -0.01,0.01 -0.02,0.02 -0.02,0.03 0,0.02 0.02,0.05 0.06,0.08l0.02 0.02z"/>
  <path class="fil1" d="M3.78 1.17c-0.1,0 -0.17,-0.04 -0.23,-0.11 -0.06,-0.06 -0.09,-0.15 -0.09,-0.26 0,-0.11 0.02,-0.21 0.06,-0.3 0.04,-0.09 0.1,-0.17 0.18,-0.22 0.07,-0.06 0.15,-0.09 0.25,-0.09 0.03,0 0.06,0 0.09,0.01 0.07,-0.04 0.14,-0.06 0.21,-0.06 0.04,0 0.07,0 0.1,0.01 0.03,0.01 0.05,0.03 0.06,0.04 0,0.03 -0.02,0.06 -0.03,0.08 -0.05,-0.03 -0.09,-0.05 -0.14,-0.05 -0.04,0 -0.09,0.01 -0.12,0.03 0.04,0.05 0.06,0.11 0.06,0.19 0,0.08 -0.02,0.16 -0.07,0.23 -0.04,0.06 -0.1,0.1 -0.17,0.1 -0.04,0 -0.07,-0.02 -0.1,-0.05 -0.02,-0.03 -0.04,-0.07 -0.04,-0.12 0,-0.12 0.05,-0.23 0.14,-0.32 -0.07,0 -0.13,0.05 -0.18,0.14 -0.05,0.09 -0.07,0.2 -0.07,0.33 0,0.18 0.06,0.28 0.17,0.28 0.08,0 0.16,-0.05 0.25,-0.14l0.05 0.04c-0.01,0.02 -0.03,0.05 -0.06,0.08 -0.03,0.03 -0.05,0.05 -0.08,0.07 -0.03,0.02 -0.07,0.04 -0.11,0.06 -0.04,0.02 -0.09,0.03 -0.13,0.03zm0.3 -0.71c0,-0.08 -0.01,-0.13 -0.05,-0.16 -0.04,0.04 -0.07,0.08 -0.1,0.13 -0.03,0.05 -0.04,0.11 -0.04,0.16 0,0.03 0.01,0.05 0.02,0.07 0.01,0.02 0.02,0.03 0.04,0.03 0.04,0 0.07,-0.03 0.1,-0.08 0.02,-0.05 0.03,-0.1 0.03,-0.15zm0.58 0.51c0,0.06 -0.03,0.11 -0.08,0.14 -0.06,0.04 -0.12,0.06 -0.18,0.06 -0.07,0 -0.13,-0.02 -0.17,-0.05 -0.03,-0.02 -0.05,-0.05 -0.05,-0.07 0,-0.01 0.01,-0.03 0.05,-0.06 0.03,-0.03 0.06,-0.04 0.08,-0.05 0.05,0.03 0.09,0.09 0.12,0.16 0.03,0 0.05,-0.02 0.05,-0.05 0,-0.04 -0.04,-0.1 -0.12,-0.18 -0.07,-0.07 -0.11,-0.13 -0.11,-0.18 0,-0.04 0.02,-0.08 0.06,-0.1 0.05,-0.03 0.1,-0.04 0.16,-0.04 0.06,0 0.1,0.01 0.13,0.03 0.04,0.02 0.05,0.05 0.05,0.08 0,0.04 -0.03,0.09 -0.09,0.15 0.01,0 0.02,0.01 0.03,0.02 0.01,0.01 0.02,0.03 0.04,0.06 0.02,0.03 0.03,0.06 0.03,0.08zm-0.14 -0.21c0.04,-0.03 0.06,-0.06 0.06,-0.1 0,-0.03 -0.02,-0.04 -0.07,-0.04 -0.02,0 -0.04,0 -0.05,0.01 -0.02,0.01 -0.03,0.02 -0.03,0.03 0,0.02 0.03,0.05 0.07,0.08l0.02 0.02zm0.64 0.21c0,0.06 -0.02,0.11 -0.08,0.14 -0.05,0.04 -0.11,0.06 -0.18,0.06 -0.06,0 -0.12,-0.02 -0.16,-0.05 -0.04,-0.02 -0.06,-0.05 -0.06,-0.07 0,-0.01 0.02,-0.03 0.05,-0.06 0.04,-0.03 0.07,-0.04 0.09,-0.05 0.05,0.03 0.08,0.09 0.12,0.16 0.03,0 0.05,-0.02 0.05,-0.05 0,-0.04 -0.04,-0.1 -0.12,-0.18 -0.07,-0.07 -0.11,-0.13 -0.11,-0.18 0,-0.04 0.02,-0.08 0.06,-0.1 0.04,-0.03 0.1,-0.04 0.16,-0.04 0.06,0 0.1,0.01 0.13,0.03 0.03,0.02 0.05,0.05 0.05,0.08 0,0.04 -0.03,0.09 -0.09,0.15 0.01,0 0.02,0.01 0.03,0.02 0.01,0.01 0.02,0.03 0.04,0.06 0.02,0.03 0.02,0.06 0.02,0.08zm-0.13 -0.21c0.04,-0.03 0.06,-0.06 0.06,-0.1 0,-0.03 -0.03,-0.04 -0.07,-0.04 -0.02,0 -0.04,0 -0.06,0.01 -0.01,0.01 -0.02,0.02 -0.02,0.03 0,0.02 0.02,0.05 0.07,0.08l0.02 0.02z"/>
  <path class="fil1" d="M6.62 1.16c-0.1,0 -0.17,-0.03 -0.23,-0.1 -0.06,-0.07 -0.09,-0.15 -0.09,-0.26 0,-0.12 0.02,-0.22 0.06,-0.31 0.04,-0.09 0.1,-0.16 0.17,-0.22 0.08,-0.05 0.16,-0.08 0.26,-0.08 0.03,0 0.06,0 0.09,0.01 0.07,-0.04 0.14,-0.06 0.21,-0.06 0.03,0 0.07,0 0.1,0.01 0.03,0.01 0.05,0.02 0.06,0.04 0,0.03 -0.02,0.05 -0.03,0.08 -0.05,-0.03 -0.09,-0.05 -0.14,-0.05 -0.05,0 -0.09,0.01 -0.13,0.03 0.05,0.04 0.07,0.11 0.07,0.19 0,0.08 -0.02,0.16 -0.07,0.22 -0.04,0.07 -0.1,0.11 -0.17,0.11 -0.04,0 -0.07,-0.02 -0.1,-0.05 -0.02,-0.04 -0.04,-0.08 -0.04,-0.12 0,-0.12 0.05,-0.23 0.14,-0.32 -0.07,0 -0.13,0.05 -0.18,0.14 -0.05,0.09 -0.07,0.2 -0.07,0.33 0,0.18 0.06,0.27 0.17,0.27 0.08,0 0.16,-0.04 0.25,-0.13l0.05 0.04c-0.01,0.02 -0.03,0.04 -0.06,0.07 -0.03,0.03 -0.06,0.06 -0.08,0.08 -0.03,0.02 -0.07,0.04 -0.11,0.06 -0.04,0.01 -0.09,0.02 -0.13,0.02zm0.3 -0.71c0,-0.07 -0.02,-0.12 -0.05,-0.15 -0.04,0.04 -0.08,0.08 -0.1,0.13 -0.03,0.05 -0.04,0.1 -0.04,0.16 0,0.02 0.01,0.05 0.02,0.07 0.01,0.01 0.02,0.02 0.04,0.02 0.04,0 0.07,-0.02 0.09,-0.07 0.03,-0.05 0.04,-0.1 0.04,-0.16zm0.57 0.52c0,0.06 -0.02,0.1 -0.07,0.14 -0.06,0.03 -0.12,0.05 -0.19,0.05 -0.06,0 -0.12,-0.01 -0.16,-0.04 -0.04,-0.02 -0.06,-0.05 -0.06,-0.07 0,-0.01 0.02,-0.03 0.05,-0.06 0.04,-0.03 0.07,-0.05 0.09,-0.05 0.05,0.03 0.09,0.08 0.12,0.16 0.03,-0.01 0.05,-0.02 0.05,-0.05 0,-0.04 -0.04,-0.1 -0.12,-0.18 -0.07,-0.07 -0.11,-0.14 -0.11,-0.18 0,-0.05 0.02,-0.08 0.06,-0.1 0.04,-0.03 0.1,-0.04 0.16,-0.04 0.06,0 0.1,0.01 0.13,0.03 0.03,0.02 0.05,0.05 0.05,0.08 0,0.04 -0.03,0.08 -0.09,0.14 0.01,0.01 0.02,0.02 0.03,0.03 0.01,0.01 0.02,0.03 0.04,0.06 0.02,0.03 0.02,0.05 0.02,0.08zm-0.13 -0.21c0.04,-0.04 0.06,-0.07 0.06,-0.1 0,-0.03 -0.03,-0.05 -0.07,-0.05 -0.02,0 -0.04,0.01 -0.06,0.02 -0.01,0.01 -0.02,0.02 -0.02,0.03 0,0.02 0.02,0.04 0.07,0.08l0.02 0.02zm0.64 0.21c0,0.06 -0.02,0.1 -0.08,0.14 -0.05,0.03 -0.11,0.05 -0.18,0.05 -0.07,0 -0.12,-0.01 -0.16,-0.04 -0.04,-0.02 -0.06,-0.05 -0.06,-0.07 0,-0.01 0.02,-0.03 0.05,-0.06 0.04,-0.03 0.06,-0.05 0.09,-0.05 0.04,0.03 0.08,0.08 0.11,0.16 0.04,-0.01 0.06,-0.02 0.06,-0.05 0,-0.04 -0.04,-0.1 -0.12,-0.18 -0.08,-0.07 -0.12,-0.14 -0.12,-0.18 0,-0.05 0.03,-0.08 0.07,-0.1 0.04,-0.03 0.09,-0.04 0.15,-0.04 0.07,0 0.11,0.01 0.14,0.03 0.03,0.02 0.05,0.05 0.05,0.08 0,0.04 -0.03,0.08 -0.09,0.14 0.01,0.01 0.01,0.02 0.03,0.03 0.01,0.01 0.02,0.03 0.04,0.06 0.01,0.03 0.02,0.05 0.02,0.08zm-0.13 -0.21c0.04,-0.04 0.06,-0.07 0.06,-0.1 0,-0.03 -0.03,-0.05 -0.07,-0.05 -0.03,0 -0.04,0.01 -0.06,0.02 -0.01,0.01 -0.02,0.02 -0.02,0.03 0,0.02 0.02,0.04 0.06,0.08l0.03 0.02z"/>
  <path class="fil0" d="M0.86 4.66c-0.1,0 -0.17,-0.04 -0.23,-0.11 -0.06,-0.06 -0.09,-0.15 -0.09,-0.26 0,-0.11 0.02,-0.21 0.06,-0.3 0.04,-0.09 0.1,-0.17 0.18,-0.23 0.07,-0.05 0.15,-0.08 0.25,-0.08 0.03,0 0.06,0 0.09,0.01 0.07,-0.04 0.14,-0.06 0.21,-0.06 0.04,0 0.07,0 0.1,0.01 0.03,0.01 0.05,0.02 0.06,0.04 0,0.03 -0.02,0.06 -0.03,0.08 -0.05,-0.03 -0.09,-0.05 -0.14,-0.05 -0.04,0 -0.09,0.01 -0.12,0.03 0.04,0.05 0.06,0.11 0.06,0.19 0,0.08 -0.02,0.16 -0.07,0.23 -0.04,0.06 -0.1,0.1 -0.17,0.1 -0.04,0 -0.07,-0.02 -0.1,-0.05 -0.02,-0.03 -0.04,-0.07 -0.04,-0.12 0,-0.12 0.05,-0.23 0.14,-0.32 -0.07,0 -0.13,0.05 -0.18,0.14 -0.05,0.09 -0.07,0.2 -0.07,0.33 0,0.18 0.06,0.28 0.17,0.28 0.08,0 0.16,-0.05 0.25,-0.14l0.05 0.04c-0.01,0.02 -0.03,0.05 -0.06,0.08 -0.03,0.03 -0.05,0.05 -0.08,0.07 -0.03,0.02 -0.07,0.04 -0.11,0.06 -0.04,0.02 -0.09,0.03 -0.13,0.03zm0.3 -0.71c0,-0.08 -0.01,-0.13 -0.05,-0.16 -0.04,0.04 -0.07,0.08 -0.1,0.13 -0.03,0.05 -0.04,0.11 -0.04,0.16 0,0.03 0.01,0.05 0.02,0.07 0.01,0.02 0.02,0.03 0.04,0.03 0.04,0 0.07,-0.03 0.1,-0.08 0.02,-0.05 0.03,-0.1 0.03,-0.15z"/>
  <path class="fil0" d="M1.74 4.46c0,0.06 -0.03,0.11 -0.08,0.14 -0.06,0.04 -0.12,0.06 -0.18,0.06 -0.07,0 -0.13,-0.02 -0.17,-0.05 -0.03,-0.02 -0.05,-0.05 -0.05,-0.07 0,-0.01 0.01,-0.03 0.05,-0.06 0.03,-0.03 0.06,-0.04 0.08,-0.05 0.05,0.03 0.09,0.09 0.12,0.16 0.03,-0.01 0.05,-0.02 0.05,-0.05 0,-0.04 -0.04,-0.1 -0.12,-0.18 -0.07,-0.07 -0.11,-0.13 -0.11,-0.18 0,-0.04 0.02,-0.08 0.06,-0.1 0.05,-0.03 0.1,-0.04 0.16,-0.04 0.06,0 0.1,0.01 0.13,0.03 0.04,0.02 0.05,0.05 0.05,0.08 0,0.04 -0.03,0.09 -0.09,0.15 0.01,0 0.02,0.01 0.03,0.02 0.01,0.01 0.02,0.03 0.04,0.06 0.02,0.03 0.03,0.06 0.03,0.08zm-0.14 -0.21c0.04,-0.03 0.06,-0.06 0.06,-0.1 0,-0.03 -0.02,-0.04 -0.07,-0.04 -0.02,0 -0.04,0 -0.05,0.01 -0.02,0.01 -0.03,0.02 -0.03,0.03 0,0.02 0.03,0.05 0.07,0.08l0.02 0.02z"/>
  <path class="fil0" d="M2.24 4.46c0,0.06 -0.02,0.11 -0.08,0.14 -0.05,0.04 -0.11,0.06 -0.18,0.06 -0.06,0 -0.12,-0.02 -0.16,-0.05 -0.04,-0.02 -0.06,-0.05 -0.06,-0.07 0,-0.01 0.02,-0.03 0.05,-0.06 0.04,-0.03 0.06,-0.04 0.09,-0.05 0.05,0.03 0.08,0.09 0.12,0.16 0.03,-0.01 0.05,-0.02 0.05,-0.05 0,-0.04 -0.04,-0.1 -0.12,-0.18 -0.08,-0.07 -0.11,-0.13 -0.11,-0.18 0,-0.04 0.02,-0.08 0.06,-0.1 0.04,-0.03 0.1,-0.04 0.16,-0.04 0.06,0 0.1,0.01 0.13,0.03 0.03,0.02 0.05,0.05 0.05,0.08 0,0.04 -0.03,0.09 -0.09,0.15 0.01,0 0.02,0.01 0.03,0.02 0.01,0.01 0.02,0.03 0.04,0.06 0.02,0.03 0.02,0.06 0.02,0.08zm-0.13 -0.21c0.04,-0.03 0.06,-0.06 0.06,-0.1 0,-0.03 -0.03,-0.04 -0.07,-0.04 -0.02,0 -0.04,0 -0.06,0.01 -0.01,0.01 -0.02,0.02 -0.02,0.03 0,0.02 0.02,0.05 0.07,0.08l0.02 0.02z"/>
  <path class="fil0" d="M2.64 4.02l0 0.19c-0.02,0.01 -0.06,0.01 -0.12,0.01l-0.01 0 0 -0.2 -0.2 0c0,-0.06 0,-0.1 0.01,-0.12l0.19 0 0 -0.19c0.03,-0.01 0.07,-0.01 0.13,-0.01l0 0.2 0.21 0c0,0.07 0,0.11 0,0.12l-0.21 0z"/>
  <path class="fil1" d="M3.75 4.72c-0.09,0 -0.17,-0.04 -0.23,-0.1 -0.06,-0.07 -0.09,-0.16 -0.09,-0.27 0,-0.11 0.02,-0.21 0.06,-0.3 0.05,-0.09 0.1,-0.17 0.18,-0.22 0.07,-0.06 0.16,-0.09 0.25,-0.09 0.03,0 0.06,0.01 0.09,0.02 0.07,-0.05 0.14,-0.07 0.21,-0.07 0.04,0 0.07,0.01 0.1,0.01 0.03,0.01 0.05,0.03 0.07,0.04 -0.01,0.03 -0.02,0.06 -0.04,0.08 -0.05,-0.03 -0.09,-0.04 -0.14,-0.04 -0.04,0 -0.08,0 -0.12,0.02 0.04,0.05 0.07,0.11 0.07,0.19 0,0.08 -0.03,0.16 -0.07,0.23 -0.05,0.06 -0.11,0.1 -0.18,0.1 -0.04,0 -0.07,-0.02 -0.09,-0.05 -0.03,-0.03 -0.04,-0.07 -0.04,-0.12 0,-0.12 0.04,-0.22 0.14,-0.32 -0.08,0 -0.14,0.05 -0.19,0.14 -0.04,0.09 -0.07,0.2 -0.07,0.33 0,0.18 0.06,0.28 0.17,0.28 0.08,0 0.17,-0.05 0.26,-0.14l0.05 0.04c-0.02,0.02 -0.04,0.05 -0.07,0.08 -0.02,0.03 -0.05,0.05 -0.08,0.07 -0.03,0.02 -0.06,0.04 -0.11,0.06 -0.04,0.02 -0.09,0.03 -0.13,0.03zm0.31 -0.71c0,-0.08 -0.02,-0.13 -0.06,-0.15 -0.04,0.03 -0.07,0.07 -0.1,0.12 -0.02,0.05 -0.04,0.11 -0.04,0.16 0,0.03 0.01,0.05 0.02,0.07 0.01,0.02 0.03,0.03 0.04,0.03 0.04,0 0.07,-0.03 0.1,-0.08 0.02,-0.05 0.04,-0.1 0.04,-0.15z"/>
  <path class="fil1" d="M4.63 4.52c0,0.06 -0.03,0.11 -0.08,0.14 -0.05,0.04 -0.11,0.06 -0.18,0.06 -0.07,0 -0.12,-0.02 -0.16,-0.04 -0.04,-0.03 -0.06,-0.06 -0.06,-0.08 0,-0.01 0.01,-0.03 0.05,-0.06 0.03,-0.03 0.06,-0.04 0.08,-0.05 0.05,0.03 0.09,0.09 0.12,0.16 0.04,0 0.05,-0.02 0.05,-0.05 0,-0.04 -0.04,-0.1 -0.11,-0.18 -0.08,-0.07 -0.12,-0.13 -0.12,-0.18 0,-0.04 0.02,-0.08 0.07,-0.1 0.04,-0.03 0.09,-0.04 0.15,-0.04 0.06,0 0.11,0.01 0.14,0.03 0.03,0.02 0.04,0.05 0.04,0.08 0,0.04 -0.03,0.09 -0.08,0.15 0,0 0.01,0.01 0.02,0.02 0.01,0.01 0.03,0.03 0.04,0.06 0.02,0.03 0.03,0.06 0.03,0.08zm-0.14 -0.21c0.04,-0.03 0.06,-0.06 0.06,-0.1 0,-0.03 -0.02,-0.04 -0.07,-0.04 -0.02,0 -0.04,0 -0.05,0.01 -0.02,0.01 -0.02,0.02 -0.02,0.03 0,0.02 0.02,0.05 0.06,0.08l0.02 0.02z"/>
  <path class="fil1" d="M5.14 4.52c0,0.06 -0.03,0.11 -0.08,0.14 -0.06,0.04 -0.12,0.06 -0.18,0.06 -0.07,0 -0.13,-0.02 -0.16,-0.04 -0.04,-0.03 -0.06,-0.06 -0.06,-0.08 0,-0.01 0.01,-0.03 0.05,-0.06 0.03,-0.03 0.06,-0.04 0.08,-0.05 0.05,0.03 0.09,0.09 0.12,0.16 0.03,0 0.05,-0.02 0.05,-0.05 0,-0.04 -0.04,-0.1 -0.12,-0.18 -0.07,-0.07 -0.11,-0.13 -0.11,-0.18 0,-0.04 0.02,-0.08 0.06,-0.1 0.05,-0.03 0.1,-0.04 0.16,-0.04 0.06,0 0.1,0.01 0.14,0.03 0.03,0.02 0.04,0.05 0.04,0.08 0,0.04 -0.03,0.09 -0.09,0.15 0.01,0 0.02,0.01 0.03,0.02 0.01,0.01 0.02,0.03 0.04,0.06 0.02,0.03 0.03,0.06 0.03,0.08zm-0.14 -0.21c0.04,-0.03 0.06,-0.06 0.06,-0.1 0,-0.03 -0.02,-0.04 -0.07,-0.04 -0.02,0 -0.04,0 -0.05,0.01 -0.02,0.01 -0.03,0.02 -0.03,0.03 0,0.02 0.03,0.05 0.07,0.08l0.02 0.02z"/>
  <path class="fil1" d="M5.53 4.08l0 0.19c-0.02,0.01 -0.06,0.01 -0.12,0.01l-0.01 0 0 -0.2 -0.2 0c0,-0.05 0,-0.09 0.01,-0.12l0.19 0 0 -0.19c0.03,-0.01 0.08,-0.01 0.13,-0.01l0 0.2 0.21 0c0,0.07 0,0.11 0,0.12l-0.21 0z"/>
  <path class="fil1" d="M6.59 4.71c-0.1,0 -0.17,-0.03 -0.23,-0.1 -0.06,-0.06 -0.09,-0.15 -0.09,-0.26 0,-0.12 0.02,-0.22 0.06,-0.31 0.04,-0.09 0.1,-0.16 0.18,-0.22 0.07,-0.05 0.16,-0.08 0.25,-0.08 0.03,0 0.06,0 0.09,0.01 0.07,-0.04 0.14,-0.06 0.21,-0.06 0.04,0 0.07,0 0.1,0.01 0.03,0.01 0.05,0.02 0.07,0.04 -0.01,0.03 -0.02,0.05 -0.04,0.08 -0.05,-0.03 -0.09,-0.05 -0.14,-0.05 -0.04,0 -0.09,0.01 -0.12,0.03 0.04,0.04 0.06,0.11 0.06,0.19 0,0.08 -0.02,0.16 -0.07,0.22 -0.04,0.07 -0.1,0.11 -0.17,0.11 -0.04,0 -0.07,-0.02 -0.1,-0.05 -0.02,-0.04 -0.03,-0.08 -0.03,-0.12 0,-0.12 0.04,-0.23 0.13,-0.32 -0.07,0 -0.13,0.05 -0.18,0.14 -0.05,0.09 -0.07,0.2 -0.07,0.33 0,0.18 0.06,0.28 0.17,0.28 0.08,0 0.16,-0.05 0.25,-0.14l0.05 0.04c-0.01,0.02 -0.03,0.04 -0.06,0.07 -0.03,0.03 -0.05,0.06 -0.08,0.08 -0.03,0.02 -0.06,0.04 -0.11,0.06 -0.04,0.01 -0.09,0.02 -0.13,0.02zm0.3 -0.71c0,-0.07 -0.01,-0.12 -0.05,-0.15 -0.04,0.04 -0.07,0.08 -0.1,0.13 -0.02,0.05 -0.04,0.1 -0.04,0.16 0,0.03 0.01,0.05 0.02,0.07 0.01,0.01 0.02,0.02 0.04,0.02 0.04,0 0.07,-0.02 0.1,-0.07 0.02,-0.05 0.03,-0.1 0.03,-0.16z"/>
  <path class="fil1" d="M7.47 4.52c0,0.06 -0.03,0.1 -0.08,0.14 -0.06,0.03 -0.12,0.05 -0.18,0.05 -0.07,0 -0.12,-0.01 -0.16,-0.04 -0.04,-0.02 -0.06,-0.05 -0.06,-0.07 0,-0.01 0.01,-0.03 0.05,-0.06 0.03,-0.03 0.06,-0.05 0.08,-0.05 0.05,0.03 0.09,0.08 0.12,0.16 0.03,-0.01 0.05,-0.02 0.05,-0.05 0,-0.04 -0.04,-0.1 -0.11,-0.18 -0.08,-0.07 -0.12,-0.13 -0.12,-0.18 0,-0.04 0.02,-0.08 0.06,-0.1 0.05,-0.03 0.1,-0.04 0.16,-0.04 0.06,0 0.11,0.01 0.14,0.03 0.03,0.02 0.04,0.05 0.04,0.08 0,0.04 -0.03,0.08 -0.09,0.15 0.01,0 0.02,0.01 0.03,0.02 0.01,0.01 0.02,0.03 0.04,0.06 0.02,0.03 0.03,0.05 0.03,0.08zm-0.14 -0.21c0.04,-0.03 0.06,-0.07 0.06,-0.1 0,-0.03 -0.02,-0.05 -0.07,-0.05 -0.02,0 -0.04,0.01 -0.05,0.02 -0.02,0.01 -0.02,0.02 -0.02,0.03 0,0.02 0.02,0.04 0.06,0.08l0.02 0.02z"/>
  <path class="fil1" d="M7.98 4.52c0,0.06 -0.03,0.1 -0.08,0.14 -0.06,0.03 -0.12,0.05 -0.19,0.05 -0.06,0 -0.12,-0.01 -0.16,-0.04 -0.04,-0.02 -0.06,-0.05 -0.06,-0.07 0,-0.01 0.02,-0.03 0.05,-0.06 0.04,-0.03 0.07,-0.05 0.09,-0.05 0.05,0.03 0.09,0.08 0.12,0.16 0.03,-0.01 0.05,-0.02 0.05,-0.05 0,-0.04 -0.04,-0.1 -0.12,-0.18 -0.07,-0.07 -0.11,-0.13 -0.11,-0.18 0,-0.04 0.02,-0.08 0.06,-0.1 0.04,-0.03 0.1,-0.04 0.16,-0.04 0.06,0 0.1,0.01 0.13,0.03 0.03,0.02 0.05,0.05 0.05,0.08 0,0.04 -0.03,0.08 -0.09,0.15 0.01,0 0.02,0.01 0.03,0.02 0.01,0.01 0.02,0.03 0.04,0.06 0.02,0.03 0.03,0.05 0.03,0.08zm-0.14 -0.21c0.04,-0.03 0.06,-0.07 0.06,-0.1 0,-0.03 -0.03,-0.05 -0.07,-0.05 -0.02,0 -0.04,0.01 -0.06,0.02 -0.01,0.01 -0.02,0.02 -0.02,0.03 0,0.02 0.02,0.04 0.07,0.08l0.02 0.02z"/>
  <path class="fil1" d="M8.37 4.08l0 0.19c-0.02,0.01 -0.06,0.01 -0.12,0.01l-0.01 0 0 -0.2 -0.2 0c0,-0.06 0,-0.1 0.01,-0.12l0.19 0 0 -0.19c0.03,-0.01 0.07,-0.01 0.13,-0.01l0 0.2 0.21 0c0,0.07 0,0.11 0,0.12l-0.21 0z"/>
  <path class="fil0" d="M0.64 2.27c-0.06,0 -0.12,-0.02 -0.15,-0.05 -0.04,-0.03 -0.06,-0.07 -0.06,-0.11 0,-0.05 0.03,-0.09 0.07,-0.12 0.05,-0.03 0.1,-0.05 0.16,-0.07 -0.01,-0.01 -0.05,-0.07 -0.11,-0.16 -0.04,0.01 -0.08,0.02 -0.11,0.02 -0.08,0 -0.15,-0.02 -0.19,-0.06 -0.05,-0.04 -0.07,-0.1 -0.07,-0.16 0,-0.03 0,-0.07 0.01,-0.1l0 -0.02c0.04,0 0.08,0.01 0.1,0.02 -0.02,0.03 -0.02,0.07 -0.02,0.11 0,0.04 0.01,0.07 0.04,0.09 0.03,0.02 0.07,0.03 0.11,0.03 0.02,0 0.04,0 0.08,-0.01 -0.05,-0.07 -0.07,-0.13 -0.07,-0.18 0,-0.07 0.03,-0.12 0.09,-0.16 0.06,-0.04 0.12,-0.06 0.2,-0.06 0.07,0 0.13,0.02 0.17,0.05 0.04,0.03 0.06,0.07 0.06,0.12 0,0.05 -0.02,0.09 -0.06,0.13 -0.03,0.04 -0.08,0.07 -0.12,0.1 0.07,0.08 0.11,0.16 0.14,0.25 0.08,0.01 0.16,0.03 0.23,0.05 -0.01,0.05 -0.02,0.08 -0.03,0.1 -0.02,-0.01 -0.05,-0.03 -0.09,-0.04 -0.03,-0.02 -0.07,-0.03 -0.1,-0.03l0 0c0,0.07 -0.03,0.13 -0.09,0.18 -0.05,0.05 -0.12,0.08 -0.19,0.08zm0.07 -0.67c0.04,-0.01 0.07,-0.04 0.1,-0.06 0.03,-0.03 0.05,-0.06 0.05,-0.09 0,-0.02 -0.01,-0.04 -0.04,-0.06 -0.02,-0.01 -0.05,-0.02 -0.08,-0.02 -0.03,0 -0.06,0.01 -0.08,0.02 -0.02,0.02 -0.03,0.03 -0.03,0.06 0,0.01 0,0.03 0.01,0.04 0.01,0.02 0.01,0.03 0.02,0.04 0,0.01 0.01,0.01 0.01,0.02 0.01,0.01 0.02,0.02 0.02,0.03 0,0 0.01,0.01 0.02,0.02zm-0.1 0.57c0.03,0 0.05,-0.01 0.07,-0.03 0.02,-0.03 0.03,-0.05 0.03,-0.08 0,-0.02 -0.01,-0.04 -0.01,-0.06 -0.04,0 -0.08,0.01 -0.11,0.03 -0.04,0.02 -0.06,0.04 -0.06,0.07 0,0.02 0.01,0.04 0.02,0.05 0.02,0.01 0.04,0.02 0.06,0.02zm0.84 -0.46c-0.04,0 -0.07,0.03 -0.09,0.09 -0.02,0.06 -0.04,0.12 -0.04,0.19 0,0.11 0.04,0.16 0.11,0.16 0.02,0 0.05,0 0.07,-0.01 0.03,-0.01 0.05,-0.02 0.06,-0.03l0.03 -0.02 0.03 0.04c-0.01,0.01 -0.02,0.03 -0.05,0.04 -0.02,0.02 -0.04,0.03 -0.06,0.04 -0.02,0.01 -0.05,0.02 -0.08,0.03 -0.03,0.01 -0.06,0.02 -0.09,0.02 -0.08,0 -0.13,-0.03 -0.17,-0.07 -0.04,-0.05 -0.06,-0.11 -0.06,-0.19 0,-0.1 0.04,-0.19 0.1,-0.26 0.06,-0.06 0.14,-0.1 0.24,-0.1 0.06,0 0.11,0.02 0.15,0.04 0.04,0.03 0.06,0.06 0.06,0.1 0,0.04 -0.01,0.08 -0.04,0.11 -0.03,0 -0.05,-0.01 -0.08,-0.02 -0.04,-0.01 -0.06,-0.02 -0.08,-0.03l0.03 -0.12c-0.01,-0.01 -0.03,-0.01 -0.04,-0.01zm0.7 0.35c0,0.06 -0.02,0.11 -0.08,0.14 -0.05,0.04 -0.11,0.06 -0.18,0.06 -0.06,0 -0.12,-0.02 -0.16,-0.04 -0.04,-0.03 -0.06,-0.05 -0.06,-0.08 0,-0.01 0.02,-0.03 0.05,-0.06 0.04,-0.03 0.06,-0.04 0.09,-0.05 0.04,0.03 0.08,0.09 0.11,0.16 0.04,0 0.06,-0.02 0.06,-0.05 0,-0.04 -0.04,-0.1 -0.12,-0.17 -0.08,-0.08 -0.11,-0.14 -0.11,-0.19 0,-0.04 0.02,-0.08 0.06,-0.1 0.04,-0.03 0.09,-0.04 0.16,-0.04 0.06,0 0.1,0.01 0.13,0.03 0.03,0.02 0.05,0.05 0.05,0.08 0,0.04 -0.03,0.09 -0.09,0.15 0.01,0 0.02,0.01 0.03,0.02 0.01,0.01 0.02,0.03 0.04,0.06 0.01,0.03 0.02,0.06 0.02,0.08zm-0.13 -0.21c0.04,-0.03 0.06,-0.06 0.06,-0.09 0,-0.04 -0.03,-0.05 -0.07,-0.05 -0.02,0 -0.04,0 -0.06,0.01 -0.01,0.01 -0.02,0.02 -0.02,0.03 0,0.02 0.02,0.05 0.06,0.08l0.03 0.02zm0.64 0.21c0,0.06 -0.02,0.11 -0.08,0.14 -0.05,0.04 -0.11,0.06 -0.18,0.06 -0.07,0 -0.12,-0.02 -0.16,-0.04 -0.04,-0.03 -0.06,-0.05 -0.06,-0.08 0,-0.01 0.02,-0.03 0.05,-0.06 0.03,-0.03 0.06,-0.04 0.09,-0.05 0.04,0.03 0.08,0.09 0.11,0.16 0.04,0 0.06,-0.02 0.06,-0.05 0,-0.04 -0.04,-0.1 -0.12,-0.17 -0.08,-0.08 -0.12,-0.14 -0.12,-0.19 0,-0.04 0.03,-0.08 0.07,-0.1 0.04,-0.03 0.09,-0.04 0.15,-0.04 0.06,0 0.11,0.01 0.14,0.03 0.03,0.02 0.05,0.05 0.05,0.08 0,0.04 -0.03,0.09 -0.09,0.15 0.01,0 0.01,0.01 0.02,0.02 0.01,0.01 0.03,0.03 0.05,0.06 0.01,0.03 0.02,0.06 0.02,0.08zm-0.14 -0.21c0.04,-0.03 0.06,-0.06 0.06,-0.09 0,-0.04 -0.02,-0.05 -0.06,-0.05 -0.03,0 -0.04,0 -0.06,0.01 -0.01,0.01 -0.02,0.02 -0.02,0.03 0,0.02 0.02,0.05 0.06,0.08l0.02 0.02z"/>
  <path class="fil1" d="M3.54 2.33c-0.07,0 -0.12,-0.01 -0.16,-0.05 -0.04,-0.03 -0.05,-0.07 -0.05,-0.11 0,-0.05 0.02,-0.09 0.06,-0.12 0.05,-0.03 0.1,-0.05 0.16,-0.07 -0.01,-0.01 -0.04,-0.07 -0.11,-0.16 -0.04,0.01 -0.08,0.02 -0.11,0.02 -0.08,0 -0.15,-0.02 -0.19,-0.06 -0.05,-0.04 -0.07,-0.1 -0.07,-0.16 0,-0.03 0.01,-0.06 0.01,-0.1l0.01 -0.02c0.04,0 0.07,0.01 0.09,0.02 -0.01,0.03 -0.02,0.07 -0.02,0.11 0,0.04 0.01,0.07 0.04,0.09 0.03,0.02 0.07,0.03 0.11,0.03 0.02,0 0.05,0 0.08,-0.01 -0.05,-0.07 -0.07,-0.13 -0.07,-0.18 0,-0.07 0.03,-0.12 0.09,-0.16 0.06,-0.04 0.12,-0.06 0.2,-0.06 0.07,0 0.13,0.02 0.17,0.05 0.04,0.03 0.06,0.07 0.06,0.12 0,0.05 -0.02,0.09 -0.05,0.13 -0.04,0.04 -0.08,0.07 -0.13,0.1 0.07,0.08 0.12,0.16 0.14,0.25 0.08,0.01 0.16,0.03 0.24,0.06 -0.02,0.04 -0.03,0.07 -0.04,0.09 -0.02,-0.01 -0.05,-0.03 -0.09,-0.04 -0.03,-0.02 -0.07,-0.03 -0.1,-0.03l0 0c0,0.07 -0.03,0.13 -0.08,0.18 -0.06,0.05 -0.12,0.08 -0.19,0.08zm0.07 -0.67c0.03,-0.01 0.07,-0.03 0.09,-0.06 0.03,-0.03 0.05,-0.06 0.05,-0.09 0,-0.02 -0.01,-0.04 -0.03,-0.06 -0.03,-0.01 -0.05,-0.02 -0.09,-0.02 -0.03,0 -0.06,0.01 -0.08,0.02 -0.02,0.02 -0.03,0.03 -0.03,0.06 0,0.01 0,0.03 0.01,0.04 0.01,0.02 0.01,0.03 0.02,0.04 0,0.01 0.01,0.02 0.02,0.02 0,0.01 0.01,0.02 0.01,0.03 0.01,0 0.01,0.01 0.03,0.02zm-0.11 0.57c0.03,0 0.05,-0.01 0.07,-0.03 0.02,-0.03 0.03,-0.05 0.03,-0.08 0,-0.02 0,-0.04 -0.01,-0.06 -0.04,0 -0.07,0.01 -0.11,0.03 -0.04,0.02 -0.06,0.04 -0.06,0.07 0,0.02 0.01,0.04 0.02,0.05 0.02,0.01 0.04,0.02 0.06,0.02zm0.84 -0.46c-0.04,0 -0.07,0.03 -0.09,0.09 -0.02,0.06 -0.03,0.12 -0.03,0.19 0,0.11 0.03,0.16 0.1,0.16 0.03,0 0.05,0 0.08,-0.01 0.02,-0.01 0.04,-0.02 0.06,-0.03l0.02 -0.02 0.03 0.04c-0.01,0.01 -0.02,0.03 -0.04,0.04 -0.03,0.02 -0.05,0.03 -0.07,0.04 -0.02,0.01 -0.05,0.02 -0.08,0.03 -0.03,0.01 -0.06,0.02 -0.09,0.02 -0.07,0 -0.13,-0.03 -0.17,-0.07 -0.03,-0.05 -0.05,-0.11 -0.05,-0.19 0,-0.1 0.03,-0.19 0.09,-0.26 0.06,-0.06 0.14,-0.1 0.24,-0.1 0.07,0 0.12,0.02 0.15,0.04 0.04,0.03 0.06,0.06 0.06,0.1 0,0.04 -0.01,0.08 -0.04,0.11 -0.02,0 -0.05,-0.01 -0.08,-0.02 -0.03,-0.01 -0.06,-0.02 -0.07,-0.03l0.02 -0.12c-0.01,-0.01 -0.02,-0.01 -0.04,-0.01zm0.71 0.35c0,0.06 -0.03,0.11 -0.08,0.14 -0.06,0.04 -0.12,0.06 -0.18,0.06 -0.07,0 -0.13,-0.02 -0.17,-0.04 -0.03,-0.03 -0.05,-0.05 -0.05,-0.08 0,-0.01 0.01,-0.03 0.05,-0.06 0.03,-0.02 0.06,-0.04 0.08,-0.05 0.05,0.03 0.09,0.09 0.12,0.16 0.03,0 0.05,-0.02 0.05,-0.05 0,-0.04 -0.04,-0.1 -0.12,-0.17 -0.07,-0.08 -0.11,-0.14 -0.11,-0.19 0,-0.04 0.02,-0.08 0.06,-0.1 0.05,-0.03 0.1,-0.04 0.16,-0.04 0.06,0 0.1,0.01 0.13,0.03 0.04,0.02 0.05,0.05 0.05,0.09 0,0.03 -0.03,0.08 -0.09,0.14 0.01,0.01 0.02,0.01 0.03,0.02 0.01,0.01 0.02,0.03 0.04,0.06 0.02,0.03 0.03,0.06 0.03,0.08zm-0.14 -0.21c0.04,-0.03 0.06,-0.06 0.06,-0.09 0,-0.04 -0.02,-0.05 -0.07,-0.05 -0.02,0 -0.04,0 -0.05,0.01 -0.02,0.01 -0.03,0.02 -0.03,0.03 0,0.02 0.03,0.05 0.07,0.08l0.02 0.02zm0.64 0.21c0,0.06 -0.02,0.11 -0.08,0.14 -0.05,0.04 -0.11,0.06 -0.18,0.06 -0.06,0 -0.12,-0.02 -0.16,-0.04 -0.04,-0.03 -0.06,-0.05 -0.06,-0.08 0,-0.01 0.02,-0.03 0.05,-0.06 0.04,-0.02 0.07,-0.04 0.09,-0.05 0.05,0.03 0.08,0.09 0.12,0.16 0.03,0 0.05,-0.02 0.05,-0.05 0,-0.04 -0.04,-0.1 -0.12,-0.17 -0.07,-0.08 -0.11,-0.14 -0.11,-0.19 0,-0.04 0.02,-0.08 0.06,-0.1 0.04,-0.03 0.1,-0.04 0.16,-0.04 0.06,0 0.1,0.01 0.13,0.03 0.03,0.02 0.05,0.05 0.05,0.09 0,0.03 -0.03,0.08 -0.09,0.14 0.01,0.01 0.02,0.01 0.03,0.02 0.01,0.01 0.02,0.03 0.04,0.06 0.02,0.03 0.02,0.06 0.02,0.08zm-0.13 -0.21c0.04,-0.03 0.06,-0.06 0.06,-0.09 0,-0.04 -0.03,-0.05 -0.07,-0.05 -0.02,0 -0.04,0 -0.06,0.01 -0.01,0.01 -0.02,0.02 -0.02,0.03 0,0.02 0.02,0.05 0.07,0.08l0.02 0.02z"/>
  <path class="fil1" d="M6.38 2.33c-0.07,0 -0.12,-0.02 -0.16,-0.05 -0.04,-0.03 -0.06,-0.07 -0.06,-0.12 0,-0.04 0.03,-0.08 0.07,-0.11 0.05,-0.04 0.1,-0.06 0.16,-0.07 -0.01,-0.02 -0.05,-0.07 -0.11,-0.16 -0.04,0.01 -0.08,0.01 -0.11,0.01 -0.08,0 -0.15,-0.02 -0.19,-0.06 -0.05,-0.03 -0.07,-0.09 -0.07,-0.16 0,-0.02 0,-0.06 0.01,-0.09l0.01 -0.02c0.04,0 0.07,0.01 0.09,0.02 -0.01,0.03 -0.02,0.07 -0.02,0.11 0,0.03 0.01,0.06 0.04,0.09 0.03,0.02 0.07,0.03 0.11,0.03 0.02,0 0.05,0 0.08,-0.01 -0.05,-0.07 -0.07,-0.13 -0.07,-0.18 0,-0.07 0.03,-0.12 0.09,-0.16 0.06,-0.04 0.12,-0.06 0.2,-0.06 0.07,0 0.13,0.01 0.17,0.05 0.04,0.03 0.06,0.07 0.06,0.12 0,0.04 -0.02,0.09 -0.06,0.13 -0.03,0.04 -0.07,0.07 -0.12,0.09 0.07,0.09 0.11,0.17 0.14,0.26 0.08,0.01 0.16,0.03 0.24,0.05 -0.02,0.05 -0.03,0.08 -0.04,0.1 -0.02,-0.02 -0.05,-0.03 -0.09,-0.05 -0.03,-0.01 -0.07,-0.02 -0.1,-0.02l0 0c0,0.07 -0.03,0.13 -0.09,0.18 -0.05,0.05 -0.12,0.08 -0.18,0.08zm0.06 -0.67c0.04,-0.01 0.07,-0.04 0.1,-0.07 0.03,-0.03 0.05,-0.05 0.05,-0.08 0,-0.03 -0.01,-0.05 -0.04,-0.06 -0.02,-0.01 -0.04,-0.02 -0.08,-0.02 -0.03,0 -0.06,0.01 -0.08,0.02 -0.02,0.01 -0.03,0.03 -0.03,0.05 0,0.02 0,0.03 0.01,0.05 0.01,0.01 0.01,0.03 0.02,0.03 0,0.01 0.01,0.02 0.02,0.03 0,0.01 0.01,0.02 0.01,0.02 0.01,0.01 0.01,0.02 0.02,0.03zm-0.1 0.57c0.03,0 0.05,-0.01 0.07,-0.04 0.02,-0.02 0.03,-0.04 0.03,-0.07 0,-0.02 0,-0.04 -0.01,-0.06 -0.04,0 -0.08,0.01 -0.11,0.03 -0.04,0.02 -0.06,0.04 -0.06,0.07 0,0.02 0.01,0.03 0.02,0.05 0.02,0.01 0.04,0.02 0.06,0.02zm0.84 -0.46c-0.04,0 -0.07,0.03 -0.09,0.09 -0.02,0.06 -0.04,0.12 -0.04,0.19 0,0.11 0.04,0.16 0.11,0.16 0.02,0 0.05,0 0.07,-0.01 0.03,-0.01 0.05,-0.02 0.07,-0.03l0.02 -0.02 0.03 0.04c-0.01,0.01 -0.02,0.02 -0.05,0.04 -0.02,0.02 -0.04,0.03 -0.06,0.04 -0.02,0.01 -0.05,0.02 -0.08,0.03 -0.03,0.01 -0.06,0.01 -0.09,0.01 -0.08,0 -0.13,-0.02 -0.17,-0.06 -0.04,-0.05 -0.05,-0.11 -0.05,-0.19 0,-0.11 0.03,-0.19 0.09,-0.26 0.06,-0.07 0.14,-0.1 0.24,-0.1 0.06,0 0.12,0.01 0.15,0.04 0.04,0.03 0.06,0.06 0.06,0.1 0,0.04 -0.01,0.08 -0.04,0.11 -0.02,0 -0.05,-0.01 -0.08,-0.02 -0.03,-0.01 -0.06,-0.02 -0.07,-0.04l0.02 -0.11c-0.01,-0.01 -0.02,-0.01 -0.04,-0.01zm0.7 0.35c0,0.06 -0.02,0.1 -0.07,0.14 -0.06,0.04 -0.12,0.05 -0.19,0.05 -0.06,0 -0.12,-0.01 -0.16,-0.04 -0.04,-0.02 -0.06,-0.05 -0.06,-0.07 0,-0.01 0.02,-0.03 0.05,-0.06 0.04,-0.03 0.07,-0.05 0.09,-0.05 0.05,0.03 0.09,0.08 0.12,0.16 0.03,-0.01 0.05,-0.02 0.05,-0.05 0,-0.04 -0.04,-0.1 -0.12,-0.18 -0.07,-0.07 -0.11,-0.13 -0.11,-0.18 0,-0.04 0.02,-0.08 0.06,-0.1 0.04,-0.03 0.1,-0.04 0.16,-0.04 0.06,0 0.1,0.01 0.13,0.03 0.03,0.02 0.05,0.05 0.05,0.08 0,0.04 -0.03,0.09 -0.09,0.15 0.01,0 0.02,0.01 0.03,0.02 0.01,0.01 0.02,0.03 0.04,0.06 0.02,0.03 0.02,0.06 0.02,0.08zm-0.13 -0.21c0.04,-0.03 0.06,-0.07 0.06,-0.1 0,-0.03 -0.03,-0.04 -0.07,-0.04 -0.02,0 -0.04,0 -0.06,0.01 -0.01,0.01 -0.02,0.02 -0.02,0.03 0,0.02 0.02,0.05 0.07,0.08l0.02 0.02zm0.64 0.21c0,0.06 -0.02,0.1 -0.08,0.14 -0.05,0.04 -0.11,0.05 -0.18,0.05 -0.07,0 -0.12,-0.01 -0.16,-0.04 -0.04,-0.02 -0.06,-0.05 -0.06,-0.07 0,-0.01 0.02,-0.03 0.05,-0.06 0.04,-0.03 0.06,-0.05 0.09,-0.05 0.04,0.03 0.08,0.08 0.11,0.16 0.04,-0.01 0.06,-0.02 0.06,-0.05 0,-0.04 -0.04,-0.1 -0.12,-0.18 -0.08,-0.07 -0.12,-0.13 -0.12,-0.18 0,-0.04 0.03,-0.08 0.07,-0.1 0.04,-0.03 0.09,-0.04 0.15,-0.04 0.06,0 0.11,0.01 0.14,0.03 0.03,0.02 0.05,0.05 0.05,0.08 0,0.04 -0.03,0.09 -0.09,0.15 0.01,0 0.01,0.01 0.03,0.02 0.01,0.01 0.02,0.03 0.04,0.06 0.01,0.03 0.02,0.06 0.02,0.08zm-0.13 -0.21c0.04,-0.03 0.06,-0.07 0.06,-0.1 0,-0.03 -0.03,-0.04 -0.07,-0.04 -0.03,0 -0.04,0 -0.06,0.01 -0.01,0.01 -0.02,0.02 -0.02,0.03 0,0.02 0.02,0.05 0.06,0.08l0.03 0.02z"/>
  <path class="fil0" d="M0.61 3.45c-0.07,0 -0.12,-0.01 -0.16,-0.04 -0.04,-0.03 -0.06,-0.07 -0.06,-0.12 0,-0.05 0.03,-0.09 0.07,-0.12 0.05,-0.03 0.1,-0.05 0.16,-0.06 -0.01,-0.02 -0.05,-0.07 -0.11,-0.16 -0.04,0 -0.08,0.01 -0.11,0.01 -0.08,0 -0.15,-0.02 -0.19,-0.06 -0.05,-0.04 -0.07,-0.09 -0.07,-0.16 0,-0.03 0,-0.06 0.01,-0.1l0.01 -0.01c0.03,0 0.07,0 0.09,0.01 -0.01,0.04 -0.02,0.07 -0.02,0.11 0,0.04 0.01,0.07 0.04,0.09 0.03,0.03 0.07,0.04 0.11,0.04 0.02,0 0.05,-0.01 0.08,-0.01 -0.05,-0.07 -0.07,-0.13 -0.07,-0.19 0,-0.06 0.03,-0.12 0.09,-0.16 0.06,-0.04 0.12,-0.06 0.2,-0.06 0.07,0 0.13,0.02 0.17,0.05 0.04,0.03 0.06,0.07 0.06,0.12 0,0.05 -0.02,0.09 -0.06,0.13 -0.03,0.04 -0.07,0.08 -0.12,0.1 0.07,0.08 0.11,0.17 0.14,0.25 0.08,0.01 0.16,0.03 0.24,0.06 -0.02,0.04 -0.03,0.08 -0.04,0.1 -0.02,-0.02 -0.05,-0.04 -0.09,-0.05 -0.03,-0.02 -0.07,-0.03 -0.1,-0.03l0 0c0,0.07 -0.03,0.13 -0.09,0.19 -0.05,0.05 -0.12,0.07 -0.18,0.07zm0.06 -0.66c0.04,-0.02 0.07,-0.04 0.1,-0.07 0.03,-0.03 0.05,-0.06 0.05,-0.08 0,-0.03 -0.01,-0.05 -0.04,-0.06 -0.02,-0.02 -0.04,-0.02 -0.08,-0.02 -0.03,0 -0.06,0 -0.08,0.02 -0.02,0.01 -0.03,0.03 -0.03,0.05 0,0.01 0,0.03 0.01,0.04 0.01,0.02 0.01,0.03 0.02,0.04 0,0.01 0.01,0.02 0.01,0.03 0.01,0.01 0.02,0.01 0.02,0.02 0.01,0 0.01,0.01 0.02,0.03zm-0.1 0.56c0.03,0 0.05,-0.01 0.07,-0.03 0.02,-0.02 0.03,-0.05 0.03,-0.07 0,-0.03 -0.01,-0.05 -0.01,-0.07 -0.04,0 -0.08,0.01 -0.11,0.03 -0.04,0.02 -0.06,0.05 -0.06,0.07 0,0.02 0.01,0.04 0.02,0.05 0.02,0.02 0.04,0.02 0.06,0.02zm0.94 -0.49c0,0 0,-0.01 0.01,-0.03 0.05,0 0.11,0.01 0.18,0.04 -0.02,0.07 -0.04,0.15 -0.05,0.23 -0.02,0.08 -0.03,0.14 -0.03,0.18 0,0.03 0.01,0.05 0.02,0.05 0,0 0.02,-0.01 0.06,-0.03l0.02 -0.01 0.02 0.05c-0.01,0.01 -0.02,0.02 -0.03,0.03 -0.02,0.01 -0.04,0.02 -0.08,0.04 -0.04,0.02 -0.07,0.03 -0.1,0.03 -0.06,0 -0.1,-0.03 -0.11,-0.08 -0.06,0.05 -0.11,0.08 -0.16,0.08 -0.05,0 -0.09,-0.02 -0.13,-0.05 -0.03,-0.04 -0.05,-0.1 -0.05,-0.17 0,-0.13 0.03,-0.22 0.08,-0.29 0.06,-0.07 0.12,-0.1 0.19,-0.1 0.06,0 0.11,0.01 0.16,0.03zm-0.17 0.46c0.03,0 0.05,0 0.08,-0.02 0.01,-0.13 0.03,-0.25 0.07,-0.38 -0.03,-0.01 -0.05,-0.02 -0.07,-0.02 -0.04,0 -0.07,0.04 -0.09,0.1 -0.03,0.06 -0.04,0.13 -0.04,0.21 0,0.08 0.02,0.11 0.05,0.11zm0.85 -0.07c0,0.05 -0.02,0.1 -0.08,0.14 -0.05,0.03 -0.11,0.05 -0.18,0.05 -0.07,0 -0.12,-0.01 -0.16,-0.04 -0.04,-0.03 -0.06,-0.05 -0.06,-0.07 0,-0.01 0.02,-0.04 0.05,-0.06 0.04,-0.03 0.06,-0.05 0.09,-0.06 0.04,0.04 0.08,0.09 0.11,0.16 0.04,0 0.06,-0.02 0.06,-0.05 0,-0.04 -0.04,-0.1 -0.12,-0.17 -0.08,-0.08 -0.11,-0.14 -0.11,-0.18 0,-0.05 0.02,-0.08 0.06,-0.11 0.04,-0.02 0.09,-0.03 0.15,-0.03 0.07,0 0.11,0.01 0.14,0.03 0.03,0.02 0.05,0.04 0.05,0.08 0,0.03 -0.03,0.08 -0.09,0.14 0.01,0.01 0.02,0.02 0.03,0.03 0.01,0.01 0.02,0.03 0.04,0.06 0.01,0.02 0.02,0.05 0.02,0.08zm-0.13 -0.22c0.04,-0.03 0.06,-0.06 0.06,-0.09 0,-0.03 -0.03,-0.05 -0.07,-0.05 -0.02,0 -0.04,0.01 -0.06,0.01 -0.01,0.01 -0.02,0.02 -0.02,0.03 0,0.02 0.02,0.05 0.06,0.09l0.03 0.01zm0.64 0.22c0,0.05 -0.03,0.1 -0.08,0.14 -0.05,0.03 -0.11,0.05 -0.18,0.05 -0.07,0 -0.12,-0.01 -0.16,-0.04 -0.04,-0.03 -0.06,-0.05 -0.06,-0.07 0,-0.01 0.02,-0.04 0.05,-0.06 0.03,-0.03 0.06,-0.05 0.08,-0.06 0.05,0.04 0.09,0.09 0.12,0.16 0.04,0 0.05,-0.02 0.05,-0.05 0,-0.04 -0.03,-0.1 -0.11,-0.17 -0.08,-0.08 -0.12,-0.14 -0.12,-0.18 0,-0.05 0.02,-0.08 0.07,-0.11 0.04,-0.02 0.09,-0.03 0.15,-0.03 0.06,0 0.11,0.01 0.14,0.03 0.03,0.02 0.05,0.04 0.05,0.08 0,0.03 -0.03,0.08 -0.09,0.14 0,0.01 0.01,0.02 0.02,0.03 0.01,0.01 0.03,0.03 0.05,0.06 0.01,0.02 0.02,0.05 0.02,0.08zm-0.14 -0.22c0.04,-0.03 0.06,-0.06 0.06,-0.09 0,-0.03 -0.02,-0.05 -0.07,-0.05 -0.02,0 -0.04,0.01 -0.05,0.01 -0.01,0.01 -0.02,0.02 -0.02,0.03 0,0.02 0.02,0.05 0.06,0.09l0.02 0.01z"/>
  <path class="fil1" d="M3.5 3.51c-0.07,0 -0.12,-0.01 -0.16,-0.04 -0.03,-0.03 -0.05,-0.07 -0.05,-0.12 0,-0.05 0.02,-0.09 0.06,-0.12 0.05,-0.03 0.1,-0.05 0.16,-0.06 -0.01,-0.02 -0.04,-0.07 -0.11,-0.16 -0.04,0.01 -0.08,0.01 -0.11,0.01 -0.08,0 -0.14,-0.02 -0.19,-0.06 -0.05,-0.04 -0.07,-0.09 -0.07,-0.16 0,-0.03 0.01,-0.06 0.02,-0.1l0 -0.01c0.04,0 0.07,0 0.09,0.01 -0.01,0.04 -0.02,0.07 -0.02,0.11 0,0.04 0.01,0.07 0.04,0.09 0.03,0.03 0.07,0.04 0.11,0.04 0.02,0 0.05,-0.01 0.08,-0.01 -0.04,-0.07 -0.07,-0.13 -0.07,-0.19 0,-0.06 0.03,-0.12 0.09,-0.16 0.06,-0.04 0.13,-0.05 0.2,-0.05 0.07,0 0.13,0.01 0.17,0.04 0.04,0.04 0.06,0.07 0.06,0.12 0,0.05 -0.02,0.09 -0.05,0.13 -0.04,0.04 -0.08,0.08 -0.13,0.1 0.07,0.08 0.12,0.17 0.14,0.25 0.08,0.01 0.16,0.03 0.24,0.06 -0.02,0.04 -0.03,0.08 -0.04,0.1 -0.02,-0.02 -0.05,-0.03 -0.08,-0.05 -0.04,-0.01 -0.08,-0.02 -0.11,-0.03l0 0c0,0.07 -0.03,0.14 -0.08,0.19 -0.06,0.05 -0.12,0.07 -0.19,0.07zm0.07 -0.66c0.03,-0.02 0.07,-0.04 0.1,-0.07 0.02,-0.03 0.04,-0.06 0.04,-0.08 0,-0.03 -0.01,-0.05 -0.03,-0.06 -0.02,-0.02 -0.05,-0.02 -0.09,-0.02 -0.03,0 -0.06,0 -0.08,0.02 -0.02,0.01 -0.03,0.03 -0.03,0.05 0,0.01 0,0.03 0.01,0.04 0.01,0.02 0.02,0.03 0.02,0.04 0,0.01 0.01,0.02 0.02,0.03 0,0.01 0.01,0.01 0.01,0.02 0.01,0.01 0.02,0.01 0.03,0.03zm-0.11 0.56c0.03,0 0.05,-0.01 0.07,-0.03 0.02,-0.02 0.03,-0.05 0.03,-0.07 0,-0.03 0,-0.05 -0.01,-0.06 -0.04,0 -0.07,0.01 -0.11,0.02 -0.04,0.02 -0.06,0.05 -0.06,0.08 0,0.01 0.01,0.03 0.02,0.04 0.02,0.02 0.04,0.02 0.06,0.02zm0.94 -0.49c0,0 0.01,-0.01 0.02,-0.03 0.04,0 0.1,0.01 0.18,0.04 -0.03,0.07 -0.05,0.15 -0.06,0.23 -0.02,0.08 -0.02,0.14 -0.02,0.18 0,0.03 0,0.05 0.01,0.05 0,0 0.03,-0.01 0.06,-0.03l0.02 -0.01 0.02 0.05c0,0.01 -0.02,0.02 -0.03,0.03 -0.01,0.01 -0.04,0.02 -0.08,0.04 -0.04,0.02 -0.07,0.03 -0.1,0.03 -0.06,0 -0.09,-0.02 -0.1,-0.08 -0.06,0.06 -0.12,0.08 -0.17,0.08 -0.05,0 -0.09,-0.02 -0.12,-0.05 -0.04,-0.04 -0.05,-0.1 -0.05,-0.17 0,-0.12 0.02,-0.22 0.08,-0.29 0.05,-0.07 0.11,-0.1 0.19,-0.1 0.05,0 0.1,0.01 0.15,0.03zm-0.16 0.47c0.02,0 0.05,-0.01 0.07,-0.03 0.01,-0.13 0.03,-0.25 0.07,-0.38 -0.03,-0.01 -0.05,-0.01 -0.07,-0.01 -0.04,0 -0.07,0.03 -0.09,0.09 -0.02,0.06 -0.04,0.13 -0.04,0.21 0,0.08 0.02,0.12 0.06,0.12zm0.85 -0.08c0,0.05 -0.03,0.1 -0.08,0.14 -0.06,0.03 -0.12,0.05 -0.18,0.05 -0.07,0 -0.13,-0.01 -0.17,-0.04 -0.04,-0.03 -0.06,-0.05 -0.06,-0.07 0,-0.01 0.02,-0.03 0.05,-0.06 0.04,-0.03 0.07,-0.05 0.09,-0.06 0.05,0.04 0.09,0.09 0.12,0.16 0.03,0 0.05,-0.02 0.05,-0.04 0,-0.05 -0.04,-0.1 -0.12,-0.18 -0.07,-0.08 -0.11,-0.14 -0.11,-0.18 0,-0.05 0.02,-0.08 0.06,-0.11 0.05,-0.02 0.1,-0.03 0.16,-0.03 0.06,0 0.1,0.01 0.13,0.03 0.03,0.02 0.05,0.04 0.05,0.08 0,0.03 -0.03,0.08 -0.09,0.14 0.01,0.01 0.02,0.02 0.03,0.03 0.01,0.01 0.02,0.03 0.04,0.06 0.02,0.03 0.03,0.05 0.03,0.08zm-0.14 -0.21c0.04,-0.04 0.06,-0.07 0.06,-0.1 0,-0.03 -0.02,-0.05 -0.07,-0.05 -0.02,0 -0.04,0.01 -0.05,0.01 -0.02,0.01 -0.03,0.02 -0.03,0.03 0,0.02 0.02,0.05 0.07,0.09l0.02 0.02zm0.64 0.21c0,0.05 -0.02,0.1 -0.08,0.14 -0.05,0.03 -0.11,0.05 -0.18,0.05 -0.06,0 -0.12,-0.01 -0.16,-0.04 -0.04,-0.03 -0.06,-0.05 -0.06,-0.07 0,-0.01 0.02,-0.03 0.05,-0.06 0.04,-0.03 0.06,-0.05 0.09,-0.06 0.04,0.04 0.08,0.09 0.11,0.16 0.04,0 0.06,-0.02 0.06,-0.04 0,-0.05 -0.04,-0.1 -0.12,-0.18 -0.08,-0.08 -0.11,-0.14 -0.11,-0.18 0,-0.05 0.02,-0.08 0.06,-0.11 0.04,-0.02 0.09,-0.03 0.16,-0.03 0.06,0 0.1,0.01 0.13,0.03 0.03,0.02 0.05,0.04 0.05,0.08 0,0.03 -0.03,0.08 -0.09,0.14 0.01,0.01 0.02,0.02 0.03,0.03 0.01,0.01 0.02,0.03 0.04,0.06 0.01,0.03 0.02,0.05 0.02,0.08zm-0.13 -0.21c0.04,-0.04 0.06,-0.07 0.06,-0.1 0,-0.03 -0.03,-0.05 -0.07,-0.05 -0.02,0 -0.04,0.01 -0.06,0.01 -0.01,0.01 -0.02,0.02 -0.02,0.03 0,0.02 0.02,0.05 0.06,0.09l0.03 0.02z"/>
  <path class="fil1" d="M6.34 3.51c-0.07,0 -0.12,-0.01 -0.16,-0.04 -0.04,-0.04 -0.05,-0.07 -0.05,-0.12 0,-0.05 0.02,-0.09 0.06,-0.12 0.05,-0.03 0.1,-0.05 0.16,-0.07 -0.01,-0.01 -0.05,-0.07 -0.11,-0.16 -0.04,0.01 -0.08,0.02 -0.11,0.02 -0.08,0 -0.15,-0.02 -0.19,-0.06 -0.05,-0.04 -0.07,-0.09 -0.07,-0.16 0,-0.03 0.01,-0.06 0.01,-0.1l0.01 -0.02c0.04,0 0.07,0.01 0.09,0.02 -0.01,0.03 -0.02,0.07 -0.02,0.11 0,0.04 0.01,0.07 0.04,0.09 0.03,0.02 0.07,0.03 0.11,0.03 0.02,0 0.05,0 0.08,-0.01 -0.05,-0.07 -0.07,-0.13 -0.07,-0.18 0,-0.07 0.03,-0.12 0.09,-0.16 0.06,-0.04 0.12,-0.06 0.2,-0.06 0.07,0 0.13,0.02 0.17,0.05 0.04,0.03 0.06,0.07 0.06,0.12 0,0.05 -0.02,0.09 -0.06,0.13 -0.03,0.04 -0.07,0.07 -0.12,0.1 0.07,0.08 0.12,0.17 0.14,0.25 0.08,0.01 0.16,0.03 0.24,0.06 -0.02,0.04 -0.03,0.07 -0.04,0.09 -0.02,-0.01 -0.05,-0.03 -0.09,-0.04 -0.03,-0.02 -0.07,-0.03 -0.1,-0.03l0 0c0,0.07 -0.03,0.13 -0.08,0.18 -0.06,0.06 -0.13,0.08 -0.19,0.08zm0.06 -0.66c0.04,-0.02 0.07,-0.04 0.1,-0.07 0.03,-0.03 0.05,-0.06 0.05,-0.09 0,-0.02 -0.01,-0.04 -0.03,-0.06 -0.03,-0.01 -0.05,-0.02 -0.09,-0.02 -0.03,0 -0.06,0.01 -0.08,0.02 -0.02,0.02 -0.03,0.03 -0.03,0.06 0,0.01 0,0.03 0.01,0.04 0.01,0.02 0.01,0.03 0.02,0.04 0,0.01 0.01,0.02 0.02,0.03 0,0 0.01,0.01 0.01,0.02 0.01,0 0.01,0.01 0.02,0.03zm-0.1 0.56c0.03,0 0.05,-0.01 0.07,-0.03 0.02,-0.03 0.03,-0.05 0.03,-0.07 0,-0.03 0,-0.05 -0.01,-0.07 -0.04,0 -0.08,0.01 -0.11,0.03 -0.04,0.02 -0.06,0.05 -0.06,0.07 0,0.02 0.01,0.04 0.02,0.05 0.02,0.01 0.04,0.02 0.06,0.02zm0.94 -0.49c0,0 0.01,-0.01 0.01,-0.03 0.05,0 0.11,0.01 0.18,0.03 -0.02,0.08 -0.04,0.16 -0.05,0.24 -0.02,0.08 -0.02,0.14 -0.02,0.17 0,0.04 0,0.06 0.01,0.06 0,0 0.02,-0.01 0.06,-0.03l0.02 -0.01 0.02 0.05c-0.01,0.01 -0.02,0.02 -0.03,0.03 -0.01,0.01 -0.04,0.02 -0.08,0.04 -0.04,0.02 -0.07,0.03 -0.1,0.03 -0.06,0 -0.09,-0.03 -0.1,-0.08 -0.07,0.05 -0.12,0.08 -0.17,0.08 -0.05,0 -0.09,-0.02 -0.12,-0.06 -0.04,-0.03 -0.05,-0.09 -0.05,-0.17 0,-0.12 0.02,-0.21 0.07,-0.28 0.06,-0.07 0.12,-0.11 0.19,-0.11 0.06,0 0.11,0.02 0.16,0.04zm-0.16 0.46c0.02,0 0.04,-0.01 0.07,-0.02 0.01,-0.13 0.03,-0.26 0.07,-0.38 -0.03,-0.01 -0.05,-0.02 -0.07,-0.02 -0.04,0 -0.07,0.03 -0.09,0.1 -0.03,0.06 -0.04,0.13 -0.04,0.21 0,0.07 0.02,0.11 0.06,0.11zm0.84 -0.08c0,0.06 -0.02,0.11 -0.08,0.14 -0.05,0.04 -0.11,0.06 -0.18,0.06 -0.06,0 -0.12,-0.02 -0.16,-0.04 -0.04,-0.03 -0.06,-0.05 -0.06,-0.07 0,-0.02 0.02,-0.04 0.05,-0.07 0.04,-0.02 0.06,-0.04 0.09,-0.05 0.05,0.04 0.08,0.09 0.12,0.16 0.03,0 0.05,-0.02 0.05,-0.05 0,-0.04 -0.04,-0.1 -0.12,-0.17 -0.08,-0.08 -0.11,-0.14 -0.11,-0.19 0,-0.04 0.02,-0.08 0.06,-0.1 0.04,-0.02 0.1,-0.04 0.16,-0.04 0.06,0 0.1,0.01 0.13,0.03 0.03,0.02 0.05,0.05 0.05,0.09 0,0.03 -0.03,0.08 -0.09,0.14 0.01,0.01 0.02,0.01 0.03,0.02 0.01,0.02 0.02,0.03 0.04,0.06 0.02,0.03 0.02,0.06 0.02,0.08zm-0.13 -0.21c0.04,-0.03 0.06,-0.06 0.06,-0.09 0,-0.03 -0.03,-0.05 -0.07,-0.05 -0.02,0 -0.04,0 -0.06,0.01 -0.01,0.01 -0.02,0.02 -0.02,0.03 0,0.02 0.02,0.05 0.07,0.08l0.02 0.02zm0.64 0.21c0,0.06 -0.02,0.11 -0.08,0.14 -0.05,0.04 -0.11,0.06 -0.18,0.06 -0.07,0 -0.12,-0.02 -0.16,-0.04 -0.04,-0.03 -0.06,-0.05 -0.06,-0.07 0,-0.02 0.02,-0.04 0.05,-0.07 0.03,-0.02 0.06,-0.04 0.09,-0.05 0.04,0.04 0.08,0.09 0.11,0.16 0.04,0 0.06,-0.02 0.06,-0.05 0,-0.04 -0.04,-0.1 -0.12,-0.17 -0.08,-0.08 -0.12,-0.14 -0.12,-0.19 0,-0.04 0.03,-0.08 0.07,-0.1 0.04,-0.02 0.09,-0.04 0.15,-0.04 0.06,0 0.11,0.01 0.14,0.03 0.03,0.02 0.05,0.05 0.05,0.09 0,0.03 -0.03,0.08 -0.09,0.14 0.01,0.01 0.01,0.01 0.02,0.02 0.02,0.02 0.03,0.03 0.05,0.06 0.01,0.03 0.02,0.06 0.02,0.08zm-0.14 -0.21c0.04,-0.03 0.06,-0.06 0.06,-0.09 0,-0.03 -0.02,-0.05 -0.06,-0.05 -0.03,0 -0.04,0 -0.06,0.01 -0.01,0.01 -0.02,0.02 -0.02,0.03 0,0.02 0.02,0.05 0.06,0.08l0.02 0.02z"/>
  <path class="fil2" d="M3.68 1.04c-0.1,0 -0.17,-0.03 -0.23,-0.1 -0.06,-0.06 -0.09,-0.15 -0.09,-0.26 0,-0.11 0.02,-0.21 0.06,-0.3 0.04,-0.1 0.1,-0.17 0.18,-0.23 0.07,-0.05 0.16,-0.08 0.25,-0.08 0.03,0 0.06,0 0.09,0.01 0.07,-0.04 0.14,-0.06 0.21,-0.06 0.04,0 0.07,0 0.1,0.01 0.03,0.01 0.05,0.02 0.06,0.04 0,0.03 -0.02,0.06 -0.03,0.08 -0.05,-0.03 -0.09,-0.05 -0.14,-0.05 -0.04,0 -0.09,0.01 -0.12,0.03 0.04,0.05 0.06,0.11 0.06,0.19 0,0.08 -0.02,0.16 -0.07,0.23 -0.04,0.06 -0.1,0.1 -0.17,0.1 -0.04,0 -0.07,-0.02 -0.1,-0.05 -0.02,-0.03 -0.03,-0.07 -0.03,-0.12 0,-0.12 0.04,-0.23 0.13,-0.32 -0.07,0 -0.13,0.05 -0.18,0.14 -0.05,0.09 -0.07,0.2 -0.07,0.33 0,0.18 0.06,0.28 0.17,0.28 0.08,0 0.16,-0.05 0.25,-0.14l0.05 0.04c-0.01,0.02 -0.03,0.04 -0.06,0.08 -0.03,0.03 -0.05,0.05 -0.08,0.07 -0.03,0.02 -0.06,0.04 -0.11,0.06 -0.04,0.02 -0.09,0.02 -0.13,0.02zm0.3 -0.7c0,-0.08 -0.01,-0.13 -0.05,-0.16 -0.04,0.04 -0.07,0.08 -0.1,0.13 -0.02,0.05 -0.04,0.11 -0.04,0.16 0,0.03 0.01,0.05 0.02,0.07 0.01,0.02 0.02,0.03 0.04,0.03 0.04,0 0.07,-0.03 0.1,-0.08 0.02,-0.05 0.03,-0.1 0.03,-0.15zm0.58 0.51c0,0.06 -0.03,0.1 -0.08,0.14 -0.06,0.04 -0.12,0.05 -0.18,0.05 -0.07,0 -0.13,-0.01 -0.16,-0.04 -0.04,-0.02 -0.06,-0.05 -0.06,-0.07 0,-0.01 0.01,-0.03 0.05,-0.06 0.03,-0.03 0.06,-0.04 0.08,-0.05 0.05,0.03 0.09,0.08 0.12,0.16 0.03,-0.01 0.05,-0.02 0.05,-0.05 0,-0.04 -0.04,-0.1 -0.12,-0.18 -0.07,-0.07 -0.11,-0.13 -0.11,-0.18 0,-0.04 0.02,-0.08 0.06,-0.1 0.05,-0.03 0.1,-0.04 0.16,-0.04 0.06,0 0.1,0.01 0.14,0.03 0.03,0.02 0.04,0.05 0.04,0.08 0,0.04 -0.03,0.09 -0.09,0.15 0.01,0 0.02,0.01 0.03,0.02 0.01,0.01 0.02,0.03 0.04,0.06 0.02,0.03 0.03,0.06 0.03,0.08zm-0.14 -0.21c0.04,-0.03 0.06,-0.07 0.06,-0.1 0,-0.03 -0.02,-0.04 -0.07,-0.04 -0.02,0 -0.04,0 -0.05,0.01 -0.02,0.01 -0.03,0.02 -0.03,0.03 0,0.02 0.03,0.05 0.07,0.08l0.02 0.02zm0.64 0.21c0,0.06 -0.02,0.1 -0.07,0.14 -0.06,0.04 -0.12,0.05 -0.19,0.05 -0.06,0 -0.12,-0.01 -0.16,-0.04 -0.04,-0.02 -0.06,-0.05 -0.06,-0.07 0,-0.01 0.02,-0.03 0.05,-0.06 0.04,-0.03 0.07,-0.04 0.09,-0.05 0.05,0.03 0.09,0.08 0.12,0.16 0.03,-0.01 0.05,-0.02 0.05,-0.05 0,-0.04 -0.04,-0.1 -0.12,-0.18 -0.07,-0.07 -0.11,-0.13 -0.11,-0.18 0,-0.04 0.02,-0.08 0.06,-0.1 0.04,-0.03 0.1,-0.04 0.16,-0.04 0.06,0 0.1,0.01 0.13,0.03 0.03,0.02 0.05,0.05 0.05,0.08 0,0.04 -0.03,0.09 -0.09,0.15 0.01,0 0.02,0.01 0.03,0.02 0.01,0.01 0.02,0.03 0.04,0.06 0.02,0.03 0.02,0.06 0.02,0.08zm-0.13 -0.21c0.04,-0.03 0.06,-0.07 0.06,-0.1 0,-0.03 -0.03,-0.04 -0.07,-0.04 -0.02,0 -0.04,0 -0.06,0.01 -0.01,0.01 -0.02,0.02 -0.02,0.03 0,0.02 0.02,0.05 0.07,0.08l0.02 0.02z"/>
  <path class="fil2" d="M3.65 4.6c-0.09,0 -0.17,-0.04 -0.23,-0.11 -0.06,-0.06 -0.09,-0.15 -0.09,-0.26 0,-0.11 0.02,-0.21 0.07,-0.3 0.04,-0.09 0.09,-0.17 0.17,-0.23 0.07,-0.05 0.16,-0.08 0.25,-0.08 0.03,0 0.06,0 0.09,0.01 0.07,-0.04 0.14,-0.06 0.21,-0.06 0.04,0 0.07,0 0.1,0.01 0.03,0.01 0.05,0.02 0.07,0.04 -0.01,0.03 -0.02,0.06 -0.04,0.08 -0.04,-0.03 -0.09,-0.05 -0.14,-0.05 -0.04,0 -0.08,0.01 -0.12,0.03 0.04,0.05 0.07,0.11 0.07,0.19 0,0.08 -0.03,0.16 -0.07,0.23 -0.05,0.06 -0.11,0.1 -0.17,0.1 -0.05,0 -0.08,-0.02 -0.1,-0.05 -0.03,-0.03 -0.04,-0.07 -0.04,-0.12 0,-0.12 0.04,-0.23 0.14,-0.32 -0.08,0 -0.14,0.05 -0.19,0.14 -0.04,0.09 -0.07,0.2 -0.07,0.33 0,0.18 0.06,0.28 0.18,0.28 0.07,0 0.16,-0.05 0.25,-0.14l0.05 0.04c-0.02,0.02 -0.04,0.04 -0.07,0.08 -0.02,0.03 -0.05,0.05 -0.08,0.07 -0.03,0.02 -0.06,0.04 -0.11,0.06 -0.04,0.02 -0.08,0.03 -0.13,0.03zm0.31 -0.71c0,-0.08 -0.02,-0.13 -0.06,-0.16 -0.04,0.04 -0.07,0.08 -0.1,0.13 -0.02,0.05 -0.03,0.11 -0.03,0.16 0,0.03 0,0.05 0.01,0.07 0.01,0.02 0.03,0.03 0.04,0.03 0.04,0 0.07,-0.03 0.1,-0.08 0.02,-0.05 0.04,-0.1 0.04,-0.15z"/>
  <path class="fil2" d="M4.53 4.4c0,0.06 -0.03,0.11 -0.08,0.14 -0.05,0.04 -0.11,0.06 -0.18,0.06 -0.07,0 -0.12,-0.02 -0.16,-0.05 -0.04,-0.02 -0.06,-0.05 -0.06,-0.07 0,-0.01 0.01,-0.03 0.05,-0.06 0.03,-0.03 0.06,-0.04 0.08,-0.05 0.05,0.03 0.09,0.09 0.12,0.16 0.04,-0.01 0.05,-0.02 0.05,-0.05 0,-0.04 -0.04,-0.1 -0.11,-0.18 -0.08,-0.07 -0.12,-0.13 -0.12,-0.18 0,-0.04 0.02,-0.08 0.07,-0.1 0.04,-0.03 0.09,-0.04 0.15,-0.04 0.06,0 0.11,0.01 0.14,0.03 0.03,0.02 0.04,0.05 0.04,0.08 0,0.04 -0.03,0.09 -0.08,0.15 0,0 0.01,0.01 0.02,0.02 0.01,0.01 0.03,0.03 0.04,0.06 0.02,0.03 0.03,0.06 0.03,0.08zm-0.14 -0.21c0.04,-0.03 0.06,-0.06 0.06,-0.1 0,-0.03 -0.02,-0.04 -0.07,-0.04 -0.02,0 -0.04,0 -0.05,0.01 -0.02,0.01 -0.02,0.02 -0.02,0.03 0,0.02 0.02,0.05 0.06,0.08l0.02 0.02z"/>
  <path class="fil2" d="M5.04 4.4c0,0.06 -0.03,0.11 -0.08,0.14 -0.06,0.04 -0.12,0.06 -0.18,0.06 -0.07,0 -0.12,-0.02 -0.16,-0.05 -0.04,-0.02 -0.06,-0.05 -0.06,-0.07 0,-0.01 0.01,-0.03 0.05,-0.06 0.03,-0.03 0.06,-0.04 0.08,-0.05 0.05,0.03 0.09,0.09 0.12,0.16 0.03,-0.01 0.05,-0.02 0.05,-0.05 0,-0.04 -0.04,-0.1 -0.11,-0.18 -0.08,-0.07 -0.12,-0.13 -0.12,-0.18 0,-0.04 0.02,-0.08 0.06,-0.1 0.05,-0.03 0.1,-0.04 0.16,-0.04 0.06,0 0.1,0.01 0.14,0.03 0.03,0.02 0.04,0.05 0.04,0.08 0,0.04 -0.03,0.09 -0.09,0.15 0.01,0 0.02,0.01 0.03,0.02 0.01,0.01 0.02,0.03 0.04,0.06 0.02,0.03 0.03,0.06 0.03,0.08zm-0.14 -0.21c0.04,-0.03 0.06,-0.06 0.06,-0.1 0,-0.03 -0.02,-0.04 -0.07,-0.04 -0.02,0 -0.04,0 -0.05,0.01 -0.02,0.01 -0.02,0.02 -0.02,0.03 0,0.02 0.02,0.05 0.06,0.08l0.02 0.02z"/>
  <path class="fil2" d="M5.43 3.96l0 0.19c-0.02,0.01 -0.06,0.01 -0.12,0.01l-0.01 0 0 -0.2 -0.2 0c0,-0.06 0,-0.1 0.01,-0.12l0.19 0 0 -0.19c0.03,-0.01 0.08,-0.01 0.13,-0.01l0 0.2 0.21 0c0,0.07 0,0.11 0,0.12l-0.21 0z"/>
  <path class="fil2" d="M3.44 2.21c-0.07,0 -0.12,-0.02 -0.16,-0.05 -0.04,-0.03 -0.05,-0.07 -0.05,-0.11 0,-0.05 0.02,-0.09 0.06,-0.12 0.05,-0.03 0.1,-0.05 0.16,-0.07 -0.01,-0.01 -0.04,-0.07 -0.11,-0.16 -0.04,0.01 -0.08,0.02 -0.11,0.02 -0.08,0 -0.14,-0.02 -0.19,-0.06 -0.05,-0.04 -0.07,-0.1 -0.07,-0.16 0,-0.03 0.01,-0.07 0.02,-0.1l0 -0.02c0.04,0 0.07,0.01 0.09,0.02 -0.01,0.03 -0.02,0.07 -0.02,0.11 0,0.04 0.01,0.07 0.04,0.09 0.03,0.02 0.07,0.03 0.11,0.03 0.02,0 0.05,0 0.08,-0.01 -0.04,-0.07 -0.07,-0.13 -0.07,-0.18 0,-0.07 0.03,-0.12 0.09,-0.16 0.06,-0.04 0.13,-0.06 0.2,-0.06 0.07,0 0.13,0.02 0.17,0.05 0.04,0.03 0.06,0.07 0.06,0.12 0,0.05 -0.02,0.09 -0.05,0.13 -0.04,0.04 -0.08,0.07 -0.13,0.1 0.07,0.08 0.12,0.16 0.14,0.25 0.08,0.01 0.16,0.03 0.24,0.05 -0.02,0.05 -0.03,0.08 -0.04,0.1 -0.02,-0.01 -0.05,-0.03 -0.09,-0.04 -0.03,-0.02 -0.07,-0.03 -0.1,-0.03l0 0c0,0.07 -0.03,0.13 -0.08,0.18 -0.06,0.05 -0.12,0.08 -0.19,0.08zm0.07 -0.67c0.03,-0.01 0.07,-0.04 0.1,-0.06 0.02,-0.03 0.04,-0.06 0.04,-0.09 0,-0.02 -0.01,-0.04 -0.03,-0.06 -0.02,-0.01 -0.05,-0.02 -0.09,-0.02 -0.03,0 -0.06,0.01 -0.08,0.02 -0.02,0.02 -0.03,0.03 -0.03,0.06 0,0.01 0,0.03 0.01,0.04 0.01,0.02 0.02,0.03 0.02,0.04 0,0.01 0.01,0.01 0.02,0.02 0,0.01 0.01,0.02 0.01,0.03 0.01,0 0.02,0.01 0.03,0.02zm-0.11 0.57c0.03,0 0.05,-0.01 0.07,-0.03 0.02,-0.03 0.03,-0.05 0.03,-0.08 0,-0.02 0,-0.04 -0.01,-0.06 -0.04,0 -0.07,0.01 -0.11,0.03 -0.04,0.02 -0.06,0.04 -0.06,0.07 0,0.02 0.01,0.04 0.02,0.05 0.02,0.01 0.04,0.02 0.06,0.02zm0.84 -0.46c-0.04,0 -0.07,0.03 -0.09,0.09 -0.02,0.06 -0.03,0.12 -0.03,0.19 0,0.11 0.03,0.16 0.1,0.16 0.03,0 0.05,0 0.08,-0.01 0.02,-0.01 0.04,-0.02 0.06,-0.03l0.02 -0.02 0.03 0.04c-0.01,0.01 -0.02,0.03 -0.04,0.04 -0.03,0.02 -0.05,0.03 -0.07,0.04 -0.02,0.01 -0.04,0.02 -0.08,0.03 -0.03,0.01 -0.06,0.02 -0.09,0.02 -0.07,0 -0.13,-0.03 -0.17,-0.07 -0.03,-0.05 -0.05,-0.11 -0.05,-0.19 0,-0.1 0.03,-0.19 0.09,-0.26 0.06,-0.07 0.14,-0.1 0.24,-0.1 0.07,0 0.12,0.02 0.15,0.04 0.04,0.03 0.06,0.06 0.06,0.1 0,0.04 -0.01,0.08 -0.04,0.11 -0.02,0 -0.05,-0.01 -0.08,-0.02 -0.03,-0.01 -0.06,-0.02 -0.07,-0.03l0.02 -0.12c-0.01,-0.01 -0.02,-0.01 -0.04,-0.01zm0.71 0.35c0,0.06 -0.03,0.11 -0.08,0.14 -0.06,0.04 -0.12,0.06 -0.18,0.06 -0.07,0 -0.13,-0.02 -0.16,-0.04 -0.04,-0.03 -0.06,-0.05 -0.06,-0.08 0,-0.01 0.01,-0.03 0.05,-0.06 0.03,-0.03 0.06,-0.04 0.08,-0.05 0.05,0.03 0.09,0.09 0.12,0.16 0.03,0 0.05,-0.02 0.05,-0.05 0,-0.04 -0.04,-0.1 -0.12,-0.17 -0.07,-0.08 -0.11,-0.14 -0.11,-0.19 0,-0.04 0.02,-0.08 0.06,-0.1 0.05,-0.03 0.1,-0.04 0.16,-0.04 0.06,0 0.1,0.01 0.14,0.03 0.03,0.02 0.04,0.05 0.04,0.08 0,0.04 -0.03,0.09 -0.09,0.15 0.01,0 0.02,0.01 0.03,0.02 0.01,0.01 0.02,0.03 0.04,0.06 0.02,0.03 0.03,0.06 0.03,0.08zm-0.14 -0.21c0.04,-0.03 0.06,-0.06 0.06,-0.09 0,-0.04 -0.02,-0.05 -0.07,-0.05 -0.02,0 -0.04,0 -0.05,0.01 -0.02,0.01 -0.03,0.02 -0.03,0.03 0,0.02 0.03,0.05 0.07,0.08l0.02 0.02zm0.64 0.21c0,0.06 -0.02,0.11 -0.07,0.14 -0.06,0.04 -0.12,0.06 -0.19,0.06 -0.06,0 -0.12,-0.02 -0.16,-0.04 -0.04,-0.03 -0.06,-0.05 -0.06,-0.08 0,-0.01 0.02,-0.03 0.05,-0.06 0.04,-0.03 0.07,-0.04 0.09,-0.05 0.05,0.03 0.09,0.09 0.12,0.16 0.03,0 0.05,-0.02 0.05,-0.05 0,-0.04 -0.04,-0.1 -0.12,-0.17 -0.07,-0.08 -0.11,-0.14 -0.11,-0.19 0,-0.04 0.02,-0.08 0.06,-0.1 0.04,-0.03 0.1,-0.04 0.16,-0.04 0.06,0 0.1,0.01 0.13,0.03 0.03,0.02 0.05,0.05 0.05,0.08 0,0.04 -0.03,0.09 -0.09,0.15 0.01,0 0.02,0.01 0.03,0.02 0.01,0.01 0.02,0.03 0.04,0.06 0.02,0.03 0.02,0.06 0.02,0.08zm-0.13 -0.21c0.04,-0.03 0.06,-0.06 0.06,-0.09 0,-0.04 -0.03,-0.05 -0.07,-0.05 -0.02,0 -0.04,0 -0.06,0.01 -0.01,0.01 -0.02,0.02 -0.02,0.03 0,0.02 0.02,0.05 0.07,0.08l0.02 0.02z"/>
  <path class="fil2" d="M3.4 3.39c-0.07,0 -0.12,-0.01 -0.16,-0.04 -0.03,-0.03 -0.05,-0.07 -0.05,-0.12 0,-0.05 0.02,-0.09 0.07,-0.12 0.04,-0.03 0.09,-0.05 0.15,-0.06 -0.01,-0.02 -0.04,-0.07 -0.11,-0.16 -0.04,0 -0.07,0.01 -0.11,0.01 -0.08,0 -0.14,-0.02 -0.19,-0.06 -0.04,-0.04 -0.07,-0.09 -0.07,-0.16 0,-0.03 0.01,-0.06 0.02,-0.1l0 -0.01c0.04,0 0.07,0 0.09,0.01 -0.01,0.04 -0.02,0.07 -0.02,0.11 0,0.04 0.01,0.07 0.04,0.09 0.03,0.03 0.07,0.04 0.11,0.04 0.02,0 0.05,-0.01 0.08,-0.01 -0.04,-0.07 -0.07,-0.13 -0.07,-0.19 0,-0.06 0.03,-0.12 0.09,-0.16 0.06,-0.04 0.13,-0.06 0.2,-0.06 0.07,0 0.13,0.02 0.17,0.05 0.04,0.03 0.06,0.07 0.06,0.12 0,0.05 -0.02,0.09 -0.05,0.13 -0.04,0.04 -0.08,0.08 -0.13,0.1 0.07,0.08 0.12,0.17 0.14,0.25 0.08,0.01 0.16,0.03 0.24,0.06 -0.01,0.04 -0.03,0.08 -0.04,0.1 -0.02,-0.02 -0.05,-0.04 -0.08,-0.05 -0.04,-0.02 -0.07,-0.03 -0.11,-0.03l0 0c0,0.07 -0.02,0.14 -0.08,0.19 -0.06,0.05 -0.12,0.07 -0.19,0.07zm0.07 -0.66c0.03,-0.02 0.07,-0.04 0.1,-0.07 0.03,-0.03 0.04,-0.06 0.04,-0.08 0,-0.03 -0.01,-0.05 -0.03,-0.06 -0.02,-0.02 -0.05,-0.02 -0.08,-0.02 -0.04,0 -0.07,0 -0.09,0.02 -0.02,0.01 -0.03,0.03 -0.03,0.05 0,0.01 0,0.03 0.01,0.04 0.01,0.02 0.02,0.03 0.02,0.04 0.01,0.01 0.01,0.02 0.02,0.03 0,0.01 0.01,0.01 0.01,0.02 0.01,0 0.02,0.01 0.03,0.03zm-0.11 0.56c0.03,0 0.05,-0.01 0.07,-0.03 0.02,-0.02 0.03,-0.05 0.03,-0.07 0,-0.03 0,-0.05 -0.01,-0.07 -0.04,0 -0.07,0.01 -0.11,0.03 -0.04,0.02 -0.06,0.05 -0.06,0.07 0,0.02 0.01,0.04 0.02,0.05 0.02,0.02 0.04,0.02 0.06,0.02zm0.94 -0.49c0,0 0.01,-0.01 0.02,-0.03 0.04,0 0.1,0.01 0.18,0.04 -0.03,0.07 -0.05,0.15 -0.06,0.23 -0.01,0.08 -0.02,0.14 -0.02,0.18 0,0.03 0,0.05 0.01,0.05 0,0 0.03,-0.01 0.06,-0.03l0.02 -0.01 0.03 0.05c-0.01,0.01 -0.02,0.02 -0.04,0.03 -0.01,0.01 -0.04,0.02 -0.08,0.04 -0.03,0.02 -0.07,0.03 -0.1,0.03 -0.06,0 -0.09,-0.03 -0.1,-0.08 -0.06,0.05 -0.12,0.08 -0.17,0.08 -0.05,0 -0.09,-0.02 -0.12,-0.05 -0.04,-0.04 -0.05,-0.1 -0.05,-0.17 0,-0.13 0.02,-0.22 0.08,-0.29 0.05,-0.07 0.11,-0.1 0.19,-0.1 0.05,0 0.1,0.01 0.15,0.03zm-0.16 0.47c0.02,0 0.05,-0.01 0.07,-0.03 0.01,-0.13 0.03,-0.25 0.07,-0.38 -0.03,-0.01 -0.05,-0.02 -0.07,-0.02 -0.04,0 -0.06,0.04 -0.09,0.1 -0.02,0.06 -0.04,0.13 -0.04,0.21 0,0.08 0.02,0.12 0.06,0.12zm0.85 -0.08c0,0.05 -0.03,0.1 -0.08,0.14 -0.06,0.03 -0.12,0.05 -0.18,0.05 -0.07,0 -0.13,-0.01 -0.17,-0.04 -0.04,-0.03 -0.05,-0.05 -0.05,-0.07 0,-0.01 0.01,-0.04 0.05,-0.06 0.03,-0.03 0.06,-0.05 0.08,-0.06 0.05,0.04 0.09,0.09 0.12,0.16 0.03,0 0.05,-0.02 0.05,-0.04 0,-0.05 -0.04,-0.11 -0.12,-0.18 -0.07,-0.08 -0.11,-0.14 -0.11,-0.18 0,-0.05 0.02,-0.08 0.06,-0.11 0.05,-0.02 0.1,-0.03 0.16,-0.03 0.06,0 0.1,0.01 0.13,0.03 0.03,0.02 0.05,0.04 0.05,0.08 0,0.03 -0.03,0.08 -0.09,0.14 0.01,0.01 0.02,0.02 0.03,0.03 0.01,0.01 0.02,0.03 0.04,0.06 0.02,0.02 0.03,0.05 0.03,0.08zm-0.14 -0.22c0.04,-0.03 0.06,-0.06 0.06,-0.09 0,-0.03 -0.02,-0.05 -0.07,-0.05 -0.02,0 -0.04,0.01 -0.05,0.01 -0.02,0.01 -0.03,0.02 -0.03,0.03 0,0.02 0.03,0.05 0.07,0.09l0.02 0.01zm0.64 0.22c0,0.05 -0.02,0.1 -0.08,0.14 -0.05,0.03 -0.11,0.05 -0.18,0.05 -0.06,0 -0.12,-0.01 -0.16,-0.04 -0.04,-0.03 -0.06,-0.05 -0.06,-0.07 0,-0.01 0.02,-0.04 0.05,-0.06 0.04,-0.03 0.06,-0.05 0.09,-0.06 0.05,0.04 0.08,0.09 0.12,0.16 0.03,0 0.05,-0.02 0.05,-0.04 0,-0.05 -0.04,-0.11 -0.12,-0.18 -0.08,-0.08 -0.11,-0.14 -0.11,-0.18 0,-0.05 0.02,-0.08 0.06,-0.11 0.04,-0.02 0.1,-0.03 0.16,-0.03 0.06,0 0.1,0.01 0.13,0.03 0.03,0.02 0.05,0.04 0.05,0.08 0,0.03 -0.03,0.08 -0.09,0.14 0.01,0.01 0.02,0.02 0.03,0.03 0.01,0.01 0.02,0.03 0.04,0.06 0.02,0.02 0.02,0.05 0.02,0.08zm-0.13 -0.22c0.04,-0.03 0.06,-0.06 0.06,-0.09 0,-0.03 -0.03,-0.05 -0.07,-0.05 -0.02,0 -0.04,0.01 -0.06,0.01 -0.01,0.01 -0.02,0.02 -0.02,0.03 0,0.02 0.02,0.05 0.07,0.09l0.02 0.01z"/>
  <path class="fil3" d="M3.73 1.1c-0.1,0 -0.17,-0.03 -0.23,-0.1 -0.06,-0.06 -0.09,-0.15 -0.09,-0.26 0,-0.11 0.02,-0.21 0.06,-0.3 0.04,-0.1 0.1,-0.17 0.17,-0.23 0.08,-0.05 0.16,-0.08 0.25,-0.08 0.04,0 0.07,0 0.1,0.01 0.06,-0.04 0.14,-0.06 0.21,-0.06 0.03,0 0.07,0 0.1,0.01 0.03,0.01 0.05,0.02 0.06,0.04 -0.01,0.03 -0.02,0.06 -0.03,0.08 -0.05,-0.03 -0.09,-0.05 -0.14,-0.05 -0.05,0 -0.09,0.01 -0.13,0.03 0.05,0.05 0.07,0.11 0.07,0.19 0,0.08 -0.02,0.16 -0.07,0.23 -0.04,0.06 -0.1,0.1 -0.17,0.1 -0.04,0 -0.07,-0.02 -0.1,-0.05 -0.02,-0.03 -0.04,-0.07 -0.04,-0.12 0,-0.12 0.05,-0.23 0.14,-0.32 -0.07,0 -0.13,0.05 -0.18,0.14 -0.05,0.09 -0.07,0.2 -0.07,0.33 0,0.18 0.06,0.28 0.17,0.28 0.08,0 0.16,-0.05 0.25,-0.14l0.05 0.04c-0.01,0.02 -0.03,0.04 -0.06,0.08 -0.03,0.03 -0.06,0.05 -0.08,0.07 -0.03,0.02 -0.07,0.04 -0.11,0.06 -0.05,0.02 -0.09,0.02 -0.13,0.02zm0.3 -0.7c0,-0.08 -0.02,-0.13 -0.05,-0.16 -0.04,0.04 -0.08,0.08 -0.1,0.13 -0.03,0.05 -0.04,0.11 -0.04,0.16 0,0.03 0.01,0.05 0.02,0.07 0.01,0.02 0.02,0.03 0.04,0.03 0.04,0 0.07,-0.03 0.09,-0.08 0.03,-0.05 0.04,-0.1 0.04,-0.15zm0.57 0.51c0,0.06 -0.02,0.1 -0.08,0.14 -0.05,0.04 -0.11,0.05 -0.18,0.05 -0.06,0 -0.12,-0.01 -0.16,-0.04 -0.04,-0.02 -0.06,-0.05 -0.06,-0.07 0,-0.01 0.02,-0.03 0.05,-0.06 0.04,-0.03 0.07,-0.04 0.09,-0.05 0.05,0.03 0.08,0.09 0.12,0.16 0.03,-0.01 0.05,-0.02 0.05,-0.05 0,-0.04 -0.04,-0.1 -0.12,-0.18 -0.07,-0.07 -0.11,-0.13 -0.11,-0.18 0,-0.04 0.02,-0.08 0.06,-0.1 0.04,-0.03 0.1,-0.04 0.16,-0.04 0.06,0 0.1,0.01 0.13,0.03 0.03,0.02 0.05,0.05 0.05,0.08 0,0.04 -0.03,0.09 -0.09,0.15 0.01,0 0.02,0.01 0.03,0.02 0.01,0.01 0.02,0.03 0.04,0.06 0.02,0.03 0.02,0.06 0.02,0.08zm-0.13 -0.21c0.04,-0.03 0.06,-0.06 0.06,-0.1 0,-0.03 -0.03,-0.04 -0.07,-0.04 -0.02,0 -0.04,0 -0.06,0.01 -0.01,0.01 -0.02,0.02 -0.02,0.03 0,0.02 0.02,0.05 0.07,0.08l0.02 0.02zm0.64 0.21c0,0.06 -0.02,0.1 -0.08,0.14 -0.05,0.04 -0.11,0.05 -0.18,0.05 -0.07,0 -0.12,-0.01 -0.16,-0.04 -0.04,-0.02 -0.06,-0.05 -0.06,-0.07 0,-0.01 0.02,-0.03 0.05,-0.06 0.03,-0.03 0.06,-0.04 0.09,-0.05 0.04,0.03 0.08,0.09 0.11,0.16 0.04,-0.01 0.06,-0.02 0.06,-0.05 0,-0.04 -0.04,-0.1 -0.12,-0.18 -0.08,-0.07 -0.12,-0.13 -0.12,-0.18 0,-0.04 0.03,-0.08 0.07,-0.1 0.04,-0.03 0.09,-0.04 0.15,-0.04 0.06,0 0.11,0.01 0.14,0.03 0.03,0.02 0.05,0.05 0.05,0.08 0,0.04 -0.03,0.09 -0.09,0.15 0.01,0 0.01,0.01 0.02,0.02 0.02,0.01 0.03,0.03 0.05,0.06 0.01,0.03 0.02,0.06 0.02,0.08zm-0.14 -0.21c0.04,-0.03 0.06,-0.06 0.06,-0.1 0,-0.03 -0.02,-0.04 -0.06,-0.04 -0.03,0 -0.04,0 -0.06,0.01 -0.01,0.01 -0.02,0.02 -0.02,0.03 0,0.02 0.02,0.05 0.06,0.08l0.02 0.02z"/>
  <path class="fil4" d="M3.7 4.66c-0.1,0 -0.17,-0.04 -0.23,-0.11 -0.06,-0.06 -0.09,-0.15 -0.09,-0.26 0,-0.11 0.02,-0.21 0.06,-0.3 0.04,-0.09 0.1,-0.17 0.18,-0.23 0.07,-0.05 0.16,-0.08 0.25,-0.08 0.03,0 0.06,0 0.09,0.01 0.07,-0.04 0.14,-0.06 0.21,-0.06 0.04,0 0.07,0 0.1,0.01 0.03,0.01 0.05,0.02 0.06,0.04 0,0.03 -0.02,0.06 -0.03,0.08 -0.05,-0.03 -0.09,-0.05 -0.14,-0.05 -0.04,0 -0.09,0.01 -0.12,0.03 0.04,0.05 0.06,0.11 0.06,0.19 0,0.08 -0.02,0.16 -0.07,0.23 -0.04,0.06 -0.1,0.1 -0.17,0.1 -0.04,0 -0.07,-0.02 -0.1,-0.05 -0.02,-0.03 -0.03,-0.07 -0.03,-0.12 0,-0.12 0.04,-0.23 0.13,-0.32 -0.07,0 -0.13,0.05 -0.18,0.14 -0.05,0.09 -0.07,0.2 -0.07,0.33 0,0.18 0.06,0.28 0.17,0.28 0.08,0 0.16,-0.05 0.25,-0.14l0.05 0.04c-0.01,0.02 -0.03,0.05 -0.06,0.08 -0.03,0.03 -0.05,0.05 -0.08,0.07 -0.03,0.02 -0.07,0.04 -0.11,0.06 -0.04,0.02 -0.09,0.03 -0.13,0.03zm0.3 -0.71c0,-0.08 -0.01,-0.13 -0.05,-0.16 -0.04,0.04 -0.07,0.08 -0.1,0.13 -0.02,0.05 -0.04,0.11 -0.04,0.16 0,0.03 0.01,0.05 0.02,0.07 0.01,0.02 0.02,0.03 0.04,0.03 0.04,0 0.07,-0.03 0.1,-0.08 0.02,-0.05 0.03,-0.1 0.03,-0.15z"/>
  <path class="fil4" d="M4.58 4.46c0,0.06 -0.03,0.11 -0.08,0.14 -0.06,0.04 -0.12,0.06 -0.18,0.06 -0.07,0 -0.13,-0.02 -0.16,-0.05 -0.04,-0.02 -0.06,-0.05 -0.06,-0.07 0,-0.01 0.01,-0.03 0.05,-0.06 0.03,-0.03 0.06,-0.04 0.08,-0.05 0.05,0.03 0.09,0.09 0.12,0.16 0.03,-0.01 0.05,-0.02 0.05,-0.05 0,-0.04 -0.04,-0.1 -0.12,-0.18 -0.07,-0.07 -0.11,-0.13 -0.11,-0.18 0,-0.04 0.02,-0.08 0.06,-0.1 0.05,-0.03 0.1,-0.04 0.16,-0.04 0.06,0 0.1,0.01 0.14,0.03 0.03,0.02 0.04,0.05 0.04,0.08 0,0.04 -0.03,0.09 -0.09,0.15 0.01,0 0.02,0.01 0.03,0.02 0.01,0.01 0.02,0.03 0.04,0.06 0.02,0.03 0.03,0.06 0.03,0.08zm-0.14 -0.21c0.04,-0.03 0.06,-0.06 0.06,-0.1 0,-0.03 -0.02,-0.04 -0.07,-0.04 -0.02,0 -0.04,0 -0.05,0.01 -0.02,0.01 -0.03,0.02 -0.03,0.03 0,0.02 0.03,0.05 0.07,0.08l0.02 0.02z"/>
  <path class="fil4" d="M5.08 4.46c0,0.06 -0.02,0.11 -0.07,0.14 -0.06,0.04 -0.12,0.06 -0.19,0.06 -0.06,0 -0.12,-0.02 -0.16,-0.05 -0.04,-0.02 -0.06,-0.05 -0.06,-0.07 0,-0.01 0.02,-0.03 0.05,-0.06 0.04,-0.03 0.07,-0.04 0.09,-0.05 0.05,0.03 0.08,0.09 0.12,0.16 0.03,-0.01 0.05,-0.02 0.05,-0.05 0,-0.04 -0.04,-0.1 -0.12,-0.18 -0.07,-0.07 -0.11,-0.13 -0.11,-0.18 0,-0.04 0.02,-0.08 0.06,-0.1 0.04,-0.03 0.1,-0.04 0.16,-0.04 0.06,0 0.1,0.01 0.13,0.03 0.03,0.02 0.05,0.05 0.05,0.08 0,0.04 -0.03,0.09 -0.09,0.15 0.01,0 0.02,0.01 0.03,0.02 0.01,0.01 0.02,0.03 0.04,0.06 0.02,0.03 0.02,0.06 0.02,0.08zm-0.13 -0.21c0.04,-0.03 0.06,-0.06 0.06,-0.1 0,-0.03 -0.03,-0.04 -0.07,-0.04 -0.02,0 -0.04,0 -0.06,0.01 -0.01,0.01 -0.02,0.02 -0.02,0.03 0,0.02 0.02,0.05 0.07,0.08l0.02 0.02z"/>
  <path class="fil5" d="M5.48 4.02l0 0.19c-0.02,0.01 -0.06,0.01 -0.12,0.01l-0.01 0 0 -0.2 -0.2 0c0,-0.06 0,-0.1 0.01,-0.12l0.19 0 0 -0.19c0.03,-0.01 0.07,-0.01 0.13,-0.01l0 0.2 0.21 0c0,0.07 0,0.11 0,0.12l-0.21 0z"/>
  <path class="fil6" d="M3.49 2.27c-0.07,0 -0.13,-0.02 -0.16,-0.05 -0.04,-0.03 -0.06,-0.07 -0.06,-0.11 0,-0.05 0.03,-0.09 0.07,-0.12 0.05,-0.03 0.1,-0.05 0.16,-0.07 -0.01,-0.01 -0.05,-0.07 -0.11,-0.16 -0.04,0.01 -0.08,0.02 -0.11,0.02 -0.08,0 -0.15,-0.02 -0.19,-0.06 -0.05,-0.04 -0.07,-0.1 -0.07,-0.16 0,-0.03 0,-0.07 0.01,-0.1l0.01 -0.02c0.03,0 0.07,0.01 0.09,0.02 -0.01,0.03 -0.02,0.07 -0.02,0.11 0,0.04 0.01,0.07 0.04,0.09 0.03,0.02 0.07,0.03 0.11,0.03 0.02,0 0.05,0 0.08,-0.01 -0.05,-0.07 -0.07,-0.13 -0.07,-0.18 0,-0.07 0.03,-0.12 0.09,-0.16 0.06,-0.04 0.12,-0.06 0.2,-0.06 0.07,0 0.13,0.02 0.17,0.05 0.04,0.03 0.06,0.07 0.06,0.12 0,0.05 -0.02,0.09 -0.06,0.13 -0.03,0.04 -0.08,0.07 -0.12,0.1 0.07,0.08 0.11,0.16 0.14,0.25 0.08,0.01 0.16,0.03 0.24,0.05 -0.02,0.05 -0.03,0.08 -0.04,0.1 -0.02,-0.01 -0.05,-0.03 -0.09,-0.04 -0.03,-0.02 -0.07,-0.03 -0.1,-0.03l0 0c0,0.07 -0.03,0.13 -0.09,0.18 -0.05,0.05 -0.12,0.08 -0.18,0.08zm0.06 -0.67c0.04,-0.01 0.07,-0.04 0.1,-0.06 0.03,-0.03 0.05,-0.06 0.05,-0.09 0,-0.02 -0.01,-0.04 -0.04,-0.06 -0.02,-0.01 -0.04,-0.02 -0.08,-0.02 -0.03,0 -0.06,0.01 -0.08,0.02 -0.02,0.02 -0.03,0.03 -0.03,0.06 0,0.01 0,0.03 0.01,0.04 0.01,0.02 0.01,0.03 0.02,0.04 0,0.01 0.01,0.01 0.01,0.02 0.01,0.01 0.02,0.02 0.02,0.03 0.01,0 0.01,0.01 0.02,0.02zm-0.1 0.57c0.03,0 0.05,-0.01 0.07,-0.03 0.02,-0.03 0.03,-0.05 0.03,-0.08 0,-0.02 -0.01,-0.04 -0.01,-0.06 -0.04,0 -0.08,0.01 -0.11,0.03 -0.04,0.02 -0.06,0.04 -0.06,0.07 0,0.02 0.01,0.04 0.02,0.05 0.02,0.01 0.04,0.02 0.06,0.02zm0.84 -0.46c-0.04,0 -0.07,0.03 -0.09,0.09 -0.02,0.06 -0.04,0.12 -0.04,0.19 0,0.11 0.04,0.16 0.11,0.16 0.02,0 0.05,0 0.07,-0.01 0.03,-0.01 0.05,-0.02 0.06,-0.03l0.03 -0.02 0.03 0.04c-0.01,0.01 -0.02,0.03 -0.05,0.04 -0.02,0.02 -0.04,0.03 -0.06,0.04 -0.02,0.01 -0.05,0.02 -0.08,0.03 -0.03,0.01 -0.06,0.02 -0.09,0.02 -0.08,0 -0.13,-0.03 -0.17,-0.07 -0.04,-0.05 -0.05,-0.11 -0.05,-0.19 0,-0.1 0.03,-0.19 0.09,-0.26 0.06,-0.06 0.14,-0.1 0.24,-0.1 0.06,0 0.11,0.02 0.15,0.04 0.04,0.03 0.06,0.06 0.06,0.1 0,0.04 -0.01,0.08 -0.04,0.11 -0.02,0 -0.05,-0.01 -0.08,-0.02 -0.04,-0.01 -0.06,-0.02 -0.08,-0.03l0.03 -0.12c-0.01,-0.01 -0.02,-0.01 -0.04,-0.01zm0.7 0.35c0,0.06 -0.02,0.11 -0.08,0.14 -0.05,0.04 -0.11,0.06 -0.18,0.06 -0.06,0 -0.12,-0.02 -0.16,-0.04 -0.04,-0.03 -0.06,-0.06 -0.06,-0.08 0,-0.01 0.02,-0.03 0.05,-0.06 0.04,-0.03 0.06,-0.04 0.09,-0.05 0.05,0.03 0.08,0.09 0.12,0.16 0.03,0 0.05,-0.02 0.05,-0.05 0,-0.04 -0.04,-0.1 -0.12,-0.17 -0.08,-0.08 -0.11,-0.14 -0.11,-0.19 0,-0.04 0.02,-0.08 0.06,-0.1 0.04,-0.03 0.1,-0.04 0.16,-0.04 0.06,0 0.1,0.01 0.13,0.03 0.03,0.02 0.05,0.05 0.05,0.08 0,0.04 -0.03,0.09 -0.09,0.15 0.01,0 0.02,0.01 0.03,0.02 0.01,0.01 0.02,0.03 0.04,0.06 0.02,0.03 0.02,0.06 0.02,0.08zm-0.13 -0.21c0.04,-0.03 0.06,-0.06 0.06,-0.09 0,-0.04 -0.03,-0.05 -0.07,-0.05 -0.02,0 -0.04,0 -0.06,0.01 -0.01,0.01 -0.02,0.02 -0.02,0.03 0,0.02 0.02,0.05 0.07,0.08l0.02 0.02zm0.64 0.21c0,0.06 -0.02,0.11 -0.08,0.14 -0.05,0.04 -0.11,0.06 -0.18,0.06 -0.07,0 -0.12,-0.02 -0.16,-0.04 -0.04,-0.03 -0.06,-0.06 -0.06,-0.08 0,-0.01 0.02,-0.03 0.05,-0.06 0.03,-0.03 0.06,-0.04 0.09,-0.05 0.04,0.03 0.08,0.09 0.11,0.16 0.04,0 0.06,-0.02 0.06,-0.05 0,-0.04 -0.04,-0.1 -0.12,-0.17 -0.08,-0.08 -0.12,-0.14 -0.12,-0.19 0,-0.04 0.03,-0.08 0.07,-0.1 0.04,-0.03 0.09,-0.04 0.15,-0.04 0.06,0 0.11,0.01 0.14,0.03 0.03,0.02 0.05,0.05 0.05,0.08 0,0.04 -0.03,0.09 -0.09,0.15 0.01,0 0.01,0.01 0.02,0.02 0.02,0.01 0.03,0.03 0.05,0.06 0.01,0.03 0.02,0.06 0.02,0.08zm-0.14 -0.21c0.04,-0.03 0.06,-0.06 0.06,-0.09 0,-0.04 -0.02,-0.05 -0.06,-0.05 -0.03,0 -0.04,0 -0.06,0.01 -0.01,0.01 -0.02,0.02 -0.02,0.03 0,0.02 0.02,0.05 0.06,0.08l0.02 0.02z"/>
  <path class="fil7" d="M3.45 3.45c-0.07,0 -0.12,-0.01 -0.16,-0.04 -0.04,-0.03 -0.06,-0.07 -0.06,-0.12 0,-0.05 0.03,-0.09 0.07,-0.12 0.05,-0.03 0.1,-0.05 0.16,-0.06 -0.01,-0.02 -0.05,-0.07 -0.11,-0.16 -0.04,0 -0.08,0.01 -0.11,0.01 -0.08,0 -0.15,-0.02 -0.19,-0.06 -0.05,-0.04 -0.07,-0.09 -0.07,-0.16 0,-0.03 0,-0.06 0.01,-0.1l0.01 -0.01c0.04,0 0.07,0 0.09,0.01 -0.01,0.04 -0.02,0.07 -0.02,0.11 0,0.04 0.01,0.07 0.04,0.09 0.03,0.02 0.07,0.04 0.11,0.04 0.02,0 0.05,-0.01 0.08,-0.01 -0.05,-0.07 -0.07,-0.13 -0.07,-0.19 0,-0.06 0.03,-0.12 0.09,-0.16 0.06,-0.04 0.12,-0.06 0.2,-0.06 0.07,0 0.13,0.02 0.17,0.05 0.04,0.03 0.06,0.07 0.06,0.12 0,0.05 -0.02,0.09 -0.06,0.13 -0.03,0.04 -0.07,0.08 -0.12,0.1 0.07,0.08 0.11,0.17 0.14,0.25 0.08,0.01 0.16,0.03 0.24,0.06 -0.02,0.04 -0.03,0.08 -0.04,0.1 -0.02,-0.02 -0.05,-0.04 -0.09,-0.05 -0.03,-0.02 -0.07,-0.03 -0.1,-0.03l0 0c0,0.07 -0.03,0.13 -0.09,0.19 -0.05,0.05 -0.12,0.07 -0.18,0.07zm0.06 -0.66c0.04,-0.02 0.07,-0.04 0.1,-0.07 0.03,-0.03 0.05,-0.06 0.05,-0.08 0,-0.03 -0.01,-0.05 -0.04,-0.06 -0.02,-0.02 -0.04,-0.03 -0.08,-0.03 -0.03,0 -0.06,0.01 -0.08,0.03 -0.02,0.01 -0.03,0.03 -0.03,0.05 0,0.01 0,0.03 0.01,0.04 0.01,0.02 0.01,0.03 0.02,0.04 0,0.01 0.01,0.02 0.02,0.03 0,0.01 0.01,0.01 0.01,0.02 0.01,0 0.01,0.01 0.02,0.03zm-0.1 0.56c0.03,0 0.05,-0.01 0.07,-0.03 0.02,-0.02 0.03,-0.05 0.03,-0.07 0,-0.03 0,-0.05 -0.01,-0.07 -0.04,0 -0.08,0.01 -0.11,0.03 -0.04,0.02 -0.06,0.05 -0.06,0.07 0,0.02 0.01,0.04 0.02,0.05 0.02,0.02 0.04,0.02 0.06,0.02zm0.94 -0.49c0,0 0.01,-0.01 0.01,-0.03 0.05,0 0.11,0.01 0.18,0.04 -0.02,0.07 -0.04,0.15 -0.05,0.23 -0.02,0.08 -0.02,0.14 -0.02,0.18 0,0.03 0,0.05 0.01,0.05 0,0 0.02,-0.01 0.06,-0.03l0.02 -0.01 0.02 0.05c-0.01,0.01 -0.02,0.02 -0.03,0.03 -0.01,0.01 -0.04,0.02 -0.08,0.04 -0.04,0.02 -0.07,0.03 -0.1,0.03 -0.06,0 -0.1,-0.03 -0.1,-0.08 -0.07,0.05 -0.12,0.08 -0.17,0.08 -0.05,0 -0.09,-0.02 -0.12,-0.05 -0.04,-0.04 -0.06,-0.1 -0.06,-0.17 0,-0.13 0.03,-0.22 0.08,-0.29 0.06,-0.07 0.12,-0.1 0.19,-0.1 0.06,0 0.11,0.01 0.16,0.03zm-0.17 0.46c0.03,0 0.05,0 0.08,-0.02 0.01,-0.13 0.03,-0.25 0.07,-0.38 -0.03,-0.01 -0.05,-0.02 -0.07,-0.02 -0.04,0 -0.07,0.04 -0.09,0.1 -0.03,0.06 -0.04,0.13 -0.04,0.21 0,0.08 0.02,0.11 0.05,0.11zm0.85 -0.07c0,0.05 -0.02,0.1 -0.08,0.14 -0.05,0.03 -0.11,0.05 -0.18,0.05 -0.06,0 -0.12,-0.01 -0.16,-0.04 -0.04,-0.03 -0.06,-0.05 -0.06,-0.07 0,-0.01 0.02,-0.04 0.05,-0.06 0.04,-0.03 0.06,-0.05 0.09,-0.06 0.04,0.04 0.08,0.09 0.11,0.16 0.04,0 0.06,-0.02 0.06,-0.05 0,-0.04 -0.04,-0.1 -0.12,-0.17 -0.08,-0.08 -0.11,-0.14 -0.11,-0.18 0,-0.05 0.02,-0.08 0.06,-0.11 0.04,-0.02 0.09,-0.03 0.16,-0.03 0.06,0 0.1,0.01 0.13,0.03 0.03,0.02 0.05,0.04 0.05,0.08 0,0.03 -0.03,0.08 -0.09,0.14 0.01,0.01 0.02,0.02 0.03,0.03 0.01,0.01 0.02,0.03 0.04,0.06 0.01,0.02 0.02,0.05 0.02,0.08zm-0.13 -0.22c0.04,-0.03 0.06,-0.06 0.06,-0.09 0,-0.03 -0.03,-0.05 -0.07,-0.05 -0.02,0 -0.04,0.01 -0.06,0.01 -0.01,0.01 -0.02,0.02 -0.02,0.03 0,0.02 0.02,0.05 0.06,0.09l0.03 0.01zm0.64 0.22c0,0.05 -0.03,0.1 -0.08,0.14 -0.05,0.03 -0.11,0.05 -0.18,0.05 -0.07,0 -0.12,-0.01 -0.16,-0.04 -0.04,-0.03 -0.06,-0.05 -0.06,-0.07 0,-0.01 0.02,-0.04 0.05,-0.06 0.03,-0.03 0.06,-0.05 0.09,-0.06 0.04,0.04 0.08,0.09 0.11,0.16 0.04,0 0.06,-0.02 0.06,-0.05 0,-0.04 -0.04,-0.1 -0.12,-0.17 -0.08,-0.08 -0.12,-0.14 -0.12,-0.18 0,-0.05 0.03,-0.08 0.07,-0.11 0.04,-0.02 0.09,-0.03 0.15,-0.03 0.06,0 0.11,0.01 0.14,0.03 0.03,0.02 0.05,0.04 0.05,0.08 0,0.03 -0.03,0.08 -0.09,0.14 0.01,0.01 0.01,0.02 0.02,0.03 0.01,0.01 0.03,0.03 0.05,0.06 0.01,0.02 0.02,0.05 0.02,0.08zm-0.14 -0.22c0.04,-0.03 0.06,-0.06 0.06,-0.09 0,-0.03 -0.02,-0.05 -0.06,-0.05 -0.03,0 -0.04,0.01 -0.06,0.01 -0.01,0.01 -0.02,0.02 -0.02,0.03 0,0.02 0.02,0.05 0.06,0.09l0.02 0.01z"/>
  <path class="fil2 str0" d="M6.56 1.1c-0.09,0 -0.17,-0.03 -0.22,-0.1 -0.06,-0.07 -0.09,-0.15 -0.09,-0.27 0,-0.11 0.02,-0.21 0.06,-0.3 0.04,-0.09 0.1,-0.16 0.17,-0.22 0.08,-0.06 0.16,-0.08 0.25,-0.08 0.04,0 0.07,0 0.09,0.01 0.07,-0.04 0.14,-0.06 0.22,-0.06 0.03,0 0.06,0 0.09,0.01 0.03,0.01 0.06,0.02 0.07,0.04 -0.01,0.03 -0.02,0.05 -0.04,0.08 -0.04,-0.03 -0.09,-0.05 -0.13,-0.05 -0.05,0 -0.09,0.01 -0.13,0.03 0.05,0.04 0.07,0.11 0.07,0.19 0,0.08 -0.02,0.16 -0.07,0.22 -0.05,0.07 -0.1,0.1 -0.17,0.1 -0.04,0 -0.08,-0.01 -0.1,-0.04 -0.03,-0.04 -0.04,-0.08 -0.04,-0.13 0,-0.11 0.05,-0.22 0.14,-0.31 -0.08,0 -0.14,0.05 -0.18,0.14 -0.05,0.09 -0.07,0.2 -0.07,0.32 0,0.19 0.05,0.28 0.17,0.28 0.08,0 0.16,-0.04 0.25,-0.13l0.05 0.04c-0.01,0.02 -0.03,0.04 -0.06,0.07 -0.03,0.03 -0.06,0.06 -0.09,0.08 -0.02,0.02 -0.06,0.04 -0.1,0.06 -0.05,0.01 -0.09,0.02 -0.14,0.02zm0.31 -0.71c0,-0.07 -0.02,-0.12 -0.05,-0.15 -0.04,0.04 -0.08,0.08 -0.1,0.13 -0.03,0.05 -0.04,0.1 -0.04,0.16 0,0.02 0,0.05 0.02,0.07 0.01,0.01 0.02,0.02 0.04,0.02 0.03,0 0.07,-0.02 0.09,-0.07 0.03,-0.05 0.04,-0.1 0.04,-0.16zm0.57 0.52c0,0.06 -0.02,0.1 -0.08,0.14 -0.05,0.03 -0.11,0.05 -0.18,0.05 -0.07,0 -0.12,-0.01 -0.16,-0.04 -0.04,-0.03 -0.06,-0.05 -0.06,-0.07 0,-0.01 0.02,-0.03 0.05,-0.06 0.04,-0.03 0.06,-0.05 0.09,-0.05 0.04,0.03 0.08,0.08 0.11,0.15 0.04,0 0.06,-0.01 0.06,-0.04 0,-0.04 -0.04,-0.1 -0.12,-0.18 -0.08,-0.08 -0.12,-0.14 -0.12,-0.18 0,-0.05 0.03,-0.08 0.07,-0.11 0.04,-0.02 0.09,-0.03 0.15,-0.03 0.07,0 0.11,0.01 0.14,0.03 0.03,0.02 0.05,0.05 0.05,0.08 0,0.03 -0.03,0.08 -0.09,0.14 0.01,0.01 0.02,0.02 0.03,0.03 0.01,0.01 0.02,0.03 0.04,0.06 0.01,0.03 0.02,0.05 0.02,0.08zm-0.13 -0.21c0.04,-0.04 0.06,-0.07 0.06,-0.1 0,-0.03 -0.03,-0.05 -0.07,-0.05 -0.03,0 -0.04,0.01 -0.06,0.02 -0.01,0 -0.02,0.01 -0.02,0.03 0,0.02 0.02,0.04 0.06,0.08l0.03 0.02zm0.64 0.21c0,0.06 -0.03,0.1 -0.08,0.14 -0.05,0.03 -0.11,0.05 -0.18,0.05 -0.07,0 -0.12,-0.01 -0.16,-0.04 -0.04,-0.03 -0.06,-0.05 -0.06,-0.07 0,-0.01 0.02,-0.03 0.05,-0.06 0.03,-0.03 0.06,-0.05 0.08,-0.05 0.05,0.03 0.09,0.08 0.12,0.15 0.04,0 0.05,-0.01 0.05,-0.04 0,-0.04 -0.03,-0.1 -0.11,-0.18 -0.08,-0.08 -0.12,-0.14 -0.12,-0.18 0,-0.05 0.02,-0.08 0.07,-0.11 0.04,-0.02 0.09,-0.03 0.15,-0.03 0.06,0 0.11,0.01 0.14,0.03 0.03,0.02 0.04,0.05 0.04,0.08 0,0.03 -0.02,0.08 -0.08,0.14 0,0.01 0.01,0.02 0.02,0.03 0.01,0.01 0.03,0.03 0.04,0.06 0.02,0.03 0.03,0.05 0.03,0.08zm-0.14 -0.21c0.04,-0.04 0.06,-0.07 0.06,-0.1 0,-0.03 -0.02,-0.05 -0.07,-0.05 -0.02,0 -0.04,0.01 -0.05,0.02 -0.01,0 -0.02,0.01 -0.02,0.03 0,0.02 0.02,0.04 0.06,0.08l0.02 0.02z"/>
  <path class="fil2 str1" d="M6.54 4.65c-0.1,0 -0.17,-0.03 -0.23,-0.1 -0.06,-0.07 -0.09,-0.15 -0.09,-0.27 0,-0.11 0.02,-0.21 0.06,-0.3 0.04,-0.09 0.1,-0.16 0.18,-0.22 0.07,-0.05 0.15,-0.08 0.25,-0.08 0.03,0 0.06,0 0.09,0.01 0.07,-0.04 0.14,-0.06 0.21,-0.06 0.03,0 0.07,0 0.1,0.01 0.03,0.01 0.05,0.02 0.06,0.04 0,0.03 -0.02,0.05 -0.03,0.08 -0.05,-0.03 -0.09,-0.05 -0.14,-0.05 -0.05,0 -0.09,0.01 -0.13,0.03 0.05,0.04 0.07,0.11 0.07,0.19 0,0.08 -0.02,0.16 -0.07,0.22 -0.04,0.07 -0.1,0.11 -0.17,0.11 -0.04,0 -0.07,-0.02 -0.1,-0.05 -0.02,-0.04 -0.04,-0.08 -0.04,-0.13 0,-0.11 0.05,-0.22 0.14,-0.31 -0.07,0 -0.13,0.05 -0.18,0.14 -0.05,0.09 -0.07,0.2 -0.07,0.32 0,0.19 0.06,0.28 0.17,0.28 0.08,0 0.16,-0.04 0.25,-0.13l0.05 0.04c-0.01,0.02 -0.03,0.04 -0.06,0.07 -0.03,0.03 -0.06,0.06 -0.08,0.08 -0.03,0.02 -0.07,0.04 -0.11,0.06 -0.04,0.01 -0.09,0.02 -0.13,0.02zm0.3 -0.71c0,-0.07 -0.01,-0.12 -0.05,-0.15 -0.04,0.04 -0.08,0.08 -0.1,0.13 -0.03,0.05 -0.04,0.1 -0.04,0.16 0,0.02 0.01,0.05 0.02,0.07 0.01,0.01 0.02,0.02 0.04,0.02 0.04,0 0.07,-0.02 0.09,-0.07 0.03,-0.05 0.04,-0.1 0.04,-0.16z"/>
  <path class="fil2 str1" d="M7.42 4.46c0,0.06 -0.03,0.1 -0.08,0.14 -0.06,0.03 -0.12,0.05 -0.19,0.05 -0.06,0 -0.12,-0.01 -0.16,-0.04 -0.04,-0.03 -0.06,-0.05 -0.06,-0.07 0,-0.01 0.02,-0.03 0.05,-0.06 0.04,-0.03 0.07,-0.05 0.09,-0.05 0.05,0.03 0.09,0.08 0.12,0.15 0.03,0 0.05,-0.01 0.05,-0.04 0,-0.04 -0.04,-0.1 -0.12,-0.18 -0.07,-0.07 -0.11,-0.14 -0.11,-0.18 0,-0.05 0.02,-0.08 0.06,-0.11 0.04,-0.02 0.1,-0.03 0.16,-0.03 0.06,0 0.1,0.01 0.13,0.03 0.03,0.02 0.05,0.05 0.05,0.08 0,0.04 -0.03,0.08 -0.09,0.14 0.01,0.01 0.02,0.02 0.03,0.03 0.01,0.01 0.02,0.03 0.04,0.06 0.02,0.03 0.03,0.05 0.03,0.08zm-0.14 -0.21c0.04,-0.04 0.06,-0.07 0.06,-0.1 0,-0.03 -0.03,-0.05 -0.07,-0.05 -0.02,0 -0.04,0.01 -0.06,0.02 -0.01,0.01 -0.02,0.02 -0.02,0.03 0,0.02 0.02,0.04 0.07,0.08l0.02 0.02z"/>
  <path class="fil2 str1" d="M7.92 4.46c0,0.06 -0.02,0.1 -0.08,0.14 -0.05,0.03 -0.11,0.05 -0.18,0.05 -0.07,0 -0.12,-0.01 -0.16,-0.04 -0.04,-0.03 -0.06,-0.05 -0.06,-0.07 0,-0.01 0.02,-0.03 0.05,-0.06 0.04,-0.03 0.06,-0.05 0.09,-0.05 0.04,0.03 0.08,0.08 0.11,0.15 0.04,0 0.06,-0.01 0.06,-0.04 0,-0.04 -0.04,-0.1 -0.12,-0.18 -0.08,-0.07 -0.11,-0.14 -0.11,-0.18 0,-0.05 0.02,-0.08 0.06,-0.11 0.04,-0.02 0.09,-0.03 0.15,-0.03 0.07,0 0.11,0.01 0.14,0.03 0.03,0.02 0.05,0.05 0.05,0.08 0,0.04 -0.03,0.08 -0.09,0.14 0.01,0.01 0.02,0.02 0.03,0.03 0.01,0.01 0.02,0.03 0.04,0.06 0.01,0.03 0.02,0.05 0.02,0.08zm-0.13 -0.21c0.04,-0.04 0.06,-0.07 0.06,-0.1 0,-0.03 -0.03,-0.05 -0.07,-0.05 -0.02,0 -0.04,0.01 -0.06,0.02 -0.01,0.01 -0.02,0.02 -0.02,0.03 0,0.02 0.02,0.04 0.06,0.08l0.03 0.02z"/>
  <path class="fil2 str0" d="M8.32 4.02l0 0.19c-0.02,0.01 -0.06,0.01 -0.12,0.01l-0.01 0 0 -0.2 -0.2 0c0,-0.06 0,-0.1 0.01,-0.12l0.19 0 0 -0.19c0.03,-0.01 0.07,-0.01 0.13,-0.01l0 0.2 0.21 0c0,0.07 0,0.11 0,0.12l-0.21 0z"/>
  <path class="fil2 str2" d="M6.32 2.27c-0.06,0 -0.12,-0.02 -0.15,-0.05 -0.04,-0.03 -0.06,-0.07 -0.06,-0.12 0,-0.05 0.03,-0.08 0.07,-0.12 0.05,-0.03 0.1,-0.05 0.16,-0.06 -0.01,-0.02 -0.05,-0.07 -0.11,-0.16 -0.04,0.01 -0.08,0.01 -0.12,0.01 -0.08,0 -0.14,-0.02 -0.18,-0.06 -0.05,-0.04 -0.07,-0.09 -0.07,-0.16 0,-0.02 0,-0.06 0.01,-0.09l0 -0.02c0.04,0 0.08,0.01 0.1,0.02 -0.02,0.03 -0.02,0.07 -0.02,0.1 0,0.04 0.01,0.07 0.04,0.1 0.03,0.02 0.07,0.03 0.11,0.03 0.02,0 0.04,0 0.07,-0.01 -0.04,-0.07 -0.06,-0.13 -0.06,-0.18 0,-0.07 0.03,-0.12 0.09,-0.16 0.06,-0.04 0.12,-0.06 0.2,-0.06 0.07,0 0.13,0.01 0.17,0.05 0.04,0.03 0.06,0.07 0.06,0.12 0,0.04 -0.02,0.09 -0.06,0.13 -0.04,0.04 -0.08,0.07 -0.12,0.09 0.07,0.09 0.11,0.17 0.14,0.26 0.08,0.01 0.16,0.03 0.23,0.05 -0.01,0.05 -0.02,0.08 -0.03,0.1 -0.02,-0.02 -0.05,-0.03 -0.09,-0.05 -0.04,-0.01 -0.07,-0.02 -0.1,-0.02l0 0c0,0.07 -0.03,0.13 -0.09,0.18 -0.06,0.05 -0.12,0.08 -0.19,0.08zm0.07 -0.67c0.04,-0.02 0.07,-0.04 0.1,-0.07 0.03,-0.03 0.04,-0.05 0.04,-0.08 0,-0.03 -0.01,-0.05 -0.03,-0.06 -0.02,-0.01 -0.05,-0.02 -0.08,-0.02 -0.03,0 -0.06,0.01 -0.08,0.02 -0.02,0.01 -0.03,0.03 -0.03,0.05 0,0.02 0,0.03 0.01,0.05 0,0.01 0.01,0.03 0.02,0.03 0,0.01 0.01,0.02 0.01,0.03 0.01,0.01 0.02,0.02 0.02,0.02 0,0.01 0.01,0.02 0.02,0.03zm-0.1 0.57c0.02,0 0.05,-0.01 0.07,-0.04 0.02,-0.02 0.03,-0.04 0.03,-0.07 0,-0.02 -0.01,-0.04 -0.01,-0.06 -0.04,0 -0.08,0.01 -0.12,0.03 -0.03,0.02 -0.05,0.04 -0.05,0.07 0,0.02 0.01,0.03 0.02,0.05 0.01,0.01 0.03,0.02 0.06,0.02zm0.84 -0.46c-0.04,0 -0.07,0.03 -0.09,0.09 -0.03,0.06 -0.04,0.12 -0.04,0.19 0,0.11 0.04,0.16 0.11,0.16 0.02,0 0.05,0 0.07,-0.01 0.03,-0.01 0.05,-0.03 0.06,-0.03l0.02 -0.02 0.04 0.04c-0.01,0.01 -0.03,0.02 -0.05,0.04 -0.02,0.02 -0.04,0.03 -0.06,0.04 -0.02,0.01 -0.05,0.02 -0.08,0.03 -0.03,0.01 -0.06,0.01 -0.09,0.01 -0.08,0 -0.13,-0.02 -0.17,-0.07 -0.04,-0.04 -0.06,-0.1 -0.06,-0.18 0,-0.11 0.04,-0.19 0.1,-0.26 0.06,-0.07 0.14,-0.1 0.24,-0.1 0.06,0 0.11,0.01 0.15,0.04 0.04,0.03 0.06,0.06 0.06,0.1 0,0.04 -0.02,0.08 -0.04,0.1 -0.03,0 -0.05,0 -0.09,-0.01 -0.03,-0.01 -0.05,-0.02 -0.07,-0.04l0.02 -0.12c0,0 -0.02,0 -0.03,0zm0.7 0.35c0,0.06 -0.02,0.1 -0.08,0.14 -0.05,0.04 -0.11,0.05 -0.18,0.05 -0.07,0 -0.12,-0.01 -0.16,-0.04 -0.04,-0.02 -0.06,-0.05 -0.06,-0.07 0,-0.01 0.02,-0.03 0.05,-0.06 0.04,-0.03 0.06,-0.05 0.09,-0.05 0.04,0.03 0.08,0.08 0.11,0.16 0.04,-0.01 0.06,-0.02 0.06,-0.05 0,-0.04 -0.04,-0.1 -0.12,-0.18 -0.08,-0.07 -0.12,-0.13 -0.12,-0.18 0,-0.04 0.03,-0.08 0.07,-0.1 0.04,-0.03 0.09,-0.04 0.15,-0.04 0.07,0 0.11,0.01 0.14,0.03 0.03,0.02 0.05,0.05 0.05,0.08 0,0.04 -0.03,0.08 -0.09,0.15 0.01,0 0.01,0.01 0.03,0.02 0.01,0.01 0.02,0.03 0.04,0.06 0.01,0.03 0.02,0.06 0.02,0.08zm-0.13 -0.21c0.04,-0.03 0.06,-0.07 0.06,-0.1 0,-0.03 -0.03,-0.04 -0.07,-0.04 -0.03,0 -0.04,0 -0.06,0.01 -0.01,0.01 -0.02,0.02 -0.02,0.03 0,0.02 0.02,0.04 0.06,0.08l0.03 0.02zm0.64 0.21c0,0.06 -0.03,0.1 -0.08,0.14 -0.05,0.04 -0.11,0.05 -0.18,0.05 -0.07,0 -0.12,-0.01 -0.16,-0.04 -0.04,-0.02 -0.06,-0.05 -0.06,-0.07 0,-0.01 0.02,-0.03 0.05,-0.06 0.03,-0.03 0.06,-0.05 0.08,-0.05 0.05,0.03 0.09,0.08 0.12,0.16 0.04,-0.01 0.05,-0.02 0.05,-0.05 0,-0.04 -0.03,-0.1 -0.11,-0.18 -0.08,-0.07 -0.12,-0.13 -0.12,-0.18 0,-0.04 0.02,-0.08 0.07,-0.1 0.04,-0.03 0.09,-0.04 0.15,-0.04 0.06,0 0.11,0.01 0.14,0.03 0.03,0.02 0.04,0.05 0.04,0.08 0,0.04 -0.02,0.08 -0.08,0.15 0,0 0.01,0.01 0.02,0.02 0.01,0.01 0.03,0.03 0.04,0.06 0.02,0.03 0.03,0.06 0.03,0.08zm-0.14 -0.21c0.04,-0.03 0.06,-0.07 0.06,-0.1 0,-0.03 -0.02,-0.04 -0.07,-0.04 -0.02,0 -0.04,0 -0.05,0.01 -0.01,0.01 -0.02,0.02 -0.02,0.03 0,0.02 0.02,0.04 0.06,0.08l0.02 0.02z"/>
  <path class="fil2 str3" d="M6.28 3.45c-0.06,0 -0.12,-0.01 -0.15,-0.05 -0.04,-0.03 -0.06,-0.07 -0.06,-0.11 0,-0.05 0.03,-0.09 0.07,-0.12 0.05,-0.03 0.1,-0.05 0.16,-0.07 -0.01,-0.01 -0.05,-0.07 -0.11,-0.16 -0.04,0.01 -0.08,0.02 -0.12,0.02 -0.08,0 -0.14,-0.02 -0.18,-0.06 -0.05,-0.04 -0.07,-0.1 -0.07,-0.16 0,-0.03 0,-0.06 0.01,-0.1l0 -0.02c0.04,0 0.08,0.01 0.1,0.02 -0.02,0.03 -0.02,0.07 -0.02,0.11 0,0.04 0.01,0.07 0.04,0.09 0.03,0.02 0.07,0.03 0.11,0.03 0.02,0 0.04,0 0.08,-0.01 -0.05,-0.07 -0.07,-0.13 -0.07,-0.18 0,-0.07 0.03,-0.12 0.09,-0.16 0.06,-0.04 0.12,-0.06 0.2,-0.06 0.07,0 0.13,0.02 0.17,0.05 0.04,0.03 0.06,0.07 0.06,0.12 0,0.05 -0.02,0.09 -0.06,0.13 -0.03,0.04 -0.08,0.07 -0.12,0.1 0.07,0.08 0.11,0.16 0.14,0.25 0.08,0.01 0.16,0.03 0.23,0.06 -0.01,0.04 -0.02,0.07 -0.03,0.09 -0.02,-0.01 -0.05,-0.03 -0.09,-0.04 -0.03,-0.02 -0.07,-0.03 -0.1,-0.03l0 0c0,0.07 -0.03,0.13 -0.09,0.18 -0.05,0.05 -0.12,0.08 -0.19,0.08zm0.07 -0.67c0.04,-0.01 0.07,-0.03 0.1,-0.06 0.03,-0.03 0.05,-0.06 0.05,-0.09 0,-0.02 -0.02,-0.04 -0.04,-0.06 -0.02,-0.01 -0.05,-0.02 -0.08,-0.02 -0.03,0 -0.06,0.01 -0.08,0.02 -0.02,0.02 -0.03,0.03 -0.03,0.06 0,0.01 0,0.03 0.01,0.04 0.01,0.02 0.01,0.03 0.02,0.04 0,0.01 0.01,0.02 0.01,0.02 0.01,0.01 0.02,0.02 0.02,0.03 0,0 0.01,0.01 0.02,0.02zm-0.1 0.57c0.03,0 0.05,-0.01 0.07,-0.03 0.02,-0.03 0.03,-0.05 0.03,-0.08 0,-0.02 -0.01,-0.04 -0.01,-0.06 -0.04,0 -0.08,0.01 -0.11,0.03 -0.04,0.02 -0.06,0.04 -0.06,0.07 0,0.02 0.01,0.04 0.02,0.05 0.02,0.01 0.03,0.02 0.06,0.02zm0.94 -0.49c0,0 0,-0.01 0.01,-0.03 0.05,0 0.11,0.01 0.18,0.03 -0.02,0.08 -0.04,0.16 -0.05,0.24 -0.02,0.08 -0.03,0.14 -0.03,0.17 0,0.04 0.01,0.05 0.02,0.05 0,0 0.02,0 0.06,-0.02l0.02 -0.01 0.02 0.05c-0.01,0.01 -0.02,0.01 -0.03,0.03 -0.02,0.01 -0.04,0.02 -0.08,0.04 -0.04,0.02 -0.07,0.03 -0.1,0.03 -0.06,0 -0.1,-0.03 -0.11,-0.08 -0.06,0.05 -0.11,0.08 -0.16,0.08 -0.05,0 -0.09,-0.02 -0.13,-0.06 -0.03,-0.03 -0.05,-0.09 -0.05,-0.17 0,-0.12 0.03,-0.21 0.08,-0.28 0.05,-0.07 0.12,-0.11 0.19,-0.11 0.06,0 0.11,0.02 0.16,0.04zm-0.17 0.46c0.03,0 0.05,-0.01 0.08,-0.02 0.01,-0.13 0.03,-0.26 0.07,-0.38 -0.03,-0.01 -0.05,-0.02 -0.08,-0.02 -0.03,0 -0.06,0.03 -0.08,0.1 -0.03,0.06 -0.04,0.13 -0.04,0.21 0,0.07 0.02,0.11 0.05,0.11zm0.85 -0.08c0,0.06 -0.02,0.11 -0.08,0.14 -0.05,0.04 -0.11,0.06 -0.18,0.06 -0.07,0 -0.12,-0.02 -0.16,-0.04 -0.04,-0.03 -0.06,-0.05 -0.06,-0.08 0,-0.01 0.02,-0.03 0.05,-0.06 0.03,-0.02 0.06,-0.04 0.09,-0.05 0.04,0.03 0.08,0.09 0.11,0.16 0.04,0 0.06,-0.02 0.06,-0.05 0,-0.04 -0.04,-0.1 -0.12,-0.17 -0.08,-0.08 -0.12,-0.14 -0.12,-0.19 0,-0.04 0.03,-0.08 0.07,-0.1 0.04,-0.03 0.09,-0.04 0.15,-0.04 0.06,0 0.11,0.01 0.14,0.03 0.03,0.02 0.05,0.05 0.05,0.09 0,0.03 -0.03,0.08 -0.09,0.14 0.01,0.01 0.01,0.01 0.02,0.02 0.02,0.01 0.03,0.03 0.05,0.06 0.01,0.03 0.02,0.06 0.02,0.08zm-0.14 -0.21c0.04,-0.03 0.06,-0.06 0.06,-0.09 0,-0.04 -0.02,-0.05 -0.06,-0.05 -0.03,0 -0.04,0 -0.06,0.01 -0.01,0.01 -0.02,0.02 -0.02,0.03 0,0.02 0.02,0.05 0.06,0.08l0.02 0.02zm0.65 0.21c0,0.06 -0.03,0.11 -0.08,0.14 -0.05,0.04 -0.11,0.06 -0.18,0.06 -0.07,0 -0.12,-0.02 -0.16,-0.04 -0.04,-0.03 -0.06,-0.05 -0.06,-0.08 0,-0.01 0.02,-0.03 0.05,-0.06 0.03,-0.02 0.06,-0.04 0.08,-0.05 0.05,0.03 0.09,0.09 0.12,0.16 0.04,0 0.05,-0.02 0.05,-0.05 0,-0.04 -0.03,-0.1 -0.11,-0.17 -0.08,-0.08 -0.12,-0.14 -0.12,-0.19 0,-0.04 0.02,-0.08 0.07,-0.1 0.04,-0.03 0.09,-0.04 0.15,-0.04 0.06,0 0.11,0.01 0.14,0.03 0.03,0.02 0.04,0.05 0.04,0.09 0,0.03 -0.02,0.08 -0.08,0.14 0,0.01 0.01,0.01 0.02,0.02 0.01,0.01 0.03,0.03 0.04,0.06 0.02,0.03 0.03,0.06 0.03,0.08zm-0.14 -0.21c0.04,-0.03 0.06,-0.06 0.06,-0.09 0,-0.04 -0.02,-0.05 -0.07,-0.05 -0.02,0 -0.04,0 -0.05,0.01 -0.01,0.01 -0.02,0.02 -0.02,0.03 0,0.02 0.02,0.05 0.06,0.08l0.02 0.02z"/>
  <rect class="fil8" width="8.52" height="4.73"/>
 </g>
</svg>
