<?xml version="1.0" encoding="UTF-8"?>
<!DOCTYPE svg PUBLIC "-//W3C//DTD SVG 1.1//EN" "http://www.w3.org/Graphics/SVG/1.1/DTD/svg11.dtd">
<!-- Creator: CorelDRAW 2019 (64-Bit) -->
<svg xmlns="http://www.w3.org/2000/svg" xml:space="preserve" width="120px" height="60px" version="1.1" style="shape-rendering:geometricPrecision; text-rendering:geometricPrecision; image-rendering:optimizeQuality; fill-rule:evenodd; clip-rule:evenodd"
viewBox="0 0 3.89 1.94"
 xmlns:xlink="http://www.w3.org/1999/xlink"
 xmlns:xodm="http://www.corel.com/coreldraw/odm/2003">
 <defs>
  <style type="text/css">
   <![CDATA[
    .fil5 {fill:white}
    .fil0 {fill:#333333}
    .fil1 {fill:black}
    .fil4 {fill:#FF6600}
    .fil2 {fill:lime}
    .fil3 {fill:blue}
   ]]>
  </style>
 </defs>
 <g id="Слой_x0020_1">
  <metadata id="CorelCorpID_0Corel-Layer"/>
  <g id="_2920108171760">
   <path class="fil0" d="M0.49 0c0.26,0 0.48,0.22 0.48,0.49 0,0.26 -0.22,0.48 -0.48,0.48 -0.27,0 -0.49,-0.22 -0.49,-0.48 0,-0.27 0.22,-0.49 0.49,-0.49zm0.12 0.46l-0.08 -0.01c-0.01,0 -0.01,-0.12 0,-0.13 0,-0.01 0.05,-0.01 0.06,-0.01 0.02,0 0.05,0 0.07,0.01 0,0 0,0.33 0,0.34 -0.02,0.01 -0.15,0 -0.18,0 -0.03,0 -0.14,0 -0.17,-0.01 0,-0.02 0,-0.36 0,-0.42 -0.05,0 -0.08,0 -0.08,0.06l0 0.39c0,0.06 0.03,0.06 0.08,0.06 0.05,0 0.37,0 0.39,0 0.05,-0.01 0.04,-0.05 0.04,-0.1 0,-0.06 0,-0.36 -0.01,-0.39 -0.01,-0.02 -0.07,-0.02 -0.11,-0.02 -0.17,0 -0.17,-0.01 -0.17,0.09 0,0.05 0,0.09 0,0.13 -0.02,0.01 -0.07,0 -0.09,0.01 0.01,0 0.12,0.12 0.13,0.12l0.12 -0.12z"/>
   <path class="fil0" d="M1.46 0c0.27,0 0.48,0.22 0.48,0.49 0,0.26 -0.21,0.48 -0.48,0.48 -0.27,0 -0.49,-0.22 -0.49,-0.48 0,-0.27 0.22,-0.49 0.49,-0.49zm-0.2 0.28c0.04,0 0.08,0 0.12,0 0.06,0 0.05,-0.01 0.09,0.04 0.02,0.02 0.04,0.04 0.08,0.04 0.02,0 0.1,0 0.13,0l0 0.04 0.04 0c0,-0.03 0.01,-0.06 -0.02,-0.08 -0.02,-0.01 -0.08,0 -0.11,0 -0.04,0 -0.05,0 -0.08,-0.02 -0.02,-0.02 -0.03,-0.04 -0.05,-0.05 -0.03,-0.02 -0.06,-0.02 -0.1,-0.02 -0.03,0 -0.07,0 -0.1,0 -0.02,0 -0.03,0.01 -0.04,0.02 0,0.01 0,0.03 0,0.05l0 0.31c0,0.05 -0.01,0.1 0.03,0.12 0.02,0.01 0.03,0.01 0.05,0.01l0.32 0c0.03,0 0.06,0 0.09,-0.01 0.02,-0.02 0.03,-0.04 0.04,-0.07 0.01,-0.02 0.02,-0.05 0.03,-0.07l0.05 -0.11c0,-0.02 -0.01,-0.04 -0.01,-0.04 -0.02,-0.01 -0.03,-0.02 -0.04,-0.02l-0.27 0c-0.02,0 -0.08,0 -0.09,0.01 -0.02,0.01 -0.03,0.05 -0.04,0.07l-0.06 0.15c-0.01,0.01 -0.01,0.03 -0.02,0.03 -0.01,0.01 -0.02,0.02 -0.03,0.01 -0.01,-0.01 -0.01,-0.03 -0.01,-0.05 0,-0.12 0,-0.25 0,-0.36z"/>
   <path class="fil0" d="M2.43 0c0.27,0 0.49,0.22 0.49,0.49 0,0.26 -0.22,0.48 -0.49,0.48 -0.27,0 -0.49,-0.22 -0.49,-0.48 0,-0.27 0.22,-0.49 0.49,-0.49zm-0.14 0.35c-0.07,0.08 -0.07,0.2 0.01,0.27 0.07,0.08 0.19,0.08 0.27,0 0.06,-0.06 0.07,-0.15 0.03,-0.22l-0.03 0.03 -0.02 -0.09 -0.03 -0.09 0.09 0.03 0.09 0.02 -0.04 0.04c0.07,0.1 0.06,0.25 -0.04,0.34 -0.1,0.11 -0.28,0.11 -0.38,0 -0.11,-0.11 -0.11,-0.28 0,-0.38 0.01,-0.02 0.04,-0.02 0.05,0 0.02,0.01 0.02,0.04 0,0.05z"/>
   <path class="fil1" d="M0.49 0.97c0.26,0 0.48,0.22 0.48,0.49 0,0.27 -0.22,0.48 -0.48,0.48 -0.27,0 -0.49,-0.21 -0.49,-0.48 0,-0.27 0.22,-0.49 0.49,-0.49zm0.12 0.46l-0.08 0c-0.01,-0.01 -0.01,-0.13 0,-0.14 0,-0.01 0.05,0 0.06,0 0.02,0 0.05,-0.01 0.07,0 0,0.01 0,0.33 0,0.34 -0.02,0.01 -0.15,0 -0.18,0 -0.03,0 -0.14,0.01 -0.17,0 0,-0.03 0,-0.37 0,-0.42 -0.05,0 -0.08,-0.01 -0.08,0.05l0 0.39c0,0.06 0.03,0.06 0.08,0.06 0.05,0 0.37,0 0.39,0 0.05,-0.01 0.04,-0.05 0.04,-0.1 0,-0.06 0,-0.36 -0.01,-0.38 -0.01,-0.03 -0.07,-0.02 -0.11,-0.02 -0.17,0 -0.17,-0.02 -0.17,0.09 0,0.04 0,0.08 0,0.13 -0.02,0 -0.07,0 -0.09,0 0.01,0.01 0.12,0.12 0.13,0.12l0.12 -0.12z"/>
   <path class="fil1" d="M1.46 0.97c0.27,0 0.48,0.22 0.48,0.49 0,0.27 -0.21,0.48 -0.48,0.48 -0.27,0 -0.49,-0.21 -0.49,-0.48 0,-0.27 0.22,-0.49 0.49,-0.49zm-0.2 0.28c0.04,0 0.08,0 0.12,0 0.06,0 0.05,0 0.09,0.04 0.02,0.02 0.04,0.04 0.08,0.04 0.02,0 0.1,0 0.13,0l0 0.04 0.04 0c0,-0.02 0.01,-0.06 -0.02,-0.08 -0.02,0 -0.08,0 -0.11,0 -0.04,0 -0.05,0 -0.08,-0.02 -0.02,-0.02 -0.03,-0.04 -0.05,-0.05 -0.03,-0.02 -0.06,-0.01 -0.1,-0.01 -0.03,0 -0.07,0 -0.1,0 -0.02,0 -0.03,0 -0.04,0.01 0,0.02 0,0.03 0,0.05l0 0.31c0,0.05 -0.01,0.1 0.03,0.12 0.02,0.01 0.03,0.01 0.05,0.01l0.32 0c0.03,0 0.06,0 0.09,-0.01 0.02,-0.02 0.03,-0.03 0.04,-0.06 0.01,-0.03 0.02,-0.05 0.03,-0.08l0.05 -0.11c0,-0.02 -0.01,-0.03 -0.01,-0.04 -0.02,-0.01 -0.03,-0.01 -0.04,-0.01l-0.27 0c-0.02,0 -0.08,-0.01 -0.09,0 -0.02,0.01 -0.03,0.05 -0.04,0.07l-0.06 0.15c-0.01,0.01 -0.01,0.03 -0.02,0.04 -0.01,0 -0.02,0.01 -0.03,0 -0.01,-0.01 -0.01,-0.03 -0.01,-0.04 0,-0.12 0,-0.25 0,-0.37z"/>
   <path class="fil1" d="M2.43 0.97c0.27,0 0.49,0.22 0.49,0.49 0,0.27 -0.22,0.48 -0.49,0.48 -0.27,0 -0.49,-0.21 -0.49,-0.48 0,-0.27 0.22,-0.49 0.49,-0.49zm-0.14 0.36c-0.07,0.07 -0.07,0.19 0.01,0.27 0.07,0.07 0.19,0.07 0.27,0 0.06,-0.07 0.07,-0.16 0.03,-0.23l-0.03 0.03 -0.02 -0.09 -0.03 -0.08 0.09 0.02 0.09 0.02 -0.04 0.04c0.07,0.11 0.06,0.25 -0.04,0.34 -0.1,0.11 -0.28,0.11 -0.38,0 -0.11,-0.1 -0.11,-0.27 0,-0.38 0.01,-0.02 0.04,-0.02 0.05,0 0.02,0.02 0.02,0.04 0,0.06z"/>
   <path class="fil2" d="M0.74 1.61c0,-0.06 0,-0.36 -0.01,-0.38 -0.01,-0.03 -0.07,-0.02 -0.11,-0.02 -0.17,0 -0.17,-0.02 -0.17,0.09 0,0.04 0,0.08 0,0.13 -0.02,0 -0.07,0 -0.09,0 0.01,0.01 0.12,0.12 0.13,0.12l0.12 -0.12 -0.08 0c-0.01,-0.01 -0.01,-0.13 0,-0.14 0,-0.01 0.05,0 0.06,0 0.02,0 0.05,-0.01 0.07,0 0,0.01 0,0.33 0,0.34 -0.02,0.01 -0.15,0 -0.18,0 -0.03,0 -0.14,0.01 -0.17,0 0,-0.03 0,-0.37 0,-0.42 -0.05,0 -0.08,-0.01 -0.08,0.05l0 0.39c0,0.06 0.03,0.06 0.08,0.06 0.05,0 0.37,0 0.39,0 0.05,-0.01 0.04,-0.05 0.04,-0.1z"/>
   <path class="fil3" d="M1.38 1.47l-0.06 0.15c-0.01,0.01 -0.01,0.03 -0.02,0.04 -0.01,0 -0.02,0.01 -0.03,0 -0.01,-0.01 -0.01,-0.03 -0.01,-0.04 0,-0.12 0,-0.25 0,-0.37 0.04,0 0.08,0 0.12,0 0.06,0 0.05,0 0.09,0.04 0.02,0.02 0.04,0.04 0.08,0.04 0.02,0 0.1,0 0.13,0l0 0.04 0.04 0c0,-0.02 0.01,-0.06 -0.02,-0.08 -0.02,0 -0.08,0 -0.11,0 -0.04,0 -0.05,0 -0.08,-0.02 -0.02,-0.02 -0.03,-0.04 -0.05,-0.05 -0.03,-0.02 -0.06,-0.01 -0.1,-0.01 -0.03,0 -0.07,0 -0.1,0 -0.02,0 -0.03,0 -0.04,0.01 0,0.02 0,0.03 0,0.05l0 0.31c0,0.05 -0.01,0.1 0.03,0.12 0.02,0.01 0.03,0.01 0.05,0.01l0.32 0c0.03,0 0.06,0 0.09,-0.01 0.02,-0.02 0.03,-0.03 0.04,-0.06 0.01,-0.03 0.02,-0.05 0.03,-0.08l0.05 -0.11c0,-0.02 -0.01,-0.03 -0.01,-0.04 -0.02,-0.01 -0.03,-0.01 -0.04,-0.01l-0.27 0c-0.02,0 -0.08,-0.01 -0.09,0 -0.02,0.01 -0.03,0.05 -0.04,0.07z"/>
   <path class="fil4" d="M2.55 1.31l0.02 0.09 0.03 -0.03c0.04,0.07 0.03,0.16 -0.03,0.23 -0.08,0.07 -0.2,0.07 -0.27,0 -0.08,-0.08 -0.08,-0.2 -0.01,-0.27 0.02,-0.02 0.02,-0.04 0,-0.06 -0.01,-0.02 -0.04,-0.02 -0.05,0 -0.11,0.11 -0.11,0.28 0,0.38 0.1,0.11 0.28,0.11 0.38,0 0.1,-0.09 0.11,-0.23 0.04,-0.34l0.04 -0.04 -0.09 -0.02 -0.09 -0.02 0.03 0.08z"/>
   <path class="fil0" d="M3.4 0c0.27,0 0.49,0.22 0.49,0.49 0,0.26 -0.22,0.48 -0.49,0.48 -0.27,0 -0.48,-0.22 -0.48,-0.48 0,-0.27 0.21,-0.49 0.48,-0.49zm-0.16 0.38c0,-0.03 0.01,-0.05 0.02,-0.07 0.01,-0.02 0.03,-0.04 0.06,-0.05 0.02,-0.01 0.05,-0.02 0.09,-0.02 0.03,0 0.06,0.01 0.08,0.02 0.02,0.01 0.04,0.02 0.06,0.04 0.01,0.02 0.02,0.05 0.02,0.07 0,0.02 -0.01,0.03 -0.02,0.05 0,0.01 -0.01,0.02 -0.02,0.03 -0.01,0.01 -0.03,0.03 -0.06,0.06 -0.01,0 -0.01,0.01 -0.02,0.01 0,0.01 0,0.01 -0.01,0.02 0,0 0,0.01 0,0.01 0,0 0,0.01 -0.01,0.02 0,0.02 -0.01,0.04 -0.03,0.04 -0.02,0 -0.03,-0.01 -0.03,-0.02 -0.01,0 -0.01,-0.01 -0.01,-0.03 0,-0.02 0,-0.03 0,-0.05 0.01,-0.01 0.02,-0.02 0.03,-0.03 0.01,-0.01 0.02,-0.02 0.03,-0.04 0.02,-0.01 0.03,-0.02 0.03,-0.02 0.01,-0.01 0.02,-0.02 0.02,-0.03 0,0 0.01,-0.01 0.01,-0.02 0,-0.02 -0.01,-0.03 -0.02,-0.04 -0.02,-0.02 -0.03,-0.02 -0.05,-0.02 -0.03,0 -0.04,0 -0.06,0.02 -0.01,0.01 -0.02,0.03 -0.02,0.05 -0.01,0.02 -0.03,0.04 -0.05,0.04 -0.01,0 -0.02,-0.01 -0.03,-0.02 -0.01,-0.01 -0.01,-0.01 -0.01,-0.02zm0.16 0.35c-0.01,0 -0.03,0 -0.04,-0.01 -0.01,-0.01 -0.01,-0.02 -0.01,-0.04 0,-0.01 0,-0.02 0.01,-0.03 0.01,-0.01 0.03,-0.01 0.04,-0.01 0.01,0 0.02,0 0.03,0.01 0.01,0.01 0.02,0.02 0.02,0.03 0,0.02 -0.01,0.03 -0.02,0.04 -0.01,0.01 -0.02,0.01 -0.03,0.01z"/>
   <path class="fil3" d="M3.4 0.97c0.27,0 0.49,0.22 0.49,0.49 0,0.27 -0.22,0.48 -0.49,0.48 -0.27,0 -0.48,-0.21 -0.48,-0.48 0,-0.27 0.21,-0.49 0.48,-0.49zm-0.16 0.38c0,-0.02 0.01,-0.04 0.02,-0.06 0.01,-0.03 0.03,-0.04 0.06,-0.06 0.02,-0.01 0.05,-0.02 0.09,-0.02 0.03,0 0.06,0.01 0.08,0.02 0.02,0.01 0.04,0.03 0.06,0.05 0.01,0.02 0.02,0.04 0.02,0.06 0,0.02 -0.01,0.04 -0.02,0.05 0,0.01 -0.01,0.03 -0.02,0.04 -0.01,0.01 -0.03,0.02 -0.06,0.05 -0.01,0 -0.01,0.01 -0.02,0.01 0,0.01 0,0.01 -0.01,0.02 0,0 0,0.01 0,0.01 0,0.01 0,0.01 -0.01,0.02 0,0.03 -0.01,0.04 -0.03,0.04 -0.02,0 -0.03,-0.01 -0.03,-0.01 -0.01,-0.01 -0.01,-0.02 -0.01,-0.04 0,-0.01 0,-0.03 0,-0.04 0.01,-0.02 0.02,-0.03 0.03,-0.04 0.01,-0.01 0.02,-0.02 0.03,-0.03 0.02,-0.02 0.03,-0.03 0.03,-0.03 0.01,-0.01 0.02,-0.02 0.02,-0.02 0,-0.01 0.01,-0.02 0.01,-0.03 0,-0.02 -0.01,-0.03 -0.02,-0.04 -0.02,-0.01 -0.03,-0.02 -0.05,-0.02 -0.03,0 -0.04,0.01 -0.06,0.02 -0.01,0.01 -0.02,0.03 -0.02,0.05 -0.01,0.03 -0.03,0.04 -0.05,0.04 -0.01,0 -0.02,-0.01 -0.03,-0.01 -0.01,-0.01 -0.01,-0.02 -0.01,-0.03zm0.16 0.36c-0.01,0 -0.03,-0.01 -0.04,-0.02 -0.01,-0.01 -0.01,-0.02 -0.01,-0.03 0,-0.02 0,-0.03 0.01,-0.04 0.01,-0.01 0.03,-0.01 0.04,-0.01 0.01,0 0.02,0 0.03,0.01 0.01,0.01 0.02,0.02 0.02,0.04 0,0.01 -0.01,0.02 -0.02,0.03 -0.01,0.01 -0.02,0.02 -0.03,0.02z"/>
   <g>
    <path class="fil1" d="M3.58 1.35c0,-0.02 -0.01,-0.04 -0.02,-0.06 -0.02,-0.02 -0.03,-0.04 -0.06,-0.05 -0.02,-0.01 -0.05,-0.02 -0.08,-0.02 -0.04,0 -0.07,0.01 -0.09,0.02 -0.03,0.02 -0.05,0.03 -0.06,0.06 -0.01,0.02 -0.02,0.04 -0.02,0.06 0,0.01 0.01,0.02 0.01,0.03 0.01,0 0.02,0.01 0.03,0.01 0.03,0 0.04,-0.01 0.05,-0.04 0,-0.02 0.01,-0.04 0.03,-0.05 0.01,-0.01 0.02,-0.02 0.05,-0.02 0.02,0 0.04,0.01 0.05,0.02 0.01,0.01 0.02,0.03 0.02,0.04 0,0.01 0,0.02 -0.01,0.03 0,0 -0.01,0.01 -0.01,0.02 -0.01,0 -0.02,0.01 -0.03,0.03 -0.02,0.01 -0.03,0.02 -0.04,0.03 -0.01,0.01 -0.02,0.02 -0.02,0.04 -0.01,0.01 -0.01,0.03 -0.01,0.04 0,0.02 0,0.03 0.01,0.04 0.01,0 0.02,0.01 0.03,0.01 0.02,0 0.03,-0.01 0.04,-0.04 0,-0.01 0,-0.01 0,-0.02 0,0 0,-0.01 0.01,-0.01 0,0 0,-0.01 0.01,-0.01 0,-0.01 0.01,-0.02 0.01,-0.02 0.03,-0.03 0.05,-0.04 0.06,-0.05 0.01,-0.01 0.02,-0.03 0.03,-0.04 0,-0.01 0.01,-0.03 0.01,-0.05z"/>
    <path class="fil1" d="M3.45 1.63c-0.01,-0.01 -0.03,-0.01 -0.04,-0.01 -0.01,0 -0.03,0 -0.03,0.01 -0.01,0.01 -0.02,0.02 -0.02,0.04 0,0.01 0.01,0.02 0.02,0.03 0.01,0.01 0.02,0.02 0.03,0.02 0.01,0 0.02,-0.01 0.03,-0.02 0.01,-0.01 0.02,-0.02 0.02,-0.03 0,-0.02 -0.01,-0.03 -0.01,-0.04z"/>
   </g>
   <path class="fil5" d="M3.57 1.34c0,-0.02 -0.01,-0.04 -0.02,-0.06 -0.02,-0.02 -0.04,-0.04 -0.06,-0.05 -0.02,-0.01 -0.05,-0.02 -0.08,-0.02 -0.04,0 -0.07,0.01 -0.09,0.02 -0.03,0.02 -0.05,0.03 -0.06,0.06 -0.01,0.02 -0.02,0.04 -0.02,0.06 0,0.01 0,0.02 0.01,0.03 0.01,0 0.02,0.01 0.03,0.01 0.02,0 0.04,-0.01 0.05,-0.04 0,-0.02 0.01,-0.04 0.02,-0.05 0.02,-0.01 0.03,-0.02 0.06,-0.02 0.02,0 0.03,0.01 0.05,0.02 0.01,0.01 0.02,0.02 0.02,0.04 0,0.01 -0.01,0.02 -0.01,0.03 0,0 -0.01,0.01 -0.02,0.02 0,0 -0.01,0.01 -0.03,0.03 -0.01,0.01 -0.02,0.02 -0.03,0.03 -0.01,0.01 -0.02,0.02 -0.03,0.04 0,0.01 0,0.03 0,0.04 0,0.02 0,0.03 0.01,0.04 0,0 0.01,0.01 0.03,0.01 0.02,0 0.03,-0.01 0.03,-0.04 0.01,-0.01 0.01,-0.01 0.01,-0.02 0,0 0,-0.01 0,-0.01 0.01,-0.01 0.01,-0.01 0.01,-0.02 0.01,0 0.01,-0.01 0.02,-0.01 0.03,-0.03 0.05,-0.04 0.06,-0.05 0.01,-0.01 0.02,-0.03 0.02,-0.04 0.01,-0.01 0.02,-0.03 0.02,-0.05z"/>
   <path class="fil5" d="M3.43 1.62c-0.01,-0.01 -0.02,-0.01 -0.03,-0.01 -0.01,0 -0.03,0 -0.04,0.01 -0.01,0.01 -0.01,0.02 -0.01,0.04 0,0.01 0,0.02 0.01,0.03 0.01,0.01 0.03,0.02 0.04,0.02 0.01,0 0.02,-0.01 0.03,-0.02 0.01,-0.01 0.02,-0.02 0.02,-0.03 0,-0.02 -0.01,-0.03 -0.02,-0.04z"/>
  </g>
 </g>
</svg>
