<?xml version="1.0" encoding="UTF-8"?>
<!DOCTYPE svg PUBLIC "-//W3C//DTD SVG 1.1//EN" "http://www.w3.org/Graphics/SVG/1.1/DTD/svg11.dtd">
<!-- Creator: CorelDRAW 2019 (64-Bit) -->
<svg xmlns="http://www.w3.org/2000/svg" xml:space="preserve" width="210px" height="46px" version="1.1" style="shape-rendering:geometricPrecision; text-rendering:geometricPrecision; image-rendering:optimizeQuality; fill-rule:evenodd; clip-rule:evenodd"
viewBox="0 0 11.15 2.44"
 xmlns:xlink="http://www.w3.org/1999/xlink"
 xmlns:xodm="http://www.corel.com/coreldraw/odm/2003">
 <defs>
  <style type="text/css">
   <![CDATA[
    .str0 {stroke:black;stroke-width:0.05;stroke-miterlimit:22.9256}
    .fil1 {fill:none}
    .fil2 {fill:black}
    .fil0 {fill:white;fill-rule:nonzero}
    .fil3 {fill:yellow;fill-rule:nonzero}
   ]]>
  </style>
 </defs>
 <g id="Слой_x0020_1">
  <metadata id="CorelCorpID_0Corel-Layer"/>
  <path class="fil0" d="M3.24 1.98l0.07 0c0.04,0 0.07,0 0.08,0 0.01,-0.01 0.02,-0.01 0.02,-0.02 0.01,-0.01 0.01,-0.02 0.01,-0.03 0,-0.02 0,-0.03 -0.01,-0.04 -0.01,-0.01 -0.02,-0.02 -0.03,-0.02 -0.01,0 -0.03,0 -0.07,0l-0.07 0 0 0.11zm-0.09 0.26l0 -0.45 0.19 0c0.05,0 0.08,0.01 0.1,0.02 0.03,0 0.04,0.02 0.06,0.04 0.01,0.02 0.02,0.04 0.02,0.07 0,0.03 -0.01,0.06 -0.03,0.08 -0.02,0.03 -0.05,0.04 -0.09,0.04 0.02,0.02 0.03,0.03 0.05,0.04 0.01,0.02 0.03,0.04 0.05,0.08l0.05 0.08 -0.11 0 -0.06 -0.1c-0.02,-0.03 -0.04,-0.05 -0.05,-0.06 -0.01,-0.01 -0.02,-0.02 -0.03,-0.02 -0.01,0 -0.02,0 -0.04,0l-0.02 0 0 0.18 -0.09 0zm-0.48 0l0 -0.45 0.34 0 0 0.08 -0.24 0 0 0.1 0.22 0 0 0.08 -0.22 0 0 0.12 0.25 0 0 0.07 -0.35 0zm-0.38 -0.37l0 0.13 0.05 0c0.04,0 0.06,0 0.07,-0.01 0.01,0 0.02,-0.01 0.03,-0.02 0.01,-0.01 0.01,-0.02 0.01,-0.04 0,-0.01 0,-0.03 -0.01,-0.04 -0.01,-0.01 -0.03,-0.01 -0.04,-0.02 -0.01,0 -0.03,0 -0.07,0l-0.04 0zm-0.09 0.37l0 -0.45 0.15 0c0.05,0 0.09,0.01 0.1,0.01 0.03,0.01 0.05,0.02 0.07,0.04 0.02,0.03 0.02,0.06 0.02,0.09 0,0.03 0,0.05 -0.01,0.07 -0.01,0.02 -0.02,0.04 -0.04,0.05 -0.01,0.01 -0.03,0.01 -0.05,0.02 -0.02,0 -0.05,0 -0.09,0l-0.06 0 0 0.17 -0.09 0zm-0.38 -0.37l0 0.13 0.05 0c0.03,0 0.06,0 0.07,-0.01 0.01,0 0.02,-0.01 0.03,-0.02 0,-0.01 0.01,-0.02 0.01,-0.04 0,-0.01 -0.01,-0.03 -0.02,-0.04 -0.01,-0.01 -0.02,-0.01 -0.03,-0.02 -0.01,0 -0.04,0 -0.07,0l-0.04 0zm-0.09 0.37l0 -0.45 0.14 0c0.06,0 0.09,0.01 0.11,0.01 0.03,0.01 0.05,0.02 0.06,0.04 0.02,0.03 0.03,0.06 0.03,0.09 0,0.03 0,0.05 -0.01,0.07 -0.01,0.02 -0.03,0.04 -0.04,0.05 -0.02,0.01 -0.03,0.01 -0.05,0.02 -0.02,0 -0.05,0 -0.09,0l-0.06 0 0 0.17 -0.09 0zm-0.47 -0.22c0,0.05 0.01,0.09 0.03,0.11 0.03,0.03 0.06,0.04 0.09,0.04 0.04,0 0.07,-0.01 0.09,-0.04 0.02,-0.02 0.04,-0.06 0.04,-0.11 0,-0.05 -0.01,-0.09 -0.04,-0.12 -0.02,-0.02 -0.05,-0.04 -0.09,-0.04 -0.04,0 -0.07,0.02 -0.09,0.04 -0.02,0.03 -0.03,0.07 -0.03,0.12zm-0.1 0c0,-0.04 0.01,-0.08 0.02,-0.11 0.01,-0.03 0.03,-0.05 0.05,-0.07 0.01,-0.01 0.03,-0.03 0.05,-0.04 0.03,-0.01 0.06,-0.01 0.1,-0.01 0.07,0 0.12,0.02 0.16,0.06 0.04,0.04 0.06,0.1 0.06,0.17 0,0.07 -0.02,0.13 -0.06,0.17 -0.04,0.04 -0.09,0.06 -0.16,0.06 -0.06,0 -0.12,-0.02 -0.16,-0.06 -0.04,-0.04 -0.06,-0.1 -0.06,-0.17zm-0.39 -0.04l0.06 0c0.05,0 0.07,0 0.08,0 0.01,-0.01 0.02,-0.01 0.03,-0.02 0.01,-0.01 0.01,-0.02 0.01,-0.03 0,-0.02 -0.01,-0.03 -0.01,-0.04 -0.01,-0.01 -0.02,-0.02 -0.04,-0.02 -0.01,0 -0.03,0 -0.06,0l-0.07 0 0 0.11zm-0.1 0.26l0 -0.45 0.2 0c0.04,0 0.08,0.01 0.1,0.02 0.02,0 0.04,0.02 0.05,0.04 0.02,0.02 0.02,0.04 0.02,0.07 0,0.03 -0.01,0.06 -0.03,0.08 -0.02,0.03 -0.05,0.04 -0.09,0.04 0.02,0.02 0.04,0.03 0.05,0.04 0.01,0.02 0.03,0.04 0.05,0.08l0.06 0.08 -0.11 0 -0.07 -0.1c-0.02,-0.03 -0.03,-0.05 -0.04,-0.06 -0.01,-0.01 -0.02,-0.02 -0.03,-0.02 -0.01,0 -0.03,0 -0.05,0l-0.01 0 0 0.18 -0.1 0zm-0.41 -0.37l0 0.3 0.06 0c0.03,0 0.05,0 0.06,-0.01 0.01,0 0.03,-0.01 0.04,-0.02 0.01,0 0.01,-0.02 0.02,-0.04 0.01,-0.02 0.01,-0.05 0.01,-0.08 0,-0.04 0,-0.06 -0.01,-0.08 -0.01,-0.02 -0.02,-0.03 -0.03,-0.04 -0.01,-0.02 -0.02,-0.02 -0.04,-0.03 -0.01,0 -0.04,0 -0.07,0l-0.04 0zm-0.09 -0.08l0.16 0c0.04,0 0.07,0.01 0.09,0.01 0.02,0.01 0.05,0.02 0.06,0.04 0.02,0.02 0.04,0.05 0.05,0.08 0.01,0.03 0.01,0.06 0.01,0.1 0,0.04 0,0.07 -0.01,0.1 -0.01,0.03 -0.03,0.06 -0.05,0.08 -0.02,0.01 -0.04,0.02 -0.06,0.03 -0.02,0.01 -0.05,0.01 -0.08,0.01l-0.17 0 0 -0.45z"/>
  <path class="fil0" d="M3.22 1.44l0 -0.45 0.33 0 0 0.08 -0.24 0 0 0.1 0.22 0 0 0.07 -0.22 0 0 0.13 0.25 0 0 0.07 -0.34 0zm-0.44 0l0 -0.44 0.09 0 0 0.37 0.23 0 0 0.07 -0.32 0zm-0.38 -0.37l0 0.13 0.05 0c0.03,0 0.06,-0.01 0.07,-0.01 0.01,0 0.02,-0.01 0.03,-0.02 0,-0.01 0.01,-0.02 0.01,-0.04 0,-0.01 -0.01,-0.03 -0.02,-0.04 -0.01,-0.01 -0.02,-0.02 -0.03,-0.02 -0.01,0 -0.04,0 -0.07,0l-0.04 0zm-0.09 0.37l0 -0.45 0.14 0c0.06,0 0.09,0.01 0.11,0.01 0.02,0.01 0.05,0.02 0.06,0.04 0.02,0.03 0.03,0.06 0.03,0.09 0,0.03 -0.01,0.05 -0.01,0.07 -0.01,0.02 -0.03,0.03 -0.04,0.05 -0.02,0.01 -0.03,0.01 -0.05,0.02 -0.02,0 -0.05,0 -0.09,0l-0.06 0 0 0.17 -0.09 0zm-0.24 0l0 -0.45 0.09 0 0 0.45 -0.09 0zm-0.33 0l0 -0.37 -0.13 0 0 -0.08 0.35 0 0 0.08 -0.13 0 0 0.37 -0.09 0zm-0.49 0l0 -0.44 0.09 0 0 0.37 0.22 0 0 0.07 -0.31 0zm-0.51 -0.45l0.09 0 0 0.25c0,0.04 0,0.06 0,0.07 0.01,0.02 0.01,0.03 0.03,0.05 0.01,0.01 0.03,0.01 0.06,0.01 0.02,0 0.04,0 0.06,-0.01 0.01,-0.01 0.02,-0.03 0.02,-0.04 0,-0.02 0,-0.04 0,-0.08l0 -0.25 0.09 0 0 0.24c0,0.05 0,0.09 0,0.11 -0.01,0.03 -0.02,0.04 -0.03,0.06 -0.01,0.02 -0.03,0.03 -0.05,0.04 -0.02,0.01 -0.05,0.01 -0.09,0.01 -0.04,0 -0.07,0 -0.1,-0.01 -0.02,-0.01 -0.04,-0.03 -0.05,-0.04 -0.01,-0.02 -0.02,-0.04 -0.02,-0.05 -0.01,-0.03 -0.01,-0.07 -0.01,-0.12l0 -0.24zm-0.58 0.45l0 -0.45 0.13 0 0.08 0.31 0.08 -0.31 0.14 0 0 0.45 -0.08 0 0 -0.35 -0.09 0.35 -0.09 0 -0.09 -0.35 0 0.35 -0.08 0z"/>
  <path class="fil0" d="M2.8 0.65l0 -0.45 0.33 0 0 0.08 -0.24 0 0 0.1 0.22 0 0 0.07 -0.22 0 0 0.12 0.25 0 0 0.08 -0.34 0zm-0.44 0l0 -0.45 0.09 0 0 0.37 0.23 0 0 0.08 -0.32 0zm-0.34 -0.17l0 -0.07 0.2 0 0 0.18c-0.02,0.02 -0.05,0.03 -0.08,0.05 -0.04,0.01 -0.08,0.02 -0.11,0.02 -0.05,0 -0.09,-0.01 -0.13,-0.03 -0.03,-0.02 -0.06,-0.05 -0.07,-0.09 -0.02,-0.03 -0.03,-0.07 -0.03,-0.12 0,-0.04 0.01,-0.09 0.03,-0.12 0.02,-0.04 0.05,-0.07 0.08,-0.09 0.03,-0.01 0.07,-0.02 0.11,-0.02 0.06,0 0.1,0.01 0.13,0.04 0.03,0.02 0.05,0.05 0.06,0.09l-0.09 0.02c0,-0.02 -0.01,-0.04 -0.03,-0.05 -0.02,-0.01 -0.04,-0.02 -0.07,-0.02 -0.04,0 -0.07,0.01 -0.09,0.04 -0.03,0.02 -0.04,0.06 -0.04,0.11 0,0.05 0.01,0.09 0.04,0.12 0.02,0.03 0.05,0.04 0.09,0.04 0.02,0 0.04,0 0.06,-0.01 0.02,-0.01 0.03,-0.02 0.05,-0.03l0 -0.06 -0.11 0zm-0.71 0.17l0 -0.45 0.08 0 0.19 0.3 0 -0.3 0.08 0 0 0.45 -0.09 0 -0.18 -0.3 0 0.3 -0.08 0zm-0.24 0l0 -0.45 0.09 0 0 0.45 -0.09 0zm-0.49 -0.15l0.09 0c0,0.02 0.01,0.05 0.03,0.06 0.02,0.01 0.04,0.02 0.07,0.02 0.02,0 0.05,0 0.06,-0.02 0.02,-0.01 0.02,-0.02 0.02,-0.04 0,-0.01 0,-0.02 -0.01,-0.03 0,-0.01 -0.01,-0.01 -0.03,-0.02 -0.01,0 -0.03,-0.01 -0.07,-0.02 -0.05,-0.01 -0.08,-0.02 -0.1,-0.04 -0.03,-0.03 -0.04,-0.06 -0.04,-0.09 0,-0.03 0,-0.05 0.02,-0.07 0.01,-0.02 0.03,-0.03 0.05,-0.04 0.03,-0.01 0.06,-0.02 0.09,-0.02 0.06,0 0.1,0.01 0.13,0.04 0.02,0.02 0.04,0.06 0.04,0.1l-0.09 0c0,-0.02 -0.01,-0.04 -0.02,-0.05 -0.02,-0.01 -0.04,-0.01 -0.06,-0.01 -0.03,0 -0.05,0 -0.06,0.01 -0.01,0.01 -0.02,0.02 -0.02,0.03 0,0.01 0.01,0.02 0.02,0.03 0.01,0.01 0.04,0.02 0.08,0.03 0.04,0.01 0.08,0.02 0.1,0.03 0.02,0.01 0.03,0.03 0.05,0.05 0.01,0.02 0.01,0.04 0.01,0.07 0,0.02 0,0.05 -0.02,0.07 -0.01,0.02 -0.03,0.04 -0.06,0.05 -0.02,0.01 -0.06,0.02 -0.1,0.02 -0.05,0 -0.1,-0.02 -0.13,-0.04 -0.03,-0.03 -0.04,-0.07 -0.05,-0.12z"/>
  <polygon class="fil1" points="0,0.03 7.44,0.03 7.44,2.42 0,2.42 "/>
  <path class="fil2 str0" d="M4.12 0.03l2.92 0c0.22,0 0.4,0.18 0.4,0.39l0 0.01c0,0.21 -0.18,0.39 -0.4,0.39l-2.92 0c-0.22,0 -0.4,-0.18 -0.4,-0.39l0 -0.01c0,-0.21 0.18,-0.39 0.4,-0.39z"/>
  <path class="fil2 str0" d="M4.12 0.82l2.92 0c0.22,0 0.4,0.18 0.4,0.4l0 0c0,0.22 -0.18,0.4 -0.4,0.4l-2.92 0c-0.22,0 -0.4,-0.18 -0.4,-0.4l0 0c0,-0.22 0.18,-0.4 0.4,-0.4z"/>
  <path class="fil2 str0" d="M4.12 1.62l2.92 0c0.22,0 0.4,0.18 0.4,0.4l0 0c0,0.22 -0.18,0.4 -0.4,0.4l-2.92 0c-0.22,0 -0.4,-0.18 -0.4,-0.4l0 0c0,-0.22 0.18,-0.4 0.4,-0.4z"/>
  <path class="fil3" d="M6.96 1.98l0.06 0c0.05,0 0.07,0 0.09,0 0.01,-0.01 0.01,-0.01 0.02,-0.02 0.01,-0.01 0.01,-0.02 0.01,-0.03 0,-0.02 0,-0.03 -0.01,-0.04 -0.01,-0.01 -0.02,-0.02 -0.04,-0.02 0,0 -0.03,0 -0.06,0l-0.07 0 0 0.11zm-0.09 0.26l0 -0.45 0.19 0c0.05,0 0.08,0.01 0.1,0.02 0.02,0 0.04,0.02 0.05,0.04 0.02,0.02 0.02,0.04 0.02,0.07 0,0.03 -0.01,0.06 -0.03,0.08 -0.02,0.03 -0.05,0.04 -0.08,0.04 0.02,0.02 0.03,0.03 0.04,0.04 0.02,0.02 0.03,0.04 0.06,0.08l0.05 0.08 -0.11 0 -0.06 -0.1c-0.03,-0.03 -0.04,-0.05 -0.05,-0.06 -0.01,-0.01 -0.02,-0.02 -0.03,-0.02 -0.01,0 -0.02,0 -0.04,0l-0.02 0 0 0.18 -0.09 0zm-0.48 0l0 -0.45 0.33 0 0 0.08 -0.24 0 0 0.1 0.23 0 0 0.08 -0.23 0 0 0.12 0.25 0 0 0.07 -0.34 0zm-0.38 -0.37l0 0.13 0.05 0c0.03,0 0.06,0 0.07,-0.01 0.01,0 0.02,-0.01 0.03,-0.02 0.01,-0.01 0.01,-0.02 0.01,-0.04 0,-0.01 -0.01,-0.03 -0.02,-0.04 -0.01,-0.01 -0.02,-0.01 -0.03,-0.02 -0.01,0 -0.03,0 -0.07,0l-0.04 0zm-0.09 0.37l0 -0.45 0.14 0c0.06,0 0.09,0.01 0.11,0.01 0.03,0.01 0.05,0.02 0.07,0.04 0.01,0.03 0.02,0.06 0.02,0.09 0,0.03 0,0.05 -0.01,0.07 -0.01,0.02 -0.03,0.04 -0.04,0.05 -0.02,0.01 -0.03,0.01 -0.05,0.02 -0.02,0 -0.05,0 -0.09,0l-0.06 0 0 0.17 -0.09 0zm-0.38 -0.37l0 0.13 0.04 0c0.04,0 0.06,0 0.08,-0.01 0.01,0 0.02,-0.01 0.02,-0.02 0.01,-0.01 0.01,-0.02 0.01,-0.04 0,-0.01 0,-0.03 -0.01,-0.04 -0.01,-0.01 -0.02,-0.01 -0.04,-0.02 -0.01,0 -0.03,0 -0.06,0l-0.04 0zm-0.1 0.37l0 -0.45 0.15 0c0.05,0 0.09,0.01 0.11,0.01 0.02,0.01 0.04,0.02 0.06,0.04 0.02,0.03 0.03,0.06 0.03,0.09 0,0.03 -0.01,0.05 -0.02,0.07 -0.01,0.02 -0.02,0.04 -0.03,0.05 -0.02,0.01 -0.04,0.01 -0.05,0.02 -0.02,0 -0.05,0 -0.1,0l-0.05 0 0 0.17 -0.1 0zm-0.46 -0.22c0,0.05 0.01,0.09 0.03,0.11 0.02,0.03 0.05,0.04 0.09,0.04 0.04,0 0.07,-0.01 0.09,-0.04 0.02,-0.02 0.03,-0.06 0.03,-0.11 0,-0.05 -0.01,-0.09 -0.03,-0.12 -0.02,-0.02 -0.05,-0.04 -0.09,-0.04 -0.04,0 -0.07,0.02 -0.09,0.04 -0.02,0.03 -0.03,0.07 -0.03,0.12zm-0.1 0c0,-0.04 0.01,-0.08 0.02,-0.11 0.01,-0.03 0.03,-0.05 0.04,-0.07 0.02,-0.01 0.04,-0.03 0.06,-0.04 0.03,-0.01 0.06,-0.01 0.1,-0.01 0.07,0 0.12,0.02 0.16,0.06 0.04,0.04 0.06,0.1 0.06,0.17 0,0.07 -0.02,0.13 -0.06,0.17 -0.04,0.04 -0.09,0.06 -0.16,0.06 -0.07,0 -0.12,-0.02 -0.16,-0.06 -0.04,-0.04 -0.06,-0.1 -0.06,-0.17zm-0.4 -0.04l0.07 0c0.04,0 0.07,0 0.08,0 0.01,-0.01 0.02,-0.01 0.03,-0.02 0,-0.01 0.01,-0.02 0.01,-0.03 0,-0.02 -0.01,-0.03 -0.02,-0.04 0,-0.01 -0.02,-0.02 -0.03,-0.02 -0.01,0 -0.03,0 -0.07,0l-0.07 0 0 0.11zm-0.09 0.26l0 -0.45 0.19 0c0.05,0 0.09,0.01 0.11,0.02 0.02,0 0.04,0.02 0.05,0.04 0.01,0.02 0.02,0.04 0.02,0.07 0,0.03 -0.01,0.06 -0.03,0.08 -0.02,0.03 -0.05,0.04 -0.09,0.04 0.02,0.02 0.04,0.03 0.05,0.04 0.01,0.02 0.03,0.04 0.05,0.08l0.06 0.08 -0.11 0 -0.07 -0.1c-0.02,-0.03 -0.04,-0.05 -0.04,-0.06 -0.01,-0.01 -0.02,-0.02 -0.03,-0.02 -0.01,0 -0.03,0 -0.05,0l-0.02 0 0 0.18 -0.09 0zm-0.42 -0.37l0 0.3 0.07 0c0.03,0 0.05,0 0.06,-0.01 0.01,0 0.02,-0.01 0.03,-0.02 0.01,0 0.02,-0.02 0.03,-0.04 0,-0.02 0.01,-0.05 0.01,-0.08 0,-0.04 -0.01,-0.06 -0.01,-0.08 -0.01,-0.02 -0.02,-0.03 -0.03,-0.04 -0.01,-0.02 -0.02,-0.02 -0.04,-0.03 -0.01,0 -0.04,0 -0.07,0l-0.05 0zm-0.09 -0.08l0.17 0c0.04,0 0.07,0.01 0.08,0.01 0.03,0.01 0.05,0.02 0.07,0.04 0.02,0.02 0.04,0.05 0.05,0.08 0,0.03 0.01,0.06 0.01,0.1 0,0.04 0,0.07 -0.01,0.1 -0.02,0.03 -0.03,0.06 -0.05,0.08 -0.02,0.01 -0.04,0.02 -0.07,0.03 -0.02,0.01 -0.04,0.01 -0.08,0.01l-0.17 0 0 -0.45z"/>
  <path class="fil3" d="M10.67 1.98l0.07 0c0.05,0 0.07,0 0.08,0 0.01,-0.01 0.02,-0.01 0.03,-0.02 0.01,-0.01 0.01,-0.02 0.01,-0.03 0,-0.02 -0.01,-0.03 -0.01,-0.04 -0.01,-0.01 -0.02,-0.02 -0.04,-0.02 -0.01,0 -0.03,0 -0.06,0l-0.08 0 0 0.11zm-0.09 0.26l0 -0.45 0.19 0c0.05,0 0.09,0.01 0.11,0.02 0.02,0 0.04,0.02 0.05,0.04 0.01,0.02 0.02,0.04 0.02,0.07 0,0.03 -0.01,0.06 -0.03,0.08 -0.02,0.03 -0.05,0.04 -0.09,0.04 0.02,0.02 0.04,0.03 0.05,0.04 0.01,0.02 0.03,0.04 0.05,0.08l0.06 0.08 -0.11 0 -0.07 -0.1c-0.02,-0.03 -0.03,-0.05 -0.04,-0.06 -0.01,-0.01 -0.02,-0.02 -0.03,-0.02 -0.01,0 -0.03,0 -0.05,0l-0.02 0 0 0.18 -0.09 0zm-0.47 0l0 -0.45 0.33 0 0 0.08 -0.24 0 0 0.1 0.23 0 0 0.08 -0.23 0 0 0.12 0.25 0 0 0.07 -0.34 0zm-0.38 -0.37l0 0.13 0.05 0c0.03,0 0.06,0 0.07,-0.01 0.01,0 0.02,-0.01 0.03,-0.02 0,-0.01 0.01,-0.02 0.01,-0.04 0,-0.01 -0.01,-0.03 -0.02,-0.04 -0.01,-0.01 -0.02,-0.01 -0.03,-0.02 -0.01,0 -0.04,0 -0.07,0l-0.04 0zm-0.09 0.37l0 -0.45 0.14 0c0.06,0 0.09,0.01 0.11,0.01 0.02,0.01 0.05,0.02 0.06,0.04 0.02,0.03 0.03,0.06 0.03,0.09 0,0.03 -0.01,0.05 -0.01,0.07 -0.02,0.02 -0.03,0.04 -0.04,0.05 -0.02,0.01 -0.03,0.01 -0.05,0.02 -0.02,0 -0.05,0 -0.09,0l-0.06 0 0 0.17 -0.09 0zm-0.39 -0.37l0 0.13 0.05 0c0.04,0 0.06,0 0.07,-0.01 0.02,0 0.03,-0.01 0.03,-0.02 0.01,-0.01 0.01,-0.02 0.01,-0.04 0,-0.01 0,-0.03 -0.01,-0.04 -0.01,-0.01 -0.02,-0.01 -0.04,-0.02 -0.01,0 -0.03,0 -0.06,0l-0.05 0zm-0.09 0.37l0 -0.45 0.15 0c0.05,0 0.09,0.01 0.11,0.01 0.02,0.01 0.04,0.02 0.06,0.04 0.02,0.03 0.03,0.06 0.03,0.09 0,0.03 -0.01,0.05 -0.02,0.07 -0.01,0.02 -0.02,0.04 -0.04,0.05 -0.01,0.01 -0.03,0.01 -0.04,0.02 -0.03,0 -0.06,0 -0.1,0l-0.06 0 0 0.17 -0.09 0zm-0.47 -0.22c0,0.05 0.02,0.09 0.04,0.11 0.02,0.03 0.05,0.04 0.09,0.04 0.03,0 0.06,-0.01 0.09,-0.04 0.02,-0.02 0.03,-0.06 0.03,-0.11 0,-0.05 -0.01,-0.09 -0.03,-0.12 -0.02,-0.02 -0.05,-0.04 -0.09,-0.04 -0.04,0 -0.07,0.02 -0.09,0.04 -0.02,0.03 -0.04,0.07 -0.04,0.12zm-0.09 0c0,-0.04 0.01,-0.08 0.02,-0.11 0.01,-0.03 0.02,-0.05 0.04,-0.07 0.02,-0.01 0.04,-0.03 0.06,-0.04 0.03,-0.01 0.06,-0.01 0.1,-0.01 0.06,0 0.12,0.02 0.16,0.06 0.04,0.04 0.06,0.1 0.06,0.17 0,0.07 -0.02,0.13 -0.06,0.17 -0.04,0.04 -0.1,0.06 -0.16,0.06 -0.07,0 -0.12,-0.02 -0.16,-0.06 -0.04,-0.04 -0.06,-0.1 -0.06,-0.17zm-0.4 -0.04l0.07 0c0.04,0 0.07,0 0.08,0 0.01,-0.01 0.02,-0.01 0.03,-0.02 0,-0.01 0,-0.02 0,-0.03 0,-0.02 0,-0.03 -0.01,-0.04 -0.01,-0.01 -0.02,-0.02 -0.03,-0.02 -0.01,0 -0.03,0 -0.07,0l-0.07 0 0 0.11zm-0.09 0.26l0 -0.45 0.19 0c0.05,0 0.08,0.01 0.11,0.02 0.02,0 0.04,0.02 0.05,0.04 0.01,0.02 0.02,0.04 0.02,0.07 0,0.03 -0.01,0.06 -0.03,0.08 -0.02,0.03 -0.05,0.04 -0.09,0.04 0.02,0.02 0.04,0.03 0.05,0.04 0.01,0.02 0.03,0.04 0.05,0.08l0.05 0.08 -0.1 0 -0.07 -0.1c-0.02,-0.03 -0.04,-0.05 -0.05,-0.06 -0.01,-0.01 -0.01,-0.02 -0.02,-0.02 -0.01,0 -0.03,0 -0.05,0l-0.02 0 0 0.18 -0.09 0zm-0.42 -0.37l0 0.3 0.07 0c0.03,0 0.04,0 0.05,-0.01 0.02,0 0.03,-0.01 0.04,-0.02 0.01,0 0.02,-0.02 0.03,-0.04 0,-0.02 0,-0.05 0,-0.08 0,-0.04 0,-0.06 0,-0.08 -0.01,-0.02 -0.02,-0.03 -0.03,-0.04 -0.01,-0.02 -0.03,-0.02 -0.04,-0.03 -0.02,0 -0.04,0 -0.08,0l-0.04 0zm-0.09 -0.08l0.17 0c0.03,0 0.06,0.01 0.08,0.01 0.03,0.01 0.05,0.02 0.07,0.04 0.02,0.02 0.03,0.05 0.04,0.08 0.01,0.03 0.02,0.06 0.02,0.1 0,0.04 -0.01,0.07 -0.02,0.1 -0.01,0.03 -0.02,0.06 -0.04,0.08 -0.02,0.01 -0.04,0.02 -0.07,0.03 -0.02,0.01 -0.04,0.01 -0.08,0.01l-0.17 0 0 -0.45z"/>
  <path class="fil3" d="M6.94 1.44l0 -0.45 0.33 0 0 0.08 -0.24 0 0 0.1 0.22 0 0 0.07 -0.22 0 0 0.13 0.25 0 0 0.07 -0.34 0zm-0.44 0l0 -0.44 0.09 0 0 0.37 0.23 0 0 0.07 -0.32 0zm-0.38 -0.37l0 0.13 0.04 0c0.04,0 0.06,-0.01 0.08,-0.01 0.01,0 0.02,-0.01 0.02,-0.02 0.01,-0.01 0.01,-0.02 0.01,-0.04 0,-0.01 0,-0.03 -0.01,-0.04 -0.01,-0.01 -0.02,-0.02 -0.04,-0.02 -0.01,0 -0.03,0 -0.06,0l-0.04 0zm-0.1 0.37l0 -0.45 0.15 0c0.05,0 0.09,0.01 0.11,0.01 0.02,0.01 0.04,0.02 0.06,0.04 0.02,0.03 0.03,0.06 0.03,0.09 0,0.03 -0.01,0.05 -0.02,0.07 -0.01,0.02 -0.02,0.03 -0.04,0.05 -0.01,0.01 -0.03,0.01 -0.04,0.02 -0.02,0 -0.05,0 -0.1,0l-0.05 0 0 0.17 -0.1 0zm-0.23 0l0 -0.45 0.09 0 0 0.45 -0.09 0zm-0.33 0l0 -0.37 -0.14 0 0 -0.08 0.36 0 0 0.08 -0.13 0 0 0.37 -0.09 0zm-0.49 0l0 -0.44 0.09 0 0 0.37 0.22 0 0 0.07 -0.31 0zm-0.51 -0.45l0.09 0 0 0.25c0,0.04 0,0.06 0,0.07 0,0.02 0.01,0.03 0.03,0.05 0.01,0.01 0.03,0.01 0.06,0.01 0.02,0 0.04,0 0.05,-0.01 0.02,-0.01 0.02,-0.03 0.03,-0.04 0,-0.02 0,-0.04 0,-0.08l0 -0.25 0.09 0 0 0.24c0,0.05 0,0.09 -0.01,0.11 0,0.03 -0.01,0.04 -0.02,0.06 -0.02,0.02 -0.03,0.03 -0.05,0.04 -0.03,0.01 -0.06,0.01 -0.09,0.01 -0.04,0 -0.08,0 -0.1,-0.01 -0.02,-0.01 -0.04,-0.03 -0.05,-0.04 -0.01,-0.02 -0.02,-0.04 -0.03,-0.05 0,-0.03 0,-0.07 0,-0.12l0 -0.24zm-0.58 0.45l0 -0.45 0.13 0 0.08 0.31 0.08 -0.31 0.14 0 0 0.45 -0.09 0 0 -0.35 -0.08 0.35 -0.09 0 -0.09 -0.35 0 0.35 -0.08 0z"/>
  <path class="fil3" d="M10.65 1.44l0 -0.45 0.34 0 0 0.08 -0.24 0 0 0.1 0.22 0 0 0.07 -0.22 0 0 0.13 0.25 0 0 0.07 -0.35 0zm-0.43 0l0 -0.44 0.09 0 0 0.37 0.22 0 0 0.07 -0.31 0zm-0.39 -0.37l0 0.13 0.05 0c0.04,0 0.06,-0.01 0.07,-0.01 0.02,0 0.03,-0.01 0.03,-0.02 0.01,-0.01 0.01,-0.02 0.01,-0.04 0,-0.01 0,-0.03 -0.01,-0.04 -0.01,-0.01 -0.02,-0.02 -0.04,-0.02 -0.01,0 -0.03,0 -0.06,0l-0.05 0zm-0.09 0.37l0 -0.45 0.15 0c0.05,0 0.09,0.01 0.11,0.01 0.02,0.01 0.04,0.02 0.06,0.04 0.02,0.03 0.03,0.06 0.03,0.09 0,0.03 -0.01,0.05 -0.02,0.07 -0.01,0.02 -0.02,0.03 -0.04,0.05 -0.01,0.01 -0.03,0.01 -0.04,0.02 -0.03,0 -0.06,0 -0.1,0l-0.06 0 0 0.17 -0.09 0zm-0.23 0l0 -0.45 0.09 0 0 0.45 -0.09 0zm-0.34 0l0 -0.37 -0.13 0 0 -0.08 0.36 0 0 0.08 -0.13 0 0 0.37 -0.1 0zm-0.49 0l0 -0.44 0.1 0 0 0.37 0.22 0 0 0.07 -0.32 0zm-0.51 -0.45l0.09 0 0 0.25c0,0.04 0.01,0.06 0.01,0.07 0,0.02 0.01,0.03 0.02,0.05 0.02,0.01 0.04,0.01 0.06,0.01 0.03,0 0.05,0 0.06,-0.01 0.01,-0.01 0.02,-0.03 0.03,-0.04 0,-0.02 0,-0.04 0,-0.08l0 -0.25 0.09 0 0 0.24c0,0.05 0,0.09 -0.01,0.11 0,0.03 -0.01,0.04 -0.02,0.06 -0.02,0.02 -0.03,0.03 -0.06,0.04 -0.02,0.01 -0.05,0.01 -0.08,0.01 -0.05,0 -0.08,0 -0.1,-0.01 -0.02,-0.01 -0.04,-0.03 -0.05,-0.04 -0.02,-0.02 -0.02,-0.04 -0.03,-0.05 0,-0.03 -0.01,-0.07 -0.01,-0.12l0 -0.24zm-0.58 0.45l0 -0.45 0.14 0 0.08 0.31 0.08 -0.31 0.14 0 0 0.45 -0.09 0 0 -0.35 -0.09 0.35 -0.08 0 -0.09 -0.35 0 0.35 -0.09 0z"/>
  <path class="fil3" d="M6.52 0.65l0 -0.45 0.33 0 0 0.08 -0.24 0 0 0.1 0.22 0 0 0.07 -0.22 0 0 0.12 0.25 0 0 0.08 -0.34 0zm-0.44 0l0 -0.45 0.09 0 0 0.37 0.23 0 0 0.08 -0.32 0zm-0.34 -0.17l0 -0.07 0.2 0 0 0.18c-0.02,0.02 -0.05,0.03 -0.09,0.05 -0.03,0.01 -0.07,0.02 -0.1,0.02 -0.05,0 -0.09,-0.01 -0.13,-0.03 -0.03,-0.02 -0.06,-0.05 -0.08,-0.09 -0.01,-0.03 -0.02,-0.07 -0.02,-0.12 0,-0.04 0.01,-0.09 0.03,-0.12 0.02,-0.04 0.05,-0.07 0.08,-0.09 0.03,-0.01 0.07,-0.02 0.11,-0.02 0.06,0 0.1,0.01 0.13,0.04 0.03,0.02 0.05,0.05 0.06,0.09l-0.09 0.02c0,-0.02 -0.02,-0.04 -0.03,-0.05 -0.02,-0.01 -0.04,-0.02 -0.07,-0.02 -0.04,0 -0.07,0.01 -0.09,0.04 -0.03,0.02 -0.04,0.06 -0.04,0.11 0,0.05 0.01,0.09 0.04,0.12 0.02,0.03 0.05,0.04 0.09,0.04 0.02,0 0.04,0 0.06,-0.01 0.02,-0.01 0.03,-0.02 0.05,-0.03l0 -0.06 -0.11 0zm-0.72 0.17l0 -0.45 0.09 0 0.19 0.3 0 -0.3 0.08 0 0 0.45 -0.09 0 -0.18 -0.3 0 0.3 -0.09 0zm-0.23 0l0 -0.45 0.09 0 0 0.45 -0.09 0zm-0.49 -0.15l0.09 0c0,0.02 0.01,0.05 0.03,0.06 0.01,0.01 0.04,0.02 0.06,0.02 0.03,0 0.05,0 0.07,-0.02 0.01,-0.01 0.02,-0.02 0.02,-0.04 0,-0.01 0,-0.02 -0.01,-0.03 0,-0.01 -0.01,-0.01 -0.03,-0.02 -0.01,0 -0.03,-0.01 -0.07,-0.02 -0.05,-0.01 -0.08,-0.02 -0.1,-0.04 -0.03,-0.03 -0.05,-0.06 -0.05,-0.09 0,-0.03 0.01,-0.05 0.02,-0.07 0.02,-0.02 0.04,-0.03 0.06,-0.04 0.02,-0.01 0.05,-0.02 0.09,-0.02 0.05,0 0.1,0.01 0.12,0.04 0.03,0.02 0.05,0.06 0.05,0.1l-0.09 0c-0.01,-0.02 -0.01,-0.04 -0.03,-0.05 -0.01,-0.01 -0.03,-0.01 -0.05,-0.01 -0.03,0 -0.05,0 -0.06,0.01 -0.01,0.01 -0.02,0.02 -0.02,0.03 0,0.01 0.01,0.02 0.01,0.03 0.02,0.01 0.04,0.02 0.09,0.03 0.04,0.01 0.07,0.02 0.09,0.03 0.03,0.01 0.04,0.03 0.05,0.05 0.02,0.02 0.02,0.04 0.02,0.07 0,0.02 0,0.05 -0.02,0.07 -0.01,0.02 -0.03,0.04 -0.06,0.05 -0.03,0.01 -0.06,0.02 -0.1,0.02 -0.05,0 -0.1,-0.02 -0.13,-0.04 -0.03,-0.03 -0.05,-0.07 -0.05,-0.12z"/>
  <path class="fil3" d="M10.23 0.65l0 -0.45 0.34 0 0 0.08 -0.25 0 0 0.1 0.23 0 0 0.07 -0.23 0 0 0.12 0.25 0 0 0.08 -0.34 0zm-0.43 0l0 -0.45 0.09 0 0 0.37 0.22 0 0 0.08 -0.31 0zm-0.34 -0.17l0 -0.07 0.2 0 0 0.18c-0.02,0.02 -0.05,0.03 -0.09,0.05 -0.03,0.01 -0.07,0.02 -0.11,0.02 -0.04,0 -0.08,-0.01 -0.12,-0.03 -0.03,-0.02 -0.06,-0.05 -0.08,-0.09 -0.02,-0.03 -0.02,-0.07 -0.02,-0.12 0,-0.04 0.01,-0.09 0.02,-0.12 0.02,-0.04 0.05,-0.07 0.09,-0.09 0.03,-0.01 0.07,-0.02 0.11,-0.02 0.05,0 0.1,0.01 0.13,0.04 0.03,0.02 0.05,0.05 0.06,0.09l-0.09 0.02c-0.01,-0.02 -0.02,-0.04 -0.04,-0.05 -0.01,-0.01 -0.04,-0.02 -0.06,-0.02 -0.04,0 -0.07,0.01 -0.1,0.04 -0.02,0.02 -0.03,0.06 -0.03,0.11 0,0.05 0.01,0.09 0.03,0.12 0.03,0.03 0.06,0.04 0.1,0.04 0.02,0 0.04,0 0.05,-0.01 0.02,-0.01 0.04,-0.02 0.05,-0.03l0 -0.06 -0.1 0zm-0.72 0.17l0 -0.45 0.09 0 0.19 0.3 0 -0.3 0.08 0 0 0.45 -0.09 0 -0.18 -0.3 0 0.3 -0.09 0zm-0.23 0l0 -0.45 0.09 0 0 0.45 -0.09 0zm-0.49 -0.15l0.08 0c0.01,0.02 0.02,0.05 0.04,0.06 0.01,0.01 0.03,0.02 0.06,0.02 0.03,0 0.05,0 0.07,-0.02 0.01,-0.01 0.02,-0.02 0.02,-0.04 0,-0.01 0,-0.02 -0.01,-0.03 -0.01,-0.01 -0.02,-0.01 -0.03,-0.02 -0.01,0 -0.04,-0.01 -0.07,-0.02 -0.05,-0.01 -0.09,-0.02 -0.11,-0.04 -0.02,-0.03 -0.04,-0.06 -0.04,-0.09 0,-0.03 0.01,-0.05 0.02,-0.07 0.01,-0.02 0.03,-0.03 0.06,-0.04 0.02,-0.01 0.05,-0.02 0.09,-0.02 0.05,0 0.09,0.01 0.12,0.04 0.03,0.02 0.05,0.06 0.05,0.1l-0.09 0c-0.01,-0.02 -0.02,-0.04 -0.03,-0.05 -0.01,-0.01 -0.03,-0.01 -0.06,-0.01 -0.02,0 -0.04,0 -0.06,0.01 -0.01,0.01 -0.01,0.02 -0.01,0.03 0,0.01 0,0.02 0.01,0.03 0.01,0.01 0.04,0.02 0.09,0.03 0.04,0.01 0.07,0.02 0.09,0.03 0.02,0.01 0.04,0.03 0.05,0.05 0.01,0.02 0.02,0.04 0.02,0.07 0,0.02 -0.01,0.05 -0.02,0.07 -0.02,0.02 -0.04,0.04 -0.06,0.05 -0.03,0.01 -0.06,0.02 -0.1,0.02 -0.06,0 -0.1,-0.02 -0.13,-0.04 -0.03,-0.03 -0.05,-0.07 -0.05,-0.12z"/>
  <polygon class="fil1" points="3.72,0.03 11.15,0.03 11.15,2.42 3.72,2.42 "/>
 </g>
</svg>
